<?xml version="1.0" encoding="utf-8" standalone="no"?>
<!DOCTYPE svg PUBLIC "-//W3C//DTD SVG 1.1//EN"
  "http://www.w3.org/Graphics/SVG/1.1/DTD/svg11.dtd">
<svg xmlns:xlink="http://www.w3.org/1999/xlink" width="720pt" height="432pt" viewBox="0 0 720 432" xmlns="http://www.w3.org/2000/svg" version="1.1">
 <metadata>
  <rdf:RDF xmlns:dc="http://purl.org/dc/elements/1.1/" xmlns:cc="http://creativecommons.org/ns#" xmlns:rdf="http://www.w3.org/1999/02/22-rdf-syntax-ns#">
   <cc:Work>
    <dc:type rdf:resource="http://purl.org/dc/dcmitype/StillImage"/>
    <dc:date>2024-12-08T22:42:02.296950</dc:date>
    <dc:format>image/svg+xml</dc:format>
    <dc:creator>
     <cc:Agent>
      <dc:title>Matplotlib v3.9.2, https://matplotlib.org/</dc:title>
     </cc:Agent>
    </dc:creator>
   </cc:Work>
  </rdf:RDF>
 </metadata>
 <defs>
  <style type="text/css">*{stroke-linejoin: round; stroke-linecap: butt}</style>
 </defs>
 <g id="figure_1">
  <g id="patch_1">
   <path d="M 0 432 
L 720 432 
L 720 0 
L 0 0 
z
" style="fill: #ffffff"/>
  </g>
  <g id="axes_1">
   <g id="patch_2">
    <path d="M 90 384.48 
L 648 384.48 
L 648 51.84 
L 90 51.84 
z
" style="fill: #ffffff"/>
   </g>
   <g id="matplotlib.axis_1">
    <g id="xtick_1">
     <g id="line2d_1">
      <path d="M 90 384.48 
L 90 51.84 
" clip-path="url(#pfe3be7e73b)" style="fill: none; stroke: #b0b0b0; stroke-width: 0.8; stroke-linecap: square"/>
     </g>
     <g id="line2d_2">
      <defs>
       <path id="mfbfa95ac1d" d="M 0 0 
L 0 3.5 
" style="stroke: #000000; stroke-width: 0.8"/>
      </defs>
      <g>
       <use xlink:href="#mfbfa95ac1d" x="90" y="384.48" style="stroke: #000000; stroke-width: 0.8"/>
      </g>
     </g>
     <g id="text_1">
      <!-- 40 -->
      <g transform="translate(79.18375 404.397344) scale(0.17 -0.17)">
       <defs>
        <path id="DejaVuSans-34" d="M 2419 4116 
L 825 1625 
L 2419 1625 
L 2419 4116 
z
M 2253 4666 
L 3047 4666 
L 3047 1625 
L 3713 1625 
L 3713 1100 
L 3047 1100 
L 3047 0 
L 2419 0 
L 2419 1100 
L 313 1100 
L 313 1709 
L 2253 4666 
z
" transform="scale(0.015625)"/>
        <path id="DejaVuSans-30" d="M 2034 4250 
Q 1547 4250 1301 3770 
Q 1056 3291 1056 2328 
Q 1056 1369 1301 889 
Q 1547 409 2034 409 
Q 2525 409 2770 889 
Q 3016 1369 3016 2328 
Q 3016 3291 2770 3770 
Q 2525 4250 2034 4250 
z
M 2034 4750 
Q 2819 4750 3233 4129 
Q 3647 3509 3647 2328 
Q 3647 1150 3233 529 
Q 2819 -91 2034 -91 
Q 1250 -91 836 529 
Q 422 1150 422 2328 
Q 422 3509 836 4129 
Q 1250 4750 2034 4750 
z
" transform="scale(0.015625)"/>
       </defs>
       <use xlink:href="#DejaVuSans-34"/>
       <use xlink:href="#DejaVuSans-30" x="63.623047"/>
      </g>
     </g>
    </g>
    <g id="xtick_2">
     <g id="line2d_3">
      <path d="M 183 384.48 
L 183 51.84 
" clip-path="url(#pfe3be7e73b)" style="fill: none; stroke: #b0b0b0; stroke-width: 0.8; stroke-linecap: square"/>
     </g>
     <g id="line2d_4">
      <g>
       <use xlink:href="#mfbfa95ac1d" x="183" y="384.48" style="stroke: #000000; stroke-width: 0.8"/>
      </g>
     </g>
     <g id="text_2">
      <!-- 45 -->
      <g transform="translate(172.18375 404.397344) scale(0.17 -0.17)">
       <defs>
        <path id="DejaVuSans-35" d="M 691 4666 
L 3169 4666 
L 3169 4134 
L 1269 4134 
L 1269 2991 
Q 1406 3038 1543 3061 
Q 1681 3084 1819 3084 
Q 2600 3084 3056 2656 
Q 3513 2228 3513 1497 
Q 3513 744 3044 326 
Q 2575 -91 1722 -91 
Q 1428 -91 1123 -41 
Q 819 9 494 109 
L 494 744 
Q 775 591 1075 516 
Q 1375 441 1709 441 
Q 2250 441 2565 725 
Q 2881 1009 2881 1497 
Q 2881 1984 2565 2268 
Q 2250 2553 1709 2553 
Q 1456 2553 1204 2497 
Q 953 2441 691 2322 
L 691 4666 
z
" transform="scale(0.015625)"/>
       </defs>
       <use xlink:href="#DejaVuSans-34"/>
       <use xlink:href="#DejaVuSans-35" x="63.623047"/>
      </g>
     </g>
    </g>
    <g id="xtick_3">
     <g id="line2d_5">
      <path d="M 276 384.48 
L 276 51.84 
" clip-path="url(#pfe3be7e73b)" style="fill: none; stroke: #b0b0b0; stroke-width: 0.8; stroke-linecap: square"/>
     </g>
     <g id="line2d_6">
      <g>
       <use xlink:href="#mfbfa95ac1d" x="276" y="384.48" style="stroke: #000000; stroke-width: 0.8"/>
      </g>
     </g>
     <g id="text_3">
      <!-- 50 -->
      <g transform="translate(265.18375 404.397344) scale(0.17 -0.17)">
       <use xlink:href="#DejaVuSans-35"/>
       <use xlink:href="#DejaVuSans-30" x="63.623047"/>
      </g>
     </g>
    </g>
    <g id="xtick_4">
     <g id="line2d_7">
      <path d="M 369 384.48 
L 369 51.84 
" clip-path="url(#pfe3be7e73b)" style="fill: none; stroke: #b0b0b0; stroke-width: 0.8; stroke-linecap: square"/>
     </g>
     <g id="line2d_8">
      <g>
       <use xlink:href="#mfbfa95ac1d" x="369" y="384.48" style="stroke: #000000; stroke-width: 0.8"/>
      </g>
     </g>
     <g id="text_4">
      <!-- 55 -->
      <g transform="translate(358.18375 404.397344) scale(0.17 -0.17)">
       <use xlink:href="#DejaVuSans-35"/>
       <use xlink:href="#DejaVuSans-35" x="63.623047"/>
      </g>
     </g>
    </g>
    <g id="xtick_5">
     <g id="line2d_9">
      <path d="M 462 384.48 
L 462 51.84 
" clip-path="url(#pfe3be7e73b)" style="fill: none; stroke: #b0b0b0; stroke-width: 0.8; stroke-linecap: square"/>
     </g>
     <g id="line2d_10">
      <g>
       <use xlink:href="#mfbfa95ac1d" x="462" y="384.48" style="stroke: #000000; stroke-width: 0.8"/>
      </g>
     </g>
     <g id="text_5">
      <!-- 60 -->
      <g transform="translate(451.18375 404.397344) scale(0.17 -0.17)">
       <defs>
        <path id="DejaVuSans-36" d="M 2113 2584 
Q 1688 2584 1439 2293 
Q 1191 2003 1191 1497 
Q 1191 994 1439 701 
Q 1688 409 2113 409 
Q 2538 409 2786 701 
Q 3034 994 3034 1497 
Q 3034 2003 2786 2293 
Q 2538 2584 2113 2584 
z
M 3366 4563 
L 3366 3988 
Q 3128 4100 2886 4159 
Q 2644 4219 2406 4219 
Q 1781 4219 1451 3797 
Q 1122 3375 1075 2522 
Q 1259 2794 1537 2939 
Q 1816 3084 2150 3084 
Q 2853 3084 3261 2657 
Q 3669 2231 3669 1497 
Q 3669 778 3244 343 
Q 2819 -91 2113 -91 
Q 1303 -91 875 529 
Q 447 1150 447 2328 
Q 447 3434 972 4092 
Q 1497 4750 2381 4750 
Q 2619 4750 2861 4703 
Q 3103 4656 3366 4563 
z
" transform="scale(0.015625)"/>
       </defs>
       <use xlink:href="#DejaVuSans-36"/>
       <use xlink:href="#DejaVuSans-30" x="63.623047"/>
      </g>
     </g>
    </g>
    <g id="xtick_6">
     <g id="line2d_11">
      <path d="M 555 384.48 
L 555 51.84 
" clip-path="url(#pfe3be7e73b)" style="fill: none; stroke: #b0b0b0; stroke-width: 0.8; stroke-linecap: square"/>
     </g>
     <g id="line2d_12">
      <g>
       <use xlink:href="#mfbfa95ac1d" x="555" y="384.48" style="stroke: #000000; stroke-width: 0.8"/>
      </g>
     </g>
     <g id="text_6">
      <!-- 65 -->
      <g transform="translate(544.18375 404.397344) scale(0.17 -0.17)">
       <use xlink:href="#DejaVuSans-36"/>
       <use xlink:href="#DejaVuSans-35" x="63.623047"/>
      </g>
     </g>
    </g>
    <g id="xtick_7">
     <g id="line2d_13">
      <path d="M 648 384.48 
L 648 51.84 
" clip-path="url(#pfe3be7e73b)" style="fill: none; stroke: #b0b0b0; stroke-width: 0.8; stroke-linecap: square"/>
     </g>
     <g id="line2d_14">
      <g>
       <use xlink:href="#mfbfa95ac1d" x="648" y="384.48" style="stroke: #000000; stroke-width: 0.8"/>
      </g>
     </g>
     <g id="text_7">
      <!-- 70 -->
      <g transform="translate(637.18375 404.397344) scale(0.17 -0.17)">
       <defs>
        <path id="DejaVuSans-37" d="M 525 4666 
L 3525 4666 
L 3525 4397 
L 1831 0 
L 1172 0 
L 2766 4134 
L 525 4134 
L 525 4666 
z
" transform="scale(0.015625)"/>
       </defs>
       <use xlink:href="#DejaVuSans-37"/>
       <use xlink:href="#DejaVuSans-30" x="63.623047"/>
      </g>
     </g>
    </g>
    <g id="text_8">
     <!-- t (ms) -->
     <g transform="translate(343.626172 424.850156) scale(0.17 -0.17)">
      <defs>
       <path id="DejaVuSans-74" d="M 1172 4494 
L 1172 3500 
L 2356 3500 
L 2356 3053 
L 1172 3053 
L 1172 1153 
Q 1172 725 1289 603 
Q 1406 481 1766 481 
L 2356 481 
L 2356 0 
L 1766 0 
Q 1100 0 847 248 
Q 594 497 594 1153 
L 594 3053 
L 172 3053 
L 172 3500 
L 594 3500 
L 594 4494 
L 1172 4494 
z
" transform="scale(0.015625)"/>
       <path id="DejaVuSans-20" transform="scale(0.015625)"/>
       <path id="DejaVuSans-28" d="M 1984 4856 
Q 1566 4138 1362 3434 
Q 1159 2731 1159 2009 
Q 1159 1288 1364 580 
Q 1569 -128 1984 -844 
L 1484 -844 
Q 1016 -109 783 600 
Q 550 1309 550 2009 
Q 550 2706 781 3412 
Q 1013 4119 1484 4856 
L 1984 4856 
z
" transform="scale(0.015625)"/>
       <path id="DejaVuSans-6d" d="M 3328 2828 
Q 3544 3216 3844 3400 
Q 4144 3584 4550 3584 
Q 5097 3584 5394 3201 
Q 5691 2819 5691 2113 
L 5691 0 
L 5113 0 
L 5113 2094 
Q 5113 2597 4934 2840 
Q 4756 3084 4391 3084 
Q 3944 3084 3684 2787 
Q 3425 2491 3425 1978 
L 3425 0 
L 2847 0 
L 2847 2094 
Q 2847 2600 2669 2842 
Q 2491 3084 2119 3084 
Q 1678 3084 1418 2786 
Q 1159 2488 1159 1978 
L 1159 0 
L 581 0 
L 581 3500 
L 1159 3500 
L 1159 2956 
Q 1356 3278 1631 3431 
Q 1906 3584 2284 3584 
Q 2666 3584 2933 3390 
Q 3200 3197 3328 2828 
z
" transform="scale(0.015625)"/>
       <path id="DejaVuSans-73" d="M 2834 3397 
L 2834 2853 
Q 2591 2978 2328 3040 
Q 2066 3103 1784 3103 
Q 1356 3103 1142 2972 
Q 928 2841 928 2578 
Q 928 2378 1081 2264 
Q 1234 2150 1697 2047 
L 1894 2003 
Q 2506 1872 2764 1633 
Q 3022 1394 3022 966 
Q 3022 478 2636 193 
Q 2250 -91 1575 -91 
Q 1294 -91 989 -36 
Q 684 19 347 128 
L 347 722 
Q 666 556 975 473 
Q 1284 391 1588 391 
Q 1994 391 2212 530 
Q 2431 669 2431 922 
Q 2431 1156 2273 1281 
Q 2116 1406 1581 1522 
L 1381 1569 
Q 847 1681 609 1914 
Q 372 2147 372 2553 
Q 372 3047 722 3315 
Q 1072 3584 1716 3584 
Q 2034 3584 2315 3537 
Q 2597 3491 2834 3397 
z
" transform="scale(0.015625)"/>
       <path id="DejaVuSans-29" d="M 513 4856 
L 1013 4856 
Q 1481 4119 1714 3412 
Q 1947 2706 1947 2009 
Q 1947 1309 1714 600 
Q 1481 -109 1013 -844 
L 513 -844 
Q 928 -128 1133 580 
Q 1338 1288 1338 2009 
Q 1338 2731 1133 3434 
Q 928 4138 513 4856 
z
" transform="scale(0.015625)"/>
      </defs>
      <use xlink:href="#DejaVuSans-74"/>
      <use xlink:href="#DejaVuSans-20" x="39.208984"/>
      <use xlink:href="#DejaVuSans-28" x="70.996094"/>
      <use xlink:href="#DejaVuSans-6d" x="110.009766"/>
      <use xlink:href="#DejaVuSans-73" x="207.421875"/>
      <use xlink:href="#DejaVuSans-29" x="259.521484"/>
     </g>
    </g>
   </g>
   <g id="matplotlib.axis_2">
    <g id="ytick_1">
     <g id="line2d_15">
      <path d="M 90 379.415759 
L 648 379.415759 
" clip-path="url(#pfe3be7e73b)" style="fill: none; stroke: #b0b0b0; stroke-width: 0.8; stroke-linecap: square"/>
     </g>
     <g id="line2d_16">
      <defs>
       <path id="m527e816bdd" d="M 0 0 
L -3.5 0 
" style="stroke: #000000; stroke-width: 0.8"/>
      </defs>
      <g>
       <use xlink:href="#m527e816bdd" x="90" y="379.415759" style="stroke: #000000; stroke-width: 0.8"/>
      </g>
     </g>
     <g id="text_9">
      <!-- 0.0 -->
      <g transform="translate(55.964687 385.874431) scale(0.17 -0.17)">
       <defs>
        <path id="DejaVuSans-2e" d="M 684 794 
L 1344 794 
L 1344 0 
L 684 0 
L 684 794 
z
" transform="scale(0.015625)"/>
       </defs>
       <use xlink:href="#DejaVuSans-30"/>
       <use xlink:href="#DejaVuSans-2e" x="63.623047"/>
       <use xlink:href="#DejaVuSans-30" x="95.410156"/>
      </g>
     </g>
    </g>
    <g id="ytick_2">
     <g id="line2d_17">
      <path d="M 90 315.556982 
L 648 315.556982 
" clip-path="url(#pfe3be7e73b)" style="fill: none; stroke: #b0b0b0; stroke-width: 0.8; stroke-linecap: square"/>
     </g>
     <g id="line2d_18">
      <g>
       <use xlink:href="#m527e816bdd" x="90" y="315.556982" style="stroke: #000000; stroke-width: 0.8"/>
      </g>
     </g>
     <g id="text_10">
      <!-- 0.2 -->
      <g transform="translate(55.964687 322.015654) scale(0.17 -0.17)">
       <defs>
        <path id="DejaVuSans-32" d="M 1228 531 
L 3431 531 
L 3431 0 
L 469 0 
L 469 531 
Q 828 903 1448 1529 
Q 2069 2156 2228 2338 
Q 2531 2678 2651 2914 
Q 2772 3150 2772 3378 
Q 2772 3750 2511 3984 
Q 2250 4219 1831 4219 
Q 1534 4219 1204 4116 
Q 875 4013 500 3803 
L 500 4441 
Q 881 4594 1212 4672 
Q 1544 4750 1819 4750 
Q 2544 4750 2975 4387 
Q 3406 4025 3406 3419 
Q 3406 3131 3298 2873 
Q 3191 2616 2906 2266 
Q 2828 2175 2409 1742 
Q 1991 1309 1228 531 
z
" transform="scale(0.015625)"/>
       </defs>
       <use xlink:href="#DejaVuSans-30"/>
       <use xlink:href="#DejaVuSans-2e" x="63.623047"/>
       <use xlink:href="#DejaVuSans-32" x="95.410156"/>
      </g>
     </g>
    </g>
    <g id="ytick_3">
     <g id="line2d_19">
      <path d="M 90 251.698206 
L 648 251.698206 
" clip-path="url(#pfe3be7e73b)" style="fill: none; stroke: #b0b0b0; stroke-width: 0.8; stroke-linecap: square"/>
     </g>
     <g id="line2d_20">
      <g>
       <use xlink:href="#m527e816bdd" x="90" y="251.698206" style="stroke: #000000; stroke-width: 0.8"/>
      </g>
     </g>
     <g id="text_11">
      <!-- 0.4 -->
      <g transform="translate(55.964687 258.156878) scale(0.17 -0.17)">
       <use xlink:href="#DejaVuSans-30"/>
       <use xlink:href="#DejaVuSans-2e" x="63.623047"/>
       <use xlink:href="#DejaVuSans-34" x="95.410156"/>
      </g>
     </g>
    </g>
    <g id="ytick_4">
     <g id="line2d_21">
      <path d="M 90 187.839429 
L 648 187.839429 
" clip-path="url(#pfe3be7e73b)" style="fill: none; stroke: #b0b0b0; stroke-width: 0.8; stroke-linecap: square"/>
     </g>
     <g id="line2d_22">
      <g>
       <use xlink:href="#m527e816bdd" x="90" y="187.839429" style="stroke: #000000; stroke-width: 0.8"/>
      </g>
     </g>
     <g id="text_12">
      <!-- 0.6 -->
      <g transform="translate(55.964687 194.298101) scale(0.17 -0.17)">
       <use xlink:href="#DejaVuSans-30"/>
       <use xlink:href="#DejaVuSans-2e" x="63.623047"/>
       <use xlink:href="#DejaVuSans-36" x="95.410156"/>
      </g>
     </g>
    </g>
    <g id="ytick_5">
     <g id="line2d_23">
      <path d="M 90 123.980653 
L 648 123.980653 
" clip-path="url(#pfe3be7e73b)" style="fill: none; stroke: #b0b0b0; stroke-width: 0.8; stroke-linecap: square"/>
     </g>
     <g id="line2d_24">
      <g>
       <use xlink:href="#m527e816bdd" x="90" y="123.980653" style="stroke: #000000; stroke-width: 0.8"/>
      </g>
     </g>
     <g id="text_13">
      <!-- 0.8 -->
      <g transform="translate(55.964687 130.439325) scale(0.17 -0.17)">
       <defs>
        <path id="DejaVuSans-38" d="M 2034 2216 
Q 1584 2216 1326 1975 
Q 1069 1734 1069 1313 
Q 1069 891 1326 650 
Q 1584 409 2034 409 
Q 2484 409 2743 651 
Q 3003 894 3003 1313 
Q 3003 1734 2745 1975 
Q 2488 2216 2034 2216 
z
M 1403 2484 
Q 997 2584 770 2862 
Q 544 3141 544 3541 
Q 544 4100 942 4425 
Q 1341 4750 2034 4750 
Q 2731 4750 3128 4425 
Q 3525 4100 3525 3541 
Q 3525 3141 3298 2862 
Q 3072 2584 2669 2484 
Q 3125 2378 3379 2068 
Q 3634 1759 3634 1313 
Q 3634 634 3220 271 
Q 2806 -91 2034 -91 
Q 1263 -91 848 271 
Q 434 634 434 1313 
Q 434 1759 690 2068 
Q 947 2378 1403 2484 
z
M 1172 3481 
Q 1172 3119 1398 2916 
Q 1625 2713 2034 2713 
Q 2441 2713 2670 2916 
Q 2900 3119 2900 3481 
Q 2900 3844 2670 4047 
Q 2441 4250 2034 4250 
Q 1625 4250 1398 4047 
Q 1172 3844 1172 3481 
z
" transform="scale(0.015625)"/>
       </defs>
       <use xlink:href="#DejaVuSans-30"/>
       <use xlink:href="#DejaVuSans-2e" x="63.623047"/>
       <use xlink:href="#DejaVuSans-38" x="95.410156"/>
      </g>
     </g>
    </g>
    <g id="ytick_6">
     <g id="line2d_25">
      <path d="M 90 60.121876 
L 648 60.121876 
" clip-path="url(#pfe3be7e73b)" style="fill: none; stroke: #b0b0b0; stroke-width: 0.8; stroke-linecap: square"/>
     </g>
     <g id="line2d_26">
      <g>
       <use xlink:href="#m527e816bdd" x="90" y="60.121876" style="stroke: #000000; stroke-width: 0.8"/>
      </g>
     </g>
     <g id="text_14">
      <!-- 1.0 -->
      <g transform="translate(55.964687 66.580548) scale(0.17 -0.17)">
       <defs>
        <path id="DejaVuSans-31" d="M 794 531 
L 1825 531 
L 1825 4091 
L 703 3866 
L 703 4441 
L 1819 4666 
L 2450 4666 
L 2450 531 
L 3481 531 
L 3481 0 
L 794 0 
L 794 531 
z
" transform="scale(0.015625)"/>
       </defs>
       <use xlink:href="#DejaVuSans-31"/>
       <use xlink:href="#DejaVuSans-2e" x="63.623047"/>
       <use xlink:href="#DejaVuSans-30" x="95.410156"/>
      </g>
     </g>
    </g>
    <g id="text_15">
     <!-- opening probability -->
     <g transform="translate(48.429219 300.568828) rotate(-90) scale(0.17 -0.17)">
      <defs>
       <path id="DejaVuSans-6f" d="M 1959 3097 
Q 1497 3097 1228 2736 
Q 959 2375 959 1747 
Q 959 1119 1226 758 
Q 1494 397 1959 397 
Q 2419 397 2687 759 
Q 2956 1122 2956 1747 
Q 2956 2369 2687 2733 
Q 2419 3097 1959 3097 
z
M 1959 3584 
Q 2709 3584 3137 3096 
Q 3566 2609 3566 1747 
Q 3566 888 3137 398 
Q 2709 -91 1959 -91 
Q 1206 -91 779 398 
Q 353 888 353 1747 
Q 353 2609 779 3096 
Q 1206 3584 1959 3584 
z
" transform="scale(0.015625)"/>
       <path id="DejaVuSans-70" d="M 1159 525 
L 1159 -1331 
L 581 -1331 
L 581 3500 
L 1159 3500 
L 1159 2969 
Q 1341 3281 1617 3432 
Q 1894 3584 2278 3584 
Q 2916 3584 3314 3078 
Q 3713 2572 3713 1747 
Q 3713 922 3314 415 
Q 2916 -91 2278 -91 
Q 1894 -91 1617 61 
Q 1341 213 1159 525 
z
M 3116 1747 
Q 3116 2381 2855 2742 
Q 2594 3103 2138 3103 
Q 1681 3103 1420 2742 
Q 1159 2381 1159 1747 
Q 1159 1113 1420 752 
Q 1681 391 2138 391 
Q 2594 391 2855 752 
Q 3116 1113 3116 1747 
z
" transform="scale(0.015625)"/>
       <path id="DejaVuSans-65" d="M 3597 1894 
L 3597 1613 
L 953 1613 
Q 991 1019 1311 708 
Q 1631 397 2203 397 
Q 2534 397 2845 478 
Q 3156 559 3463 722 
L 3463 178 
Q 3153 47 2828 -22 
Q 2503 -91 2169 -91 
Q 1331 -91 842 396 
Q 353 884 353 1716 
Q 353 2575 817 3079 
Q 1281 3584 2069 3584 
Q 2775 3584 3186 3129 
Q 3597 2675 3597 1894 
z
M 3022 2063 
Q 3016 2534 2758 2815 
Q 2500 3097 2075 3097 
Q 1594 3097 1305 2825 
Q 1016 2553 972 2059 
L 3022 2063 
z
" transform="scale(0.015625)"/>
       <path id="DejaVuSans-6e" d="M 3513 2113 
L 3513 0 
L 2938 0 
L 2938 2094 
Q 2938 2591 2744 2837 
Q 2550 3084 2163 3084 
Q 1697 3084 1428 2787 
Q 1159 2491 1159 1978 
L 1159 0 
L 581 0 
L 581 3500 
L 1159 3500 
L 1159 2956 
Q 1366 3272 1645 3428 
Q 1925 3584 2291 3584 
Q 2894 3584 3203 3211 
Q 3513 2838 3513 2113 
z
" transform="scale(0.015625)"/>
       <path id="DejaVuSans-69" d="M 603 3500 
L 1178 3500 
L 1178 0 
L 603 0 
L 603 3500 
z
M 603 4863 
L 1178 4863 
L 1178 4134 
L 603 4134 
L 603 4863 
z
" transform="scale(0.015625)"/>
       <path id="DejaVuSans-67" d="M 2906 1791 
Q 2906 2416 2648 2759 
Q 2391 3103 1925 3103 
Q 1463 3103 1205 2759 
Q 947 2416 947 1791 
Q 947 1169 1205 825 
Q 1463 481 1925 481 
Q 2391 481 2648 825 
Q 2906 1169 2906 1791 
z
M 3481 434 
Q 3481 -459 3084 -895 
Q 2688 -1331 1869 -1331 
Q 1566 -1331 1297 -1286 
Q 1028 -1241 775 -1147 
L 775 -588 
Q 1028 -725 1275 -790 
Q 1522 -856 1778 -856 
Q 2344 -856 2625 -561 
Q 2906 -266 2906 331 
L 2906 616 
Q 2728 306 2450 153 
Q 2172 0 1784 0 
Q 1141 0 747 490 
Q 353 981 353 1791 
Q 353 2603 747 3093 
Q 1141 3584 1784 3584 
Q 2172 3584 2450 3431 
Q 2728 3278 2906 2969 
L 2906 3500 
L 3481 3500 
L 3481 434 
z
" transform="scale(0.015625)"/>
       <path id="DejaVuSans-72" d="M 2631 2963 
Q 2534 3019 2420 3045 
Q 2306 3072 2169 3072 
Q 1681 3072 1420 2755 
Q 1159 2438 1159 1844 
L 1159 0 
L 581 0 
L 581 3500 
L 1159 3500 
L 1159 2956 
Q 1341 3275 1631 3429 
Q 1922 3584 2338 3584 
Q 2397 3584 2469 3576 
Q 2541 3569 2628 3553 
L 2631 2963 
z
" transform="scale(0.015625)"/>
       <path id="DejaVuSans-62" d="M 3116 1747 
Q 3116 2381 2855 2742 
Q 2594 3103 2138 3103 
Q 1681 3103 1420 2742 
Q 1159 2381 1159 1747 
Q 1159 1113 1420 752 
Q 1681 391 2138 391 
Q 2594 391 2855 752 
Q 3116 1113 3116 1747 
z
M 1159 2969 
Q 1341 3281 1617 3432 
Q 1894 3584 2278 3584 
Q 2916 3584 3314 3078 
Q 3713 2572 3713 1747 
Q 3713 922 3314 415 
Q 2916 -91 2278 -91 
Q 1894 -91 1617 61 
Q 1341 213 1159 525 
L 1159 0 
L 581 0 
L 581 4863 
L 1159 4863 
L 1159 2969 
z
" transform="scale(0.015625)"/>
       <path id="DejaVuSans-61" d="M 2194 1759 
Q 1497 1759 1228 1600 
Q 959 1441 959 1056 
Q 959 750 1161 570 
Q 1363 391 1709 391 
Q 2188 391 2477 730 
Q 2766 1069 2766 1631 
L 2766 1759 
L 2194 1759 
z
M 3341 1997 
L 3341 0 
L 2766 0 
L 2766 531 
Q 2569 213 2275 61 
Q 1981 -91 1556 -91 
Q 1019 -91 701 211 
Q 384 513 384 1019 
Q 384 1609 779 1909 
Q 1175 2209 1959 2209 
L 2766 2209 
L 2766 2266 
Q 2766 2663 2505 2880 
Q 2244 3097 1772 3097 
Q 1472 3097 1187 3025 
Q 903 2953 641 2809 
L 641 3341 
Q 956 3463 1253 3523 
Q 1550 3584 1831 3584 
Q 2591 3584 2966 3190 
Q 3341 2797 3341 1997 
z
" transform="scale(0.015625)"/>
       <path id="DejaVuSans-6c" d="M 603 4863 
L 1178 4863 
L 1178 0 
L 603 0 
L 603 4863 
z
" transform="scale(0.015625)"/>
       <path id="DejaVuSans-79" d="M 2059 -325 
Q 1816 -950 1584 -1140 
Q 1353 -1331 966 -1331 
L 506 -1331 
L 506 -850 
L 844 -850 
Q 1081 -850 1212 -737 
Q 1344 -625 1503 -206 
L 1606 56 
L 191 3500 
L 800 3500 
L 1894 763 
L 2988 3500 
L 3597 3500 
L 2059 -325 
z
" transform="scale(0.015625)"/>
      </defs>
      <use xlink:href="#DejaVuSans-6f"/>
      <use xlink:href="#DejaVuSans-70" x="61.181641"/>
      <use xlink:href="#DejaVuSans-65" x="124.658203"/>
      <use xlink:href="#DejaVuSans-6e" x="186.181641"/>
      <use xlink:href="#DejaVuSans-69" x="249.560547"/>
      <use xlink:href="#DejaVuSans-6e" x="277.34375"/>
      <use xlink:href="#DejaVuSans-67" x="340.722656"/>
      <use xlink:href="#DejaVuSans-20" x="404.199219"/>
      <use xlink:href="#DejaVuSans-70" x="435.986328"/>
      <use xlink:href="#DejaVuSans-72" x="499.462891"/>
      <use xlink:href="#DejaVuSans-6f" x="538.326172"/>
      <use xlink:href="#DejaVuSans-62" x="599.507812"/>
      <use xlink:href="#DejaVuSans-61" x="662.984375"/>
      <use xlink:href="#DejaVuSans-62" x="724.263672"/>
      <use xlink:href="#DejaVuSans-69" x="787.740234"/>
      <use xlink:href="#DejaVuSans-6c" x="815.523438"/>
      <use xlink:href="#DejaVuSans-69" x="843.306641"/>
      <use xlink:href="#DejaVuSans-74" x="871.089844"/>
      <use xlink:href="#DejaVuSans-79" x="910.298828"/>
     </g>
    </g>
   </g>
   <g id="line2d_27">
    <path d="M 89.814 362.480481 
L 183.186 362.51424 
L 183.558 362.204724 
L 184.302 361.090876 
L 185.79 358.344162 
L 187.65 354.445688 
L 189.51 350.015056 
L 191.184 345.488689 
L 192.858 340.320554 
L 194.346 335.015135 
L 195.648 329.617678 
L 196.95 323.215423 
L 198.066 316.556446 
L 198.996 309.778455 
L 199.926 301.319211 
L 200.67 292.738788 
L 201.414 281.712642 
L 202.158 266.953231 
L 202.902 246.393027 
L 203.646 217.130249 
L 204.39 177.241346 
L 205.506 113.61048 
L 206.064 94.616024 
L 206.436 88.484734 
L 206.622 87.147412 
L 206.808 86.86083 
L 206.994 87.58814 
L 207.18 89.33181 
L 207.552 96.06173 
L 207.924 107.689035 
L 208.482 135.846808 
L 209.04 176.975678 
L 210.714 315.674205 
L 211.272 341.123028 
L 211.83 354.925507 
L 212.388 361.805145 
L 212.946 365.257706 
L 213.504 367.101617 
L 214.062 368.152711 
L 214.62 368.770894 
L 215.364 369.202115 
L 216.108 369.35355 
L 217.038 369.289185 
L 218.154 368.956659 
L 219.456 368.312543 
L 220.944 367.309421 
L 222.618 365.889054 
L 224.478 363.980507 
L 226.338 361.743026 
L 228.384 358.916605 
L 230.43 355.719875 
L 232.662 351.821589 
L 235.08 347.12253 
L 237.498 341.930164 
L 240.102 335.79033 
L 243.078 328.140898 
L 248.286 314.535955 
L 249.588 311.832379 
L 250.518 310.365005 
L 251.262 309.574877 
L 251.82 309.256451 
L 252.378 309.208822 
L 252.936 309.461634 
L 253.494 310.039531 
L 254.052 310.959317 
L 254.796 312.726031 
L 255.54 315.085908 
L 256.47 318.754676 
L 257.958 325.673904 
L 260.19 335.964854 
L 261.492 340.80435 
L 262.608 344.06027 
L 263.538 346.179458 
L 264.468 347.8248 
L 265.398 349.065889 
L 266.328 349.96798 
L 267.258 350.587638 
L 268.188 350.971937 
L 269.304 351.175971 
L 270.42 351.148783 
L 271.722 350.879148 
L 273.21 350.318051 
L 274.884 349.432328 
L 276.372 348.630779 
L 276.744 348.991605 
L 277.488 350.205039 
L 279.72 354.058261 
L 281.208 356.157751 
L 282.696 357.868171 
L 284.184 359.24208 
L 285.672 360.336899 
L 287.346 361.299936 
L 289.206 362.108574 
L 291.252 362.756238 
L 293.67 363.280737 
L 296.46 363.654691 
L 299.994 363.88805 
L 304.458 363.942575 
L 310.782 363.775106 
L 343.704 362.579338 
L 358.398 362.469734 
L 396.714 362.508913 
L 462.186 362.514214 
L 462.558 361.891586 
L 463.116 360.23617 
L 464.046 356.697172 
L 465.162 351.612022 
L 466.278 345.52681 
L 467.394 338.11502 
L 468.324 330.477351 
L 469.254 320.77694 
L 469.998 310.644087 
L 470.742 296.987617 
L 471.3 282.947338 
L 471.858 263.560076 
L 472.416 235.682412 
L 472.974 195.468029 
L 474.276 86.689993 
L 474.648 73.63997 
L 475.02 68.216839 
L 475.206 67.20907 
L 475.392 66.96 
L 475.578 67.344003 
L 475.764 68.334191 
L 476.136 72.401321 
L 476.508 80.25067 
L 476.88 93.533064 
L 477.252 113.817271 
L 477.81 158.370169 
L 479.484 316.859276 
L 480.042 343.701976 
L 480.414 353.669536 
L 480.786 359.594912 
L 481.158 363.070776 
L 481.53 365.133839 
L 482.088 366.819044 
L 482.646 367.632806 
L 483.204 367.987411 
L 483.762 368.062411 
L 484.506 367.871547 
L 485.25 367.437651 
L 486.18 366.626506 
L 487.296 365.314613 
L 488.412 363.660526 
L 489.714 361.306284 
L 491.016 358.488009 
L 492.504 354.678891 
L 493.992 350.208268 
L 495.48 345.016612 
L 496.968 338.993776 
L 498.456 331.932748 
L 499.758 324.604982 
L 500.874 317.112213 
L 501.99 307.974757 
L 502.92 298.484773 
L 503.85 286.380881 
L 504.594 273.858504 
L 505.338 257.560934 
L 506.082 235.834375 
L 506.826 206.963773 
L 509.058 109.521073 
L 509.43 102.94901 
L 509.616 101.247927 
L 509.802 100.576728 
L 509.988 100.923188 
L 510.174 102.290062 
L 510.546 108.180936 
L 510.918 118.565364 
L 511.476 143.271909 
L 512.22 192.277986 
L 513.894 312.648621 
L 514.452 335.733871 
L 515.01 349.30417 
L 515.568 356.682681 
L 516.126 360.626293 
L 516.684 362.769585 
L 517.242 363.944849 
L 517.8 364.558097 
L 518.358 364.8128 
L 518.916 364.817362 
L 519.66 364.537248 
L 520.404 364.002868 
L 521.334 363.044142 
L 522.45 361.525704 
L 523.566 359.641394 
L 524.868 357.001906 
L 526.356 353.411607 
L 527.844 349.200562 
L 529.332 344.337029 
L 530.82 338.75117 
L 532.308 332.307191 
L 533.61 325.773172 
L 534.912 318.107347 
L 536.028 310.275319 
L 537.144 300.750992 
L 538.074 290.924974 
L 539.004 278.552599 
L 539.748 266.010721 
L 540.492 250.165633 
L 541.236 229.958225 
L 542.166 197.604586 
L 543.84 134.948238 
L 544.398 122.83484 
L 544.77 119.069697 
L 544.956 118.559643 
L 545.142 118.98642 
L 545.328 120.367545 
L 545.7 126.078875 
L 546.072 135.880086 
L 546.63 158.476929 
L 547.374 201.888941 
L 549.048 309.336335 
L 549.606 331.673166 
L 550.164 345.649152 
L 550.722 353.724643 
L 551.28 358.26457 
L 551.838 360.832682 
L 552.396 362.297177 
L 552.954 363.109368 
L 553.512 363.50483 
L 554.07 363.611953 
L 554.628 363.504746 
L 555.186 363.228152 
L 555.558 363.558079 
L 557.604 366.588274 
L 558.534 367.407533 
L 559.65 368.06668 
L 560.952 368.546652 
L 562.44 368.852911 
L 564.3 369.008442 
L 566.718 368.981406 
L 570.066 368.699343 
L 574.716 368.06111 
L 582.528 366.728448 
L 594.804 364.654336 
L 601.686 363.726437 
L 608.196 363.075299 
L 614.892 362.637887 
L 622.332 362.384737 
L 631.818 362.299458 
L 648.186 362.393511 
L 648.186 362.393511 
" clip-path="url(#pfe3be7e73b)" style="fill: none; stroke: #1f77b4; stroke-width: 1.5; stroke-linecap: square"/>
   </g>
   <g id="line2d_28">
    <path d="M 89.814 277.969342 
L 109.158 277.937778 
L 183.372 277.967249 
L 184.116 277.757116 
L 184.86 277.322646 
L 185.79 276.487891 
L 186.72 275.355159 
L 187.836 273.638526 
L 189.138 271.192745 
L 190.626 267.878362 
L 192.3 263.560986 
L 194.16 258.094394 
L 196.02 251.924984 
L 197.88 244.936903 
L 199.368 238.532054 
L 200.67 231.993494 
L 201.786 225.227334 
L 202.716 218.178803 
L 203.46 210.993665 
L 204.204 201.643156 
L 204.948 189.401805 
L 206.994 152.809098 
L 207.552 147.668148 
L 207.924 145.844914 
L 208.296 145.183916 
L 208.482 145.244946 
L 208.668 145.54215 
L 209.04 146.773169 
L 209.598 149.966102 
L 210.342 156.131779 
L 211.458 167.767266 
L 214.62 201.951108 
L 216.108 215.622086 
L 217.596 227.326709 
L 218.898 235.996562 
L 220.2 243.287367 
L 221.502 249.300597 
L 222.618 253.518514 
L 223.734 256.942531 
L 224.85 259.637517 
L 225.78 261.371553 
L 226.71 262.677338 
L 227.64 263.58804 
L 228.384 264.053465 
L 229.128 264.301819 
L 229.872 264.347956 
L 230.616 264.206081 
L 231.546 263.784938 
L 232.476 263.11621 
L 233.592 262.019864 
L 234.894 260.382801 
L 236.382 258.105847 
L 238.056 255.112511 
L 240.102 250.959483 
L 242.706 245.100392 
L 246.984 234.784791 
L 249.96 227.864706 
L 251.634 224.482718 
L 252.936 222.324965 
L 253.866 221.129882 
L 254.796 220.285403 
L 255.54 219.893508 
L 256.284 219.77185 
L 257.028 219.927749 
L 257.772 220.358214 
L 258.516 221.049708 
L 259.446 222.245309 
L 260.562 224.084048 
L 262.05 227.018976 
L 268.374 240.112832 
L 270.048 242.765675 
L 271.536 244.689685 
L 272.838 246.030804 
L 274.14 247.058348 
L 275.442 247.785724 
L 277.302 248.678361 
L 278.418 249.607503 
L 279.72 251.013784 
L 281.394 253.187244 
L 283.998 257.007969 
L 288.834 264.141294 
L 291.252 267.306062 
L 293.484 269.882911 
L 295.716 272.110782 
L 297.762 273.851688 
L 299.808 275.320342 
L 302.04 276.637333 
L 304.272 277.687609 
L 306.69 278.562507 
L 309.108 279.203681 
L 311.898 279.702798 
L 314.874 280.007672 
L 318.408 280.139537 
L 322.686 280.068666 
L 328.824 279.720858 
L 349.842 278.364573 
L 359.514 278.061748 
L 371.604 277.923267 
L 393.924 277.940635 
L 454.932 277.983296 
L 462.558 277.890278 
L 463.116 277.527144 
L 463.674 276.904026 
L 464.418 275.684773 
L 465.162 274.038866 
L 466.092 271.40318 
L 467.022 268.136627 
L 468.138 263.362193 
L 469.254 257.53968 
L 470.37 250.340539 
L 471.3 242.70615 
L 472.044 234.724252 
L 472.602 226.810495 
L 473.16 216.116514 
L 473.718 201.408213 
L 475.578 145.352819 
L 476.136 137.065944 
L 476.508 134.075932 
L 476.88 132.768853 
L 477.066 132.65222 
L 477.252 132.846651 
L 477.624 134.043749 
L 477.996 136.140396 
L 478.554 140.600682 
L 479.484 150.432414 
L 483.762 199.678554 
L 485.25 212.987488 
L 486.552 222.654984 
L 487.854 230.554763 
L 488.97 235.999765 
L 490.086 240.299601 
L 491.016 243.064268 
L 491.946 245.133432 
L 492.69 246.318409 
L 493.434 247.109897 
L 494.178 247.529877 
L 494.736 247.613733 
L 495.294 247.508833 
L 496.038 247.088874 
L 496.782 246.364218 
L 497.526 245.349389 
L 498.456 243.690012 
L 499.572 241.142608 
L 500.688 237.987259 
L 501.804 234.184959 
L 502.92 229.633951 
L 504.036 224.122473 
L 504.966 218.503639 
L 505.896 211.493305 
L 506.64 204.407473 
L 507.384 195.510137 
L 508.314 181.647791 
L 509.616 161.668638 
L 510.174 155.514342 
L 510.732 151.631782 
L 511.104 150.314269 
L 511.29 150.013085 
L 511.476 149.934704 
L 511.662 150.066174 
L 512.034 150.905453 
L 512.406 152.426248 
L 512.964 155.769937 
L 513.708 161.723621 
L 515.01 174.322181 
L 517.614 199.629793 
L 519.102 211.898385 
L 520.404 220.969497 
L 521.706 228.476932 
L 522.822 233.708784 
L 523.938 237.886211 
L 524.868 240.606992 
L 525.798 242.67785 
L 526.542 243.893396 
L 527.286 244.739017 
L 528.03 245.234919 
L 528.588 245.389179 
L 529.146 245.365744 
L 529.89 245.071177 
L 530.634 244.490985 
L 531.378 243.640231 
L 532.308 242.21577 
L 533.424 240.00157 
L 534.54 237.252543 
L 535.842 233.359801 
L 537.144 228.659308 
L 538.26 223.856897 
L 539.376 218.112746 
L 540.492 211.029613 
L 541.422 203.634298 
L 542.352 194.371946 
L 543.468 180.713049 
L 544.77 164.818329 
L 545.514 158.573341 
L 546.072 155.946323 
L 546.444 155.192184 
L 546.63 155.099459 
L 546.816 155.186332 
L 547.188 155.8645 
L 547.56 157.154585 
L 548.118 160.073283 
L 548.862 165.396925 
L 550.164 176.945169 
L 552.954 202.31195 
L 554.442 213.782192 
L 556.116 224.788414 
L 558.348 238.180375 
L 560.208 247.938807 
L 561.882 255.548559 
L 563.556 262.087083 
L 565.044 267.064427 
L 566.532 271.326226 
L 568.02 274.942416 
L 569.508 277.98143 
L 570.996 280.508064 
L 572.484 282.582417 
L 573.972 284.259472 
L 575.46 285.589055 
L 576.948 286.616013 
L 578.436 287.380512 
L 580.11 287.971318 
L 581.784 288.320286 
L 583.644 288.472185 
L 585.69 288.406285 
L 588.108 288.083556 
L 590.898 287.470877 
L 594.432 286.45727 
L 600.942 284.305563 
L 607.638 282.173208 
L 612.474 280.861581 
L 617.124 279.833705 
L 621.774 279.040392 
L 626.61 278.445627 
L 632.004 278.017056 
L 638.142 277.759971 
L 646.14 277.664064 
L 648.186 277.666415 
L 648.186 277.666415 
" clip-path="url(#pfe3be7e73b)" style="fill: none; stroke: #ff7f0e; stroke-width: 1.5; stroke-linecap: square"/>
   </g>
   <g id="line2d_29">
    <path d="M 89.814 188.974661 
L 102.834 189.123892 
L 125.898 189.118266 
L 183.372 189.102575 
L 183.93 189.304123 
L 184.674 189.87596 
L 185.418 190.782949 
L 186.348 192.370979 
L 187.278 194.444713 
L 188.394 197.547298 
L 189.51 201.29067 
L 190.812 206.430596 
L 192.3 213.278126 
L 193.974 222.177492 
L 195.648 232.335525 
L 197.322 243.831693 
L 198.996 256.924261 
L 200.484 270.418873 
L 201.786 284.507761 
L 202.902 299.444258 
L 203.832 314.959637 
L 205.878 351.730284 
L 206.622 360.144829 
L 207.18 364.342401 
L 207.738 366.944753 
L 208.11 367.864129 
L 208.482 368.175862 
L 208.668 368.115961 
L 209.04 367.585504 
L 209.412 366.526143 
L 209.97 363.969961 
L 210.528 360.289283 
L 211.272 353.843719 
L 212.388 341.937926 
L 217.038 289.560845 
L 218.712 274.196757 
L 220.2 262.576932 
L 221.502 253.949894 
L 222.804 246.697702 
L 224.106 240.748364 
L 225.222 236.62885 
L 226.338 233.364064 
L 227.268 231.263016 
L 228.198 229.697459 
L 228.942 228.813462 
L 229.686 228.243125 
L 230.43 227.97387 
L 231.174 227.993274 
L 231.918 228.28905 
L 232.662 228.849018 
L 233.592 229.902079 
L 234.522 231.325561 
L 235.638 233.489778 
L 236.94 236.592516 
L 238.428 240.821861 
L 240.102 246.335316 
L 242.148 253.959723 
L 244.752 264.653513 
L 250.332 287.979706 
L 252.006 293.86114 
L 253.308 297.614678 
L 254.238 299.729379 
L 255.168 301.296823 
L 255.912 302.123286 
L 256.47 302.483573 
L 257.028 302.619046 
L 257.586 302.531756 
L 258.144 302.227573 
L 258.888 301.501402 
L 259.632 300.43765 
L 260.562 298.69212 
L 261.678 296.100202 
L 263.166 292.050142 
L 266.514 282.0156 
L 268.932 275.194245 
L 270.606 271.072637 
L 272.094 267.930961 
L 273.582 265.324413 
L 274.884 263.495757 
L 276 262.263436 
L 276.93 261.235525 
L 277.86 259.86916 
L 278.976 257.846518 
L 280.464 254.616315 
L 282.324 249.949383 
L 285.114 242.216684 
L 290.694 226.614017 
L 293.298 220.013979 
L 295.716 214.475643 
L 297.948 209.908928 
L 299.994 206.187799 
L 302.04 202.90045 
L 304.086 200.026707 
L 306.132 197.540519 
L 308.178 195.412387 
L 310.224 193.611123 
L 312.27 192.105111 
L 314.316 190.863202 
L 316.548 189.774316 
L 318.78 188.927025 
L 321.198 188.241907 
L 323.802 187.730188 
L 326.778 187.37658 
L 330.126 187.204407 
L 334.218 187.221619 
L 339.798 187.482137 
L 364.35 188.884556 
L 374.766 189.104328 
L 389.274 189.163855 
L 462.372 189.125185 
L 462.744 189.351946 
L 463.302 190.029214 
L 463.86 191.109842 
L 464.604 193.179493 
L 465.348 195.974449 
L 466.278 200.510718 
L 467.208 206.255911 
L 468.138 213.309493 
L 469.068 221.85864 
L 469.998 232.264475 
L 470.928 245.259907 
L 471.672 258.531222 
L 472.416 275.961484 
L 473.16 299.00209 
L 474.276 334.052786 
L 475.02 349.591858 
L 475.578 357.526728 
L 476.136 363.002232 
L 476.694 366.373032 
L 477.066 367.543969 
L 477.438 367.928467 
L 477.624 367.850831 
L 477.996 367.20041 
L 478.368 365.929251 
L 478.926 362.917649 
L 479.67 357.022664 
L 480.6 347.462593 
L 485.25 296.316867 
L 486.552 285.161575 
L 487.854 275.828167 
L 488.97 269.265638 
L 490.086 263.996857 
L 491.016 260.565965 
L 491.946 257.981461 
L 492.69 256.506507 
L 493.434 255.54456 
L 493.992 255.152193 
L 494.55 255.036132 
L 495.108 255.191333 
L 495.666 255.612966 
L 496.224 256.296494 
L 496.968 257.608186 
L 497.712 259.369945 
L 498.642 262.19656 
L 499.572 265.714343 
L 500.688 270.863019 
L 501.804 277.078464 
L 502.92 284.487556 
L 504.036 293.338293 
L 505.152 304.079662 
L 506.268 317.390514 
L 507.57 336.318993 
L 508.686 351.913779 
L 509.43 359.562262 
L 509.988 363.592133 
L 510.546 366.256573 
L 510.918 367.327633 
L 511.29 367.869502 
L 511.476 367.951109 
L 511.662 367.911098 
L 512.034 367.478049 
L 512.406 366.589251 
L 512.964 364.426833 
L 513.522 361.305229 
L 514.266 355.812561 
L 515.382 345.558838 
L 519.846 302.18489 
L 521.334 290.765124 
L 522.636 282.489963 
L 523.752 276.686068 
L 524.868 272.055591 
L 525.798 269.073088 
L 526.728 266.866004 
L 527.472 265.643955 
L 528.216 264.892402 
L 528.774 264.630287 
L 529.332 264.621012 
L 529.89 264.859572 
L 530.448 265.341102 
L 531.192 266.353108 
L 531.936 267.778757 
L 532.866 270.129648 
L 533.796 273.101841 
L 534.912 277.483843 
L 536.028 282.771591 
L 537.33 290.160629 
L 538.632 299.051756 
L 539.748 308.143499 
L 540.864 318.951605 
L 542.166 333.929387 
L 543.84 353.35337 
L 544.584 359.676848 
L 545.142 363.074436 
L 545.7 365.333765 
L 546.072 366.235884 
L 546.444 366.677551 
L 546.816 366.677839 
L 547.188 366.253012 
L 547.56 365.414905 
L 548.118 363.400301 
L 548.676 360.506856 
L 549.42 355.41749 
L 550.536 345.850992 
L 555.558 299.857402 
L 560.766 258.027329 
L 562.812 243.738905 
L 564.672 232.193849 
L 566.532 222.02316 
L 568.206 213.993098 
L 569.88 206.958679 
L 571.554 200.844664 
L 573.228 195.573432 
L 574.902 191.068523 
L 576.39 187.648132 
L 577.878 184.726502 
L 579.366 182.257771 
L 580.854 180.199032 
L 582.342 178.510309 
L 583.83 177.154446 
L 585.318 176.096979 
L 586.806 175.305976 
L 588.294 174.751882 
L 589.968 174.377749 
L 591.642 174.23311 
L 593.502 174.301846 
L 595.548 174.609546 
L 597.78 175.167274 
L 600.57 176.108201 
L 604.104 177.553964 
L 612.102 181.166282 
L 617.31 183.354392 
L 621.588 184.907178 
L 625.494 186.096056 
L 629.4 187.061854 
L 633.492 187.847678 
L 637.956 188.471408 
L 642.792 188.91941 
L 648.186 189.205709 
L 648.186 189.205709 
" clip-path="url(#pfe3be7e73b)" style="fill: none; stroke: #2ca02c; stroke-width: 1.5; stroke-linecap: square"/>
   </g>
   <g id="patch_3">
    <path d="M 90 384.48 
L 90 51.84 
" style="fill: none; stroke: #000000; stroke-width: 0.8; stroke-linejoin: miter; stroke-linecap: square"/>
   </g>
   <g id="patch_4">
    <path d="M 648 384.48 
L 648 51.84 
" style="fill: none; stroke: #000000; stroke-width: 0.8; stroke-linejoin: miter; stroke-linecap: square"/>
   </g>
   <g id="patch_5">
    <path d="M 90 384.48 
L 648 384.48 
" style="fill: none; stroke: #000000; stroke-width: 0.8; stroke-linejoin: miter; stroke-linecap: square"/>
   </g>
   <g id="patch_6">
    <path d="M 90 51.84 
L 648 51.84 
" style="fill: none; stroke: #000000; stroke-width: 0.8; stroke-linejoin: miter; stroke-linecap: square"/>
   </g>
   <g id="text_16">
    <!-- Closeup Gating Variables (28°C) -->
    <g transform="translate(204.846938 45.84) scale(0.204 -0.204)">
     <defs>
      <path id="DejaVuSans-43" d="M 4122 4306 
L 4122 3641 
Q 3803 3938 3442 4084 
Q 3081 4231 2675 4231 
Q 1875 4231 1450 3742 
Q 1025 3253 1025 2328 
Q 1025 1406 1450 917 
Q 1875 428 2675 428 
Q 3081 428 3442 575 
Q 3803 722 4122 1019 
L 4122 359 
Q 3791 134 3420 21 
Q 3050 -91 2638 -91 
Q 1578 -91 968 557 
Q 359 1206 359 2328 
Q 359 3453 968 4101 
Q 1578 4750 2638 4750 
Q 3056 4750 3426 4639 
Q 3797 4528 4122 4306 
z
" transform="scale(0.015625)"/>
      <path id="DejaVuSans-75" d="M 544 1381 
L 544 3500 
L 1119 3500 
L 1119 1403 
Q 1119 906 1312 657 
Q 1506 409 1894 409 
Q 2359 409 2629 706 
Q 2900 1003 2900 1516 
L 2900 3500 
L 3475 3500 
L 3475 0 
L 2900 0 
L 2900 538 
Q 2691 219 2414 64 
Q 2138 -91 1772 -91 
Q 1169 -91 856 284 
Q 544 659 544 1381 
z
M 1991 3584 
L 1991 3584 
z
" transform="scale(0.015625)"/>
      <path id="DejaVuSans-47" d="M 3809 666 
L 3809 1919 
L 2778 1919 
L 2778 2438 
L 4434 2438 
L 4434 434 
Q 4069 175 3628 42 
Q 3188 -91 2688 -91 
Q 1594 -91 976 548 
Q 359 1188 359 2328 
Q 359 3472 976 4111 
Q 1594 4750 2688 4750 
Q 3144 4750 3555 4637 
Q 3966 4525 4313 4306 
L 4313 3634 
Q 3963 3931 3569 4081 
Q 3175 4231 2741 4231 
Q 1884 4231 1454 3753 
Q 1025 3275 1025 2328 
Q 1025 1384 1454 906 
Q 1884 428 2741 428 
Q 3075 428 3337 486 
Q 3600 544 3809 666 
z
" transform="scale(0.015625)"/>
      <path id="DejaVuSans-56" d="M 1831 0 
L 50 4666 
L 709 4666 
L 2188 738 
L 3669 4666 
L 4325 4666 
L 2547 0 
L 1831 0 
z
" transform="scale(0.015625)"/>
      <path id="DejaVuSans-b0" d="M 1600 4347 
Q 1350 4347 1178 4173 
Q 1006 4000 1006 3750 
Q 1006 3503 1178 3333 
Q 1350 3163 1600 3163 
Q 1850 3163 2022 3333 
Q 2194 3503 2194 3750 
Q 2194 3997 2020 4172 
Q 1847 4347 1600 4347 
z
M 1600 4750 
Q 1800 4750 1984 4673 
Q 2169 4597 2303 4453 
Q 2447 4313 2519 4134 
Q 2591 3956 2591 3750 
Q 2591 3338 2302 3052 
Q 2013 2766 1594 2766 
Q 1172 2766 890 3047 
Q 609 3328 609 3750 
Q 609 4169 896 4459 
Q 1184 4750 1600 4750 
z
" transform="scale(0.015625)"/>
     </defs>
     <use xlink:href="#DejaVuSans-43"/>
     <use xlink:href="#DejaVuSans-6c" x="69.824219"/>
     <use xlink:href="#DejaVuSans-6f" x="97.607422"/>
     <use xlink:href="#DejaVuSans-73" x="158.789062"/>
     <use xlink:href="#DejaVuSans-65" x="210.888672"/>
     <use xlink:href="#DejaVuSans-75" x="272.412109"/>
     <use xlink:href="#DejaVuSans-70" x="335.791016"/>
     <use xlink:href="#DejaVuSans-20" x="399.267578"/>
     <use xlink:href="#DejaVuSans-47" x="431.054688"/>
     <use xlink:href="#DejaVuSans-61" x="508.544922"/>
     <use xlink:href="#DejaVuSans-74" x="569.824219"/>
     <use xlink:href="#DejaVuSans-69" x="609.033203"/>
     <use xlink:href="#DejaVuSans-6e" x="636.816406"/>
     <use xlink:href="#DejaVuSans-67" x="700.195312"/>
     <use xlink:href="#DejaVuSans-20" x="763.671875"/>
     <use xlink:href="#DejaVuSans-56" x="795.458984"/>
     <use xlink:href="#DejaVuSans-61" x="856.117188"/>
     <use xlink:href="#DejaVuSans-72" x="917.396484"/>
     <use xlink:href="#DejaVuSans-69" x="958.509766"/>
     <use xlink:href="#DejaVuSans-61" x="986.292969"/>
     <use xlink:href="#DejaVuSans-62" x="1047.572266"/>
     <use xlink:href="#DejaVuSans-6c" x="1111.048828"/>
     <use xlink:href="#DejaVuSans-65" x="1138.832031"/>
     <use xlink:href="#DejaVuSans-73" x="1200.355469"/>
     <use xlink:href="#DejaVuSans-20" x="1252.455078"/>
     <use xlink:href="#DejaVuSans-28" x="1284.242188"/>
     <use xlink:href="#DejaVuSans-32" x="1323.255859"/>
     <use xlink:href="#DejaVuSans-38" x="1386.878906"/>
     <use xlink:href="#DejaVuSans-b0" x="1450.501953"/>
     <use xlink:href="#DejaVuSans-43" x="1500.501953"/>
     <use xlink:href="#DejaVuSans-29" x="1570.326172"/>
    </g>
   </g>
   <g id="legend_1">
    <g id="patch_7">
     <path d="M 565.140937 140.298437 
L 636.1 140.298437 
Q 639.5 140.298437 639.5 136.898438 
L 639.5 63.74 
Q 639.5 60.34 636.1 60.34 
L 565.140937 60.34 
Q 561.740937 60.34 561.740937 63.74 
L 561.740937 136.898438 
Q 561.740937 140.298437 565.140937 140.298437 
z
" style="fill: #ffffff; opacity: 0.8; stroke: #cccccc; stroke-linejoin: miter"/>
    </g>
    <g id="line2d_30">
     <path d="M 568.540937 74.107344 
L 585.540937 74.107344 
L 602.540937 74.107344 
" style="fill: none; stroke: #1f77b4; stroke-width: 1.5; stroke-linecap: square"/>
    </g>
    <g id="text_17">
     <!-- m -->
     <g transform="translate(616.140937 80.057344) scale(0.17 -0.17)">
      <use xlink:href="#DejaVuSans-6d"/>
     </g>
    </g>
    <g id="line2d_31">
     <path d="M 568.540937 99.060156 
L 585.540937 99.060156 
L 602.540937 99.060156 
" style="fill: none; stroke: #ff7f0e; stroke-width: 1.5; stroke-linecap: square"/>
    </g>
    <g id="text_18">
     <!-- n -->
     <g transform="translate(616.140937 105.010156) scale(0.17 -0.17)">
      <use xlink:href="#DejaVuSans-6e"/>
     </g>
    </g>
    <g id="line2d_32">
     <path d="M 568.540937 124.012969 
L 585.540937 124.012969 
L 602.540937 124.012969 
" style="fill: none; stroke: #2ca02c; stroke-width: 1.5; stroke-linecap: square"/>
    </g>
    <g id="text_19">
     <!-- h -->
     <g transform="translate(616.140937 129.962969) scale(0.17 -0.17)">
      <defs>
       <path id="DejaVuSans-68" d="M 3513 2113 
L 3513 0 
L 2938 0 
L 2938 2094 
Q 2938 2591 2744 2837 
Q 2550 3084 2163 3084 
Q 1697 3084 1428 2787 
Q 1159 2491 1159 1978 
L 1159 0 
L 581 0 
L 581 4863 
L 1159 4863 
L 1159 2956 
Q 1366 3272 1645 3428 
Q 1925 3584 2291 3584 
Q 2894 3584 3203 3211 
Q 3513 2838 3513 2113 
z
" transform="scale(0.015625)"/>
      </defs>
      <use xlink:href="#DejaVuSans-68"/>
     </g>
    </g>
   </g>
  </g>
 </g>
 <defs>
  <clipPath id="pfe3be7e73b">
   <rect x="90" y="51.84" width="558" height="332.64"/>
  </clipPath>
 </defs>
</svg>
