<?xml version="1.0" encoding="utf-8" standalone="no"?>
<!DOCTYPE svg PUBLIC "-//W3C//DTD SVG 1.1//EN"
  "http://www.w3.org/Graphics/SVG/1.1/DTD/svg11.dtd">
<svg xmlns:xlink="http://www.w3.org/1999/xlink" width="720pt" height="432pt" viewBox="0 0 720 432" xmlns="http://www.w3.org/2000/svg" version="1.1">
 <metadata>
  <rdf:RDF xmlns:dc="http://purl.org/dc/elements/1.1/" xmlns:cc="http://creativecommons.org/ns#" xmlns:rdf="http://www.w3.org/1999/02/22-rdf-syntax-ns#">
   <cc:Work>
    <dc:type rdf:resource="http://purl.org/dc/dcmitype/StillImage"/>
    <dc:date>2024-12-08T22:42:02.263855</dc:date>
    <dc:format>image/svg+xml</dc:format>
    <dc:creator>
     <cc:Agent>
      <dc:title>Matplotlib v3.9.2, https://matplotlib.org/</dc:title>
     </cc:Agent>
    </dc:creator>
   </cc:Work>
  </rdf:RDF>
 </metadata>
 <defs>
  <style type="text/css">*{stroke-linejoin: round; stroke-linecap: butt}</style>
 </defs>
 <g id="figure_1">
  <g id="patch_1">
   <path d="M 0 432 
L 720 432 
L 720 0 
L 0 0 
z
" style="fill: #ffffff"/>
  </g>
  <g id="axes_1">
   <g id="patch_2">
    <path d="M 90 384.48 
L 648 384.48 
L 648 51.84 
L 90 51.84 
z
" style="fill: #ffffff"/>
   </g>
   <g id="matplotlib.axis_1">
    <g id="xtick_1">
     <g id="line2d_1">
      <path d="M 115.363636 384.48 
L 115.363636 51.84 
" clip-path="url(#p06a6aab28a)" style="fill: none; stroke: #b0b0b0; stroke-width: 0.8; stroke-linecap: square"/>
     </g>
     <g id="line2d_2">
      <defs>
       <path id="m53b3dcedd4" d="M 0 0 
L 0 3.5 
" style="stroke: #000000; stroke-width: 0.8"/>
      </defs>
      <g>
       <use xlink:href="#m53b3dcedd4" x="115.363636" y="384.48" style="stroke: #000000; stroke-width: 0.8"/>
      </g>
     </g>
     <g id="text_1">
      <!-- 0 -->
      <g transform="translate(109.955511 404.397344) scale(0.17 -0.17)">
       <defs>
        <path id="DejaVuSans-30" d="M 2034 4250 
Q 1547 4250 1301 3770 
Q 1056 3291 1056 2328 
Q 1056 1369 1301 889 
Q 1547 409 2034 409 
Q 2525 409 2770 889 
Q 3016 1369 3016 2328 
Q 3016 3291 2770 3770 
Q 2525 4250 2034 4250 
z
M 2034 4750 
Q 2819 4750 3233 4129 
Q 3647 3509 3647 2328 
Q 3647 1150 3233 529 
Q 2819 -91 2034 -91 
Q 1250 -91 836 529 
Q 422 1150 422 2328 
Q 422 3509 836 4129 
Q 1250 4750 2034 4750 
z
" transform="scale(0.015625)"/>
       </defs>
       <use xlink:href="#DejaVuSans-30"/>
      </g>
     </g>
    </g>
    <g id="xtick_2">
     <g id="line2d_3">
      <path d="M 216.828328 384.48 
L 216.828328 51.84 
" clip-path="url(#p06a6aab28a)" style="fill: none; stroke: #b0b0b0; stroke-width: 0.8; stroke-linecap: square"/>
     </g>
     <g id="line2d_4">
      <g>
       <use xlink:href="#m53b3dcedd4" x="216.828328" y="384.48" style="stroke: #000000; stroke-width: 0.8"/>
      </g>
     </g>
     <g id="text_2">
      <!-- 20 -->
      <g transform="translate(206.012078 404.397344) scale(0.17 -0.17)">
       <defs>
        <path id="DejaVuSans-32" d="M 1228 531 
L 3431 531 
L 3431 0 
L 469 0 
L 469 531 
Q 828 903 1448 1529 
Q 2069 2156 2228 2338 
Q 2531 2678 2651 2914 
Q 2772 3150 2772 3378 
Q 2772 3750 2511 3984 
Q 2250 4219 1831 4219 
Q 1534 4219 1204 4116 
Q 875 4013 500 3803 
L 500 4441 
Q 881 4594 1212 4672 
Q 1544 4750 1819 4750 
Q 2544 4750 2975 4387 
Q 3406 4025 3406 3419 
Q 3406 3131 3298 2873 
Q 3191 2616 2906 2266 
Q 2828 2175 2409 1742 
Q 1991 1309 1228 531 
z
" transform="scale(0.015625)"/>
       </defs>
       <use xlink:href="#DejaVuSans-32"/>
       <use xlink:href="#DejaVuSans-30" x="63.623047"/>
      </g>
     </g>
    </g>
    <g id="xtick_3">
     <g id="line2d_5">
      <path d="M 318.29302 384.48 
L 318.29302 51.84 
" clip-path="url(#p06a6aab28a)" style="fill: none; stroke: #b0b0b0; stroke-width: 0.8; stroke-linecap: square"/>
     </g>
     <g id="line2d_6">
      <g>
       <use xlink:href="#m53b3dcedd4" x="318.29302" y="384.48" style="stroke: #000000; stroke-width: 0.8"/>
      </g>
     </g>
     <g id="text_3">
      <!-- 40 -->
      <g transform="translate(307.47677 404.397344) scale(0.17 -0.17)">
       <defs>
        <path id="DejaVuSans-34" d="M 2419 4116 
L 825 1625 
L 2419 1625 
L 2419 4116 
z
M 2253 4666 
L 3047 4666 
L 3047 1625 
L 3713 1625 
L 3713 1100 
L 3047 1100 
L 3047 0 
L 2419 0 
L 2419 1100 
L 313 1100 
L 313 1709 
L 2253 4666 
z
" transform="scale(0.015625)"/>
       </defs>
       <use xlink:href="#DejaVuSans-34"/>
       <use xlink:href="#DejaVuSans-30" x="63.623047"/>
      </g>
     </g>
    </g>
    <g id="xtick_4">
     <g id="line2d_7">
      <path d="M 419.757712 384.48 
L 419.757712 51.84 
" clip-path="url(#p06a6aab28a)" style="fill: none; stroke: #b0b0b0; stroke-width: 0.8; stroke-linecap: square"/>
     </g>
     <g id="line2d_8">
      <g>
       <use xlink:href="#m53b3dcedd4" x="419.757712" y="384.48" style="stroke: #000000; stroke-width: 0.8"/>
      </g>
     </g>
     <g id="text_4">
      <!-- 60 -->
      <g transform="translate(408.941462 404.397344) scale(0.17 -0.17)">
       <defs>
        <path id="DejaVuSans-36" d="M 2113 2584 
Q 1688 2584 1439 2293 
Q 1191 2003 1191 1497 
Q 1191 994 1439 701 
Q 1688 409 2113 409 
Q 2538 409 2786 701 
Q 3034 994 3034 1497 
Q 3034 2003 2786 2293 
Q 2538 2584 2113 2584 
z
M 3366 4563 
L 3366 3988 
Q 3128 4100 2886 4159 
Q 2644 4219 2406 4219 
Q 1781 4219 1451 3797 
Q 1122 3375 1075 2522 
Q 1259 2794 1537 2939 
Q 1816 3084 2150 3084 
Q 2853 3084 3261 2657 
Q 3669 2231 3669 1497 
Q 3669 778 3244 343 
Q 2819 -91 2113 -91 
Q 1303 -91 875 529 
Q 447 1150 447 2328 
Q 447 3434 972 4092 
Q 1497 4750 2381 4750 
Q 2619 4750 2861 4703 
Q 3103 4656 3366 4563 
z
" transform="scale(0.015625)"/>
       </defs>
       <use xlink:href="#DejaVuSans-36"/>
       <use xlink:href="#DejaVuSans-30" x="63.623047"/>
      </g>
     </g>
    </g>
    <g id="xtick_5">
     <g id="line2d_9">
      <path d="M 521.222404 384.48 
L 521.222404 51.84 
" clip-path="url(#p06a6aab28a)" style="fill: none; stroke: #b0b0b0; stroke-width: 0.8; stroke-linecap: square"/>
     </g>
     <g id="line2d_10">
      <g>
       <use xlink:href="#m53b3dcedd4" x="521.222404" y="384.48" style="stroke: #000000; stroke-width: 0.8"/>
      </g>
     </g>
     <g id="text_5">
      <!-- 80 -->
      <g transform="translate(510.406154 404.397344) scale(0.17 -0.17)">
       <defs>
        <path id="DejaVuSans-38" d="M 2034 2216 
Q 1584 2216 1326 1975 
Q 1069 1734 1069 1313 
Q 1069 891 1326 650 
Q 1584 409 2034 409 
Q 2484 409 2743 651 
Q 3003 894 3003 1313 
Q 3003 1734 2745 1975 
Q 2488 2216 2034 2216 
z
M 1403 2484 
Q 997 2584 770 2862 
Q 544 3141 544 3541 
Q 544 4100 942 4425 
Q 1341 4750 2034 4750 
Q 2731 4750 3128 4425 
Q 3525 4100 3525 3541 
Q 3525 3141 3298 2862 
Q 3072 2584 2669 2484 
Q 3125 2378 3379 2068 
Q 3634 1759 3634 1313 
Q 3634 634 3220 271 
Q 2806 -91 2034 -91 
Q 1263 -91 848 271 
Q 434 634 434 1313 
Q 434 1759 690 2068 
Q 947 2378 1403 2484 
z
M 1172 3481 
Q 1172 3119 1398 2916 
Q 1625 2713 2034 2713 
Q 2441 2713 2670 2916 
Q 2900 3119 2900 3481 
Q 2900 3844 2670 4047 
Q 2441 4250 2034 4250 
Q 1625 4250 1398 4047 
Q 1172 3844 1172 3481 
z
" transform="scale(0.015625)"/>
       </defs>
       <use xlink:href="#DejaVuSans-38"/>
       <use xlink:href="#DejaVuSans-30" x="63.623047"/>
      </g>
     </g>
    </g>
    <g id="xtick_6">
     <g id="line2d_11">
      <path d="M 622.687096 384.48 
L 622.687096 51.84 
" clip-path="url(#p06a6aab28a)" style="fill: none; stroke: #b0b0b0; stroke-width: 0.8; stroke-linecap: square"/>
     </g>
     <g id="line2d_12">
      <g>
       <use xlink:href="#m53b3dcedd4" x="622.687096" y="384.48" style="stroke: #000000; stroke-width: 0.8"/>
      </g>
     </g>
     <g id="text_6">
      <!-- 100 -->
      <g transform="translate(606.462721 404.397344) scale(0.17 -0.17)">
       <defs>
        <path id="DejaVuSans-31" d="M 794 531 
L 1825 531 
L 1825 4091 
L 703 3866 
L 703 4441 
L 1819 4666 
L 2450 4666 
L 2450 531 
L 3481 531 
L 3481 0 
L 794 0 
L 794 531 
z
" transform="scale(0.015625)"/>
       </defs>
       <use xlink:href="#DejaVuSans-31"/>
       <use xlink:href="#DejaVuSans-30" x="63.623047"/>
       <use xlink:href="#DejaVuSans-30" x="127.246094"/>
      </g>
     </g>
    </g>
    <g id="text_7">
     <!-- t (ms) -->
     <g transform="translate(343.626172 424.850156) scale(0.17 -0.17)">
      <defs>
       <path id="DejaVuSans-74" d="M 1172 4494 
L 1172 3500 
L 2356 3500 
L 2356 3053 
L 1172 3053 
L 1172 1153 
Q 1172 725 1289 603 
Q 1406 481 1766 481 
L 2356 481 
L 2356 0 
L 1766 0 
Q 1100 0 847 248 
Q 594 497 594 1153 
L 594 3053 
L 172 3053 
L 172 3500 
L 594 3500 
L 594 4494 
L 1172 4494 
z
" transform="scale(0.015625)"/>
       <path id="DejaVuSans-20" transform="scale(0.015625)"/>
       <path id="DejaVuSans-28" d="M 1984 4856 
Q 1566 4138 1362 3434 
Q 1159 2731 1159 2009 
Q 1159 1288 1364 580 
Q 1569 -128 1984 -844 
L 1484 -844 
Q 1016 -109 783 600 
Q 550 1309 550 2009 
Q 550 2706 781 3412 
Q 1013 4119 1484 4856 
L 1984 4856 
z
" transform="scale(0.015625)"/>
       <path id="DejaVuSans-6d" d="M 3328 2828 
Q 3544 3216 3844 3400 
Q 4144 3584 4550 3584 
Q 5097 3584 5394 3201 
Q 5691 2819 5691 2113 
L 5691 0 
L 5113 0 
L 5113 2094 
Q 5113 2597 4934 2840 
Q 4756 3084 4391 3084 
Q 3944 3084 3684 2787 
Q 3425 2491 3425 1978 
L 3425 0 
L 2847 0 
L 2847 2094 
Q 2847 2600 2669 2842 
Q 2491 3084 2119 3084 
Q 1678 3084 1418 2786 
Q 1159 2488 1159 1978 
L 1159 0 
L 581 0 
L 581 3500 
L 1159 3500 
L 1159 2956 
Q 1356 3278 1631 3431 
Q 1906 3584 2284 3584 
Q 2666 3584 2933 3390 
Q 3200 3197 3328 2828 
z
" transform="scale(0.015625)"/>
       <path id="DejaVuSans-73" d="M 2834 3397 
L 2834 2853 
Q 2591 2978 2328 3040 
Q 2066 3103 1784 3103 
Q 1356 3103 1142 2972 
Q 928 2841 928 2578 
Q 928 2378 1081 2264 
Q 1234 2150 1697 2047 
L 1894 2003 
Q 2506 1872 2764 1633 
Q 3022 1394 3022 966 
Q 3022 478 2636 193 
Q 2250 -91 1575 -91 
Q 1294 -91 989 -36 
Q 684 19 347 128 
L 347 722 
Q 666 556 975 473 
Q 1284 391 1588 391 
Q 1994 391 2212 530 
Q 2431 669 2431 922 
Q 2431 1156 2273 1281 
Q 2116 1406 1581 1522 
L 1381 1569 
Q 847 1681 609 1914 
Q 372 2147 372 2553 
Q 372 3047 722 3315 
Q 1072 3584 1716 3584 
Q 2034 3584 2315 3537 
Q 2597 3491 2834 3397 
z
" transform="scale(0.015625)"/>
       <path id="DejaVuSans-29" d="M 513 4856 
L 1013 4856 
Q 1481 4119 1714 3412 
Q 1947 2706 1947 2009 
Q 1947 1309 1714 600 
Q 1481 -109 1013 -844 
L 513 -844 
Q 928 -128 1133 580 
Q 1338 1288 1338 2009 
Q 1338 2731 1133 3434 
Q 928 4138 513 4856 
z
" transform="scale(0.015625)"/>
      </defs>
      <use xlink:href="#DejaVuSans-74"/>
      <use xlink:href="#DejaVuSans-20" x="39.208984"/>
      <use xlink:href="#DejaVuSans-28" x="70.996094"/>
      <use xlink:href="#DejaVuSans-6d" x="110.009766"/>
      <use xlink:href="#DejaVuSans-73" x="207.421875"/>
      <use xlink:href="#DejaVuSans-29" x="259.521484"/>
     </g>
    </g>
   </g>
   <g id="matplotlib.axis_2">
    <g id="ytick_1">
     <g id="line2d_13">
      <path d="M 90 373.538923 
L 648 373.538923 
" clip-path="url(#p06a6aab28a)" style="fill: none; stroke: #b0b0b0; stroke-width: 0.8; stroke-linecap: square"/>
     </g>
     <g id="line2d_14">
      <defs>
       <path id="mcf3b36ac50" d="M 0 0 
L -3.5 0 
" style="stroke: #000000; stroke-width: 0.8"/>
      </defs>
      <g>
       <use xlink:href="#mcf3b36ac50" x="90" y="373.538923" style="stroke: #000000; stroke-width: 0.8"/>
      </g>
     </g>
     <g id="text_8">
      <!-- 0.0 -->
      <g transform="translate(55.964687 379.997595) scale(0.17 -0.17)">
       <defs>
        <path id="DejaVuSans-2e" d="M 684 794 
L 1344 794 
L 1344 0 
L 684 0 
L 684 794 
z
" transform="scale(0.015625)"/>
       </defs>
       <use xlink:href="#DejaVuSans-30"/>
       <use xlink:href="#DejaVuSans-2e" x="63.623047"/>
       <use xlink:href="#DejaVuSans-30" x="95.410156"/>
      </g>
     </g>
    </g>
    <g id="ytick_2">
     <g id="line2d_15">
      <path d="M 90 311.796344 
L 648 311.796344 
" clip-path="url(#p06a6aab28a)" style="fill: none; stroke: #b0b0b0; stroke-width: 0.8; stroke-linecap: square"/>
     </g>
     <g id="line2d_16">
      <g>
       <use xlink:href="#mcf3b36ac50" x="90" y="311.796344" style="stroke: #000000; stroke-width: 0.8"/>
      </g>
     </g>
     <g id="text_9">
      <!-- 0.2 -->
      <g transform="translate(55.964687 318.255016) scale(0.17 -0.17)">
       <use xlink:href="#DejaVuSans-30"/>
       <use xlink:href="#DejaVuSans-2e" x="63.623047"/>
       <use xlink:href="#DejaVuSans-32" x="95.410156"/>
      </g>
     </g>
    </g>
    <g id="ytick_3">
     <g id="line2d_17">
      <path d="M 90 250.053764 
L 648 250.053764 
" clip-path="url(#p06a6aab28a)" style="fill: none; stroke: #b0b0b0; stroke-width: 0.8; stroke-linecap: square"/>
     </g>
     <g id="line2d_18">
      <g>
       <use xlink:href="#mcf3b36ac50" x="90" y="250.053764" style="stroke: #000000; stroke-width: 0.8"/>
      </g>
     </g>
     <g id="text_10">
      <!-- 0.4 -->
      <g transform="translate(55.964687 256.512436) scale(0.17 -0.17)">
       <use xlink:href="#DejaVuSans-30"/>
       <use xlink:href="#DejaVuSans-2e" x="63.623047"/>
       <use xlink:href="#DejaVuSans-34" x="95.410156"/>
      </g>
     </g>
    </g>
    <g id="ytick_4">
     <g id="line2d_19">
      <path d="M 90 188.311184 
L 648 188.311184 
" clip-path="url(#p06a6aab28a)" style="fill: none; stroke: #b0b0b0; stroke-width: 0.8; stroke-linecap: square"/>
     </g>
     <g id="line2d_20">
      <g>
       <use xlink:href="#mcf3b36ac50" x="90" y="188.311184" style="stroke: #000000; stroke-width: 0.8"/>
      </g>
     </g>
     <g id="text_11">
      <!-- 0.6 -->
      <g transform="translate(55.964687 194.769856) scale(0.17 -0.17)">
       <use xlink:href="#DejaVuSans-30"/>
       <use xlink:href="#DejaVuSans-2e" x="63.623047"/>
       <use xlink:href="#DejaVuSans-36" x="95.410156"/>
      </g>
     </g>
    </g>
    <g id="ytick_5">
     <g id="line2d_21">
      <path d="M 90 126.568605 
L 648 126.568605 
" clip-path="url(#p06a6aab28a)" style="fill: none; stroke: #b0b0b0; stroke-width: 0.8; stroke-linecap: square"/>
     </g>
     <g id="line2d_22">
      <g>
       <use xlink:href="#mcf3b36ac50" x="90" y="126.568605" style="stroke: #000000; stroke-width: 0.8"/>
      </g>
     </g>
     <g id="text_12">
      <!-- 0.8 -->
      <g transform="translate(55.964687 133.027277) scale(0.17 -0.17)">
       <use xlink:href="#DejaVuSans-30"/>
       <use xlink:href="#DejaVuSans-2e" x="63.623047"/>
       <use xlink:href="#DejaVuSans-38" x="95.410156"/>
      </g>
     </g>
    </g>
    <g id="ytick_6">
     <g id="line2d_23">
      <path d="M 90 64.826025 
L 648 64.826025 
" clip-path="url(#p06a6aab28a)" style="fill: none; stroke: #b0b0b0; stroke-width: 0.8; stroke-linecap: square"/>
     </g>
     <g id="line2d_24">
      <g>
       <use xlink:href="#mcf3b36ac50" x="90" y="64.826025" style="stroke: #000000; stroke-width: 0.8"/>
      </g>
     </g>
     <g id="text_13">
      <!-- 1.0 -->
      <g transform="translate(55.964687 71.284697) scale(0.17 -0.17)">
       <use xlink:href="#DejaVuSans-31"/>
       <use xlink:href="#DejaVuSans-2e" x="63.623047"/>
       <use xlink:href="#DejaVuSans-30" x="95.410156"/>
      </g>
     </g>
    </g>
    <g id="text_14">
     <!-- opening probability -->
     <g transform="translate(48.429219 300.568828) rotate(-90) scale(0.17 -0.17)">
      <defs>
       <path id="DejaVuSans-6f" d="M 1959 3097 
Q 1497 3097 1228 2736 
Q 959 2375 959 1747 
Q 959 1119 1226 758 
Q 1494 397 1959 397 
Q 2419 397 2687 759 
Q 2956 1122 2956 1747 
Q 2956 2369 2687 2733 
Q 2419 3097 1959 3097 
z
M 1959 3584 
Q 2709 3584 3137 3096 
Q 3566 2609 3566 1747 
Q 3566 888 3137 398 
Q 2709 -91 1959 -91 
Q 1206 -91 779 398 
Q 353 888 353 1747 
Q 353 2609 779 3096 
Q 1206 3584 1959 3584 
z
" transform="scale(0.015625)"/>
       <path id="DejaVuSans-70" d="M 1159 525 
L 1159 -1331 
L 581 -1331 
L 581 3500 
L 1159 3500 
L 1159 2969 
Q 1341 3281 1617 3432 
Q 1894 3584 2278 3584 
Q 2916 3584 3314 3078 
Q 3713 2572 3713 1747 
Q 3713 922 3314 415 
Q 2916 -91 2278 -91 
Q 1894 -91 1617 61 
Q 1341 213 1159 525 
z
M 3116 1747 
Q 3116 2381 2855 2742 
Q 2594 3103 2138 3103 
Q 1681 3103 1420 2742 
Q 1159 2381 1159 1747 
Q 1159 1113 1420 752 
Q 1681 391 2138 391 
Q 2594 391 2855 752 
Q 3116 1113 3116 1747 
z
" transform="scale(0.015625)"/>
       <path id="DejaVuSans-65" d="M 3597 1894 
L 3597 1613 
L 953 1613 
Q 991 1019 1311 708 
Q 1631 397 2203 397 
Q 2534 397 2845 478 
Q 3156 559 3463 722 
L 3463 178 
Q 3153 47 2828 -22 
Q 2503 -91 2169 -91 
Q 1331 -91 842 396 
Q 353 884 353 1716 
Q 353 2575 817 3079 
Q 1281 3584 2069 3584 
Q 2775 3584 3186 3129 
Q 3597 2675 3597 1894 
z
M 3022 2063 
Q 3016 2534 2758 2815 
Q 2500 3097 2075 3097 
Q 1594 3097 1305 2825 
Q 1016 2553 972 2059 
L 3022 2063 
z
" transform="scale(0.015625)"/>
       <path id="DejaVuSans-6e" d="M 3513 2113 
L 3513 0 
L 2938 0 
L 2938 2094 
Q 2938 2591 2744 2837 
Q 2550 3084 2163 3084 
Q 1697 3084 1428 2787 
Q 1159 2491 1159 1978 
L 1159 0 
L 581 0 
L 581 3500 
L 1159 3500 
L 1159 2956 
Q 1366 3272 1645 3428 
Q 1925 3584 2291 3584 
Q 2894 3584 3203 3211 
Q 3513 2838 3513 2113 
z
" transform="scale(0.015625)"/>
       <path id="DejaVuSans-69" d="M 603 3500 
L 1178 3500 
L 1178 0 
L 603 0 
L 603 3500 
z
M 603 4863 
L 1178 4863 
L 1178 4134 
L 603 4134 
L 603 4863 
z
" transform="scale(0.015625)"/>
       <path id="DejaVuSans-67" d="M 2906 1791 
Q 2906 2416 2648 2759 
Q 2391 3103 1925 3103 
Q 1463 3103 1205 2759 
Q 947 2416 947 1791 
Q 947 1169 1205 825 
Q 1463 481 1925 481 
Q 2391 481 2648 825 
Q 2906 1169 2906 1791 
z
M 3481 434 
Q 3481 -459 3084 -895 
Q 2688 -1331 1869 -1331 
Q 1566 -1331 1297 -1286 
Q 1028 -1241 775 -1147 
L 775 -588 
Q 1028 -725 1275 -790 
Q 1522 -856 1778 -856 
Q 2344 -856 2625 -561 
Q 2906 -266 2906 331 
L 2906 616 
Q 2728 306 2450 153 
Q 2172 0 1784 0 
Q 1141 0 747 490 
Q 353 981 353 1791 
Q 353 2603 747 3093 
Q 1141 3584 1784 3584 
Q 2172 3584 2450 3431 
Q 2728 3278 2906 2969 
L 2906 3500 
L 3481 3500 
L 3481 434 
z
" transform="scale(0.015625)"/>
       <path id="DejaVuSans-72" d="M 2631 2963 
Q 2534 3019 2420 3045 
Q 2306 3072 2169 3072 
Q 1681 3072 1420 2755 
Q 1159 2438 1159 1844 
L 1159 0 
L 581 0 
L 581 3500 
L 1159 3500 
L 1159 2956 
Q 1341 3275 1631 3429 
Q 1922 3584 2338 3584 
Q 2397 3584 2469 3576 
Q 2541 3569 2628 3553 
L 2631 2963 
z
" transform="scale(0.015625)"/>
       <path id="DejaVuSans-62" d="M 3116 1747 
Q 3116 2381 2855 2742 
Q 2594 3103 2138 3103 
Q 1681 3103 1420 2742 
Q 1159 2381 1159 1747 
Q 1159 1113 1420 752 
Q 1681 391 2138 391 
Q 2594 391 2855 752 
Q 3116 1113 3116 1747 
z
M 1159 2969 
Q 1341 3281 1617 3432 
Q 1894 3584 2278 3584 
Q 2916 3584 3314 3078 
Q 3713 2572 3713 1747 
Q 3713 922 3314 415 
Q 2916 -91 2278 -91 
Q 1894 -91 1617 61 
Q 1341 213 1159 525 
L 1159 0 
L 581 0 
L 581 4863 
L 1159 4863 
L 1159 2969 
z
" transform="scale(0.015625)"/>
       <path id="DejaVuSans-61" d="M 2194 1759 
Q 1497 1759 1228 1600 
Q 959 1441 959 1056 
Q 959 750 1161 570 
Q 1363 391 1709 391 
Q 2188 391 2477 730 
Q 2766 1069 2766 1631 
L 2766 1759 
L 2194 1759 
z
M 3341 1997 
L 3341 0 
L 2766 0 
L 2766 531 
Q 2569 213 2275 61 
Q 1981 -91 1556 -91 
Q 1019 -91 701 211 
Q 384 513 384 1019 
Q 384 1609 779 1909 
Q 1175 2209 1959 2209 
L 2766 2209 
L 2766 2266 
Q 2766 2663 2505 2880 
Q 2244 3097 1772 3097 
Q 1472 3097 1187 3025 
Q 903 2953 641 2809 
L 641 3341 
Q 956 3463 1253 3523 
Q 1550 3584 1831 3584 
Q 2591 3584 2966 3190 
Q 3341 2797 3341 1997 
z
" transform="scale(0.015625)"/>
       <path id="DejaVuSans-6c" d="M 603 4863 
L 1178 4863 
L 1178 0 
L 603 0 
L 603 4863 
z
" transform="scale(0.015625)"/>
       <path id="DejaVuSans-79" d="M 2059 -325 
Q 1816 -950 1584 -1140 
Q 1353 -1331 966 -1331 
L 506 -1331 
L 506 -850 
L 844 -850 
Q 1081 -850 1212 -737 
Q 1344 -625 1503 -206 
L 1606 56 
L 191 3500 
L 800 3500 
L 1894 763 
L 2988 3500 
L 3597 3500 
L 2059 -325 
z
" transform="scale(0.015625)"/>
      </defs>
      <use xlink:href="#DejaVuSans-6f"/>
      <use xlink:href="#DejaVuSans-70" x="61.181641"/>
      <use xlink:href="#DejaVuSans-65" x="124.658203"/>
      <use xlink:href="#DejaVuSans-6e" x="186.181641"/>
      <use xlink:href="#DejaVuSans-69" x="249.560547"/>
      <use xlink:href="#DejaVuSans-6e" x="277.34375"/>
      <use xlink:href="#DejaVuSans-67" x="340.722656"/>
      <use xlink:href="#DejaVuSans-20" x="404.199219"/>
      <use xlink:href="#DejaVuSans-70" x="435.986328"/>
      <use xlink:href="#DejaVuSans-72" x="499.462891"/>
      <use xlink:href="#DejaVuSans-6f" x="538.326172"/>
      <use xlink:href="#DejaVuSans-62" x="599.507812"/>
      <use xlink:href="#DejaVuSans-61" x="662.984375"/>
      <use xlink:href="#DejaVuSans-62" x="724.263672"/>
      <use xlink:href="#DejaVuSans-69" x="787.740234"/>
      <use xlink:href="#DejaVuSans-6c" x="815.523438"/>
      <use xlink:href="#DejaVuSans-69" x="843.306641"/>
      <use xlink:href="#DejaVuSans-74" x="871.089844"/>
      <use xlink:href="#DejaVuSans-79" x="910.298828"/>
     </g>
    </g>
   </g>
   <g id="line2d_25">
    <path d="M 115.363636 357.197982 
L 116.073889 357.093056 
L 117.037804 356.683445 
L 118.864168 355.61247 
L 126.981344 350.681114 
L 131.293593 348.353311 
L 134.641928 346.786379 
L 137.229277 345.807493 
L 139.360036 345.226709 
L 141.034203 344.982822 
L 141.642992 345.149325 
L 142.403977 345.614803 
L 143.418624 346.523656 
L 144.788397 348.083498 
L 146.969888 350.964338 
L 149.709435 354.502756 
L 151.383602 356.301452 
L 152.905572 357.620063 
L 154.427543 358.645614 
L 156.000245 359.435723 
L 157.674413 360.029779 
L 159.55151 360.459565 
L 161.733001 360.725547 
L 164.32035 360.810935 
L 167.56722 360.684221 
L 171.828737 360.282158 
L 178.677604 359.383249 
L 190.853367 357.78928 
L 192.020211 357.550317 
L 192.781196 357.042918 
L 193.998773 355.922283 
L 196.383193 353.36584 
L 199.579331 349.630773 
L 201.862286 346.638483 
L 203.637918 343.946424 
L 205.058424 341.393553 
L 206.276 338.741156 
L 207.290647 336.009626 
L 208.203829 332.912096 
L 209.015547 329.35811 
L 209.7258 325.268239 
L 210.38532 320.154084 
L 210.994109 313.585453 
L 211.552164 304.923556 
L 212.059488 293.231214 
L 212.516079 277.220875 
L 212.97267 252.077174 
L 213.429261 212.721377 
L 214.596105 100.353052 
L 215.001964 84.102907 
L 215.407823 75.538585 
L 215.813681 71.060792 
L 216.21954 68.737111 
L 216.625399 67.572768 
L 216.980525 67.102117 
L 217.335652 66.96 
L 217.690778 67.054351 
L 218.096637 67.402126 
L 218.553228 68.088886 
L 219.060552 69.261634 
L 219.618607 71.171614 
L 220.176663 73.935864 
L 220.734719 77.841792 
L 221.343507 83.847272 
L 221.952295 92.283941 
L 222.561083 103.964384 
L 223.169872 119.980516 
L 223.77866 141.873116 
L 224.387448 171.7905 
L 225.046968 215.767159 
L 226.721136 336.523582 
L 227.177727 351.730065 
L 227.634318 360.206741 
L 228.090909 364.70361 
L 228.5475 367.033383 
L 229.004091 368.22461 
L 229.460682 368.826752 
L 229.968006 369.147802 
L 230.678259 369.318239 
L 231.946567 369.353363 
L 235.852958 369.15264 
L 242.295966 368.624587 
L 248.130186 367.925063 
L 253.812208 367.018298 
L 259.747893 365.841644 
L 266.748957 364.216611 
L 268.067998 363.796518 
L 268.879715 363.161759 
L 270.350953 361.665976 
L 276.591032 354.762152 
L 281.207675 349.47257 
L 283.69356 346.289869 
L 285.519925 343.606466 
L 287.041895 340.974048 
L 288.310204 338.325171 
L 289.375583 335.586568 
L 290.339498 332.467439 
L 291.151215 329.096756 
L 291.9122 324.954193 
L 292.571721 320.135401 
L 293.231241 313.509794 
L 293.840029 305.137966 
L 294.347353 295.047621 
L 294.803944 281.602002 
L 295.260535 260.940643 
L 295.717126 228.407838 
L 296.325914 164.659753 
L 296.934703 109.03467 
L 297.391294 87.285362 
L 297.797152 77.348619 
L 298.203011 72.106071 
L 298.60887 69.359897 
L 299.014729 67.961743 
L 299.420588 67.323851 
L 299.775714 67.153774 
L 300.13084 67.241871 
L 300.536699 67.60445 
L 300.99329 68.333172 
L 301.500614 69.584936 
L 302.05867 71.627442 
L 302.616725 74.583403 
L 303.174781 78.755952 
L 303.783569 85.160687 
L 304.392357 94.140359 
L 305.001146 106.550372 
L 305.609934 123.548388 
L 306.218722 146.773563 
L 306.82751 178.455205 
L 307.537763 228.515199 
L 308.907536 329.850113 
L 309.41486 349.251521 
L 309.871451 358.852631 
L 310.328042 363.989151 
L 310.784633 366.662291 
L 311.241224 368.033251 
L 311.697815 368.728447 
L 312.205139 369.101067 
L 312.864659 369.294371 
L 313.980771 369.353938 
L 317.075444 369.216279 
L 323.569184 368.719944 
L 329.454136 368.051366 
L 335.136159 367.181218 
L 340.970379 366.060472 
L 344.065052 365.301047 
L 344.724572 364.738909 
L 345.840684 363.428882 
L 348.377301 360.009533 
L 355.226168 350.379205 
L 357.610588 346.64017 
L 359.38622 343.446066 
L 360.806726 340.428727 
L 361.97357 337.434347 
L 362.988217 334.218251 
L 363.901399 330.542744 
L 364.713117 326.272564 
L 365.42337 321.272863 
L 366.032158 315.452201 
L 366.590214 308.06545 
L 367.097537 298.51321 
L 367.60486 284.298914 
L 368.061452 264.53979 
L 368.518043 233.665743 
L 369.076099 177.29944 
L 369.786351 110.087106 
L 370.242942 87.925666 
L 370.648801 77.742417 
L 371.05466 72.352241 
L 371.460519 69.520679 
L 371.866378 68.074558 
L 372.272236 67.411606 
L 372.627363 67.231991 
L 372.982489 67.31903 
L 373.388348 67.688954 
L 373.844939 68.43606 
L 374.352262 69.721468 
L 374.910318 71.819784 
L 375.468374 74.856003 
L 376.02643 79.139701 
L 376.635218 85.710272 
L 377.244006 94.914837 
L 377.852794 107.6266 
L 378.461583 125.030823 
L 379.070371 148.806884 
L 379.679159 181.209677 
L 380.389412 232.108292 
L 381.65772 326.897764 
L 382.165044 347.571453 
L 382.621635 357.928547 
L 383.078226 363.50066 
L 383.534817 366.408789 
L 383.991408 367.902948 
L 384.447999 368.661939 
L 384.955323 369.069906 
L 385.614843 369.283172 
L 386.680223 369.352862 
L 389.521234 369.235622 
L 396.014974 368.750981 
L 401.950659 368.088483 
L 407.632681 367.229451 
L 413.466901 366.119219 
L 419.859177 364.676322 
L 420.265036 364.402333 
L 420.873824 363.670063 
L 421.837738 362.091063 
L 423.410441 359.0212 
L 425.693397 354.049895 
L 427.773423 349.007082 
L 429.346126 344.609566 
L 430.563702 340.551541 
L 431.578349 336.403214 
L 432.440799 331.953595 
L 433.201784 326.854365 
L 433.861304 320.957347 
L 434.470092 313.461859 
L 435.028148 303.608971 
L 435.535472 290.264757 
L 435.992063 271.866804 
L 436.448654 242.928706 
L 436.955977 193.335876 
L 437.767695 111.186548 
L 438.173554 89.948874 
L 438.579412 78.613668 
L 438.985271 72.674211 
L 439.39113 69.576512 
L 439.796989 67.990793 
L 440.202848 67.238727 
L 440.557974 66.99215 
L 440.9131 67.007362 
L 441.318959 67.277287 
L 441.77555 67.876007 
L 442.282874 68.934558 
L 442.84093 70.681739 
L 443.398985 73.225081 
L 443.957041 76.829353 
L 444.565829 82.380594 
L 445.174617 90.185282 
L 445.732673 100.22735 
L 446.341461 115.187405 
L 446.95025 135.618273 
L 447.559038 163.530997 
L 448.218558 204.923312 
L 450.19712 342.912524 
L 450.653711 355.369868 
L 451.110302 362.158733 
L 451.566893 365.721266 
L 452.023484 367.556451 
L 452.480075 368.490844 
L 452.936666 368.960686 
L 453.494722 369.223999 
L 454.357172 369.349286 
L 456.183537 369.322208 
L 462.017756 368.950079 
L 468.15637 368.350937 
L 473.889125 367.567415 
L 479.62188 366.556499 
L 485.861959 365.224108 
L 494.080599 363.221611 
L 508.843712 359.602667 
L 515.185255 358.302592 
L 520.664348 357.401265 
L 525.737583 356.789319 
L 530.709353 356.414999 
L 535.83332 356.256454 
L 541.616807 356.309252 
L 549.733982 356.631215 
L 564.801489 357.239853 
L 574.694297 357.380852 
L 588.442762 357.328108 
L 620.657802 357.161753 
L 622.636364 357.162833 
L 622.636364 357.162833 
" clip-path="url(#p06a6aab28a)" style="fill: none; stroke: #1f77b4; stroke-width: 1.5; stroke-linecap: square"/>
   </g>
   <g id="line2d_26">
    <path d="M 115.363636 275.467963 
L 117.291466 275.36141 
L 119.422224 275.010677 
L 121.755912 274.395787 
L 124.393994 273.463087 
L 127.437935 272.139549 
L 131.090664 270.297504 
L 136.924883 267.064794 
L 141.541527 264.603433 
L 143.164962 263.998296 
L 144.737665 263.649847 
L 146.259635 263.544775 
L 147.781605 263.664466 
L 149.405041 264.018485 
L 151.231405 264.649953 
L 153.463628 265.667185 
L 156.761231 267.441663 
L 163.711562 271.220587 
L 167.161362 272.809099 
L 170.357499 274.038331 
L 173.502905 275.0125 
L 176.699043 275.772071 
L 180.047377 276.339493 
L 183.649374 276.721101 
L 187.606497 276.912747 
L 191.918746 276.901945 
L 193.440717 276.692479 
L 195.064152 276.24214 
L 196.839784 275.512684 
L 198.716881 274.497305 
L 200.695442 273.170923 
L 202.724736 271.536163 
L 204.652565 269.697777 
L 206.428197 267.694766 
L 207.950168 265.639556 
L 209.218476 263.547476 
L 210.233123 261.451124 
L 211.095573 259.138686 
L 211.805826 256.547042 
L 212.363882 253.669067 
L 212.871205 249.788581 
L 213.327796 244.334993 
L 213.784388 235.842901 
L 214.596105 214.86885 
L 215.610752 190.849097 
L 216.523934 174.157032 
L 217.386384 162.152268 
L 218.248834 153.158394 
L 219.060552 146.927693 
L 219.821537 142.702861 
L 220.53179 139.944849 
L 221.140578 138.367992 
L 221.698633 137.490466 
L 222.155225 137.143322 
L 222.561083 137.098899 
L 222.966942 137.294617 
L 223.423533 137.798229 
L 223.930857 138.714862 
L 224.539645 140.33494 
L 225.199165 142.765117 
L 226.061615 146.914874 
L 228.344571 159.656956 
L 230.93192 173.312013 
L 233.468538 185.526685 
L 236.005155 196.658497 
L 238.49104 206.590396 
L 240.976925 215.620402 
L 243.412078 223.648807 
L 245.84723 230.919953 
L 248.23165 237.351623 
L 250.565338 243.027809 
L 252.899026 248.129476 
L 255.181982 252.598529 
L 257.464937 256.584041 
L 259.697161 260.043478 
L 261.929384 263.099099 
L 264.161607 265.778838 
L 266.39383 268.110024 
L 268.372392 269.872088 
L 269.691433 270.740251 
L 271.061206 271.377267 
L 272.481712 271.786826 
L 273.95295 271.972837 
L 275.47492 271.939022 
L 277.098355 271.676839 
L 278.823255 271.16825 
L 280.64962 270.393748 
L 282.577449 269.32842 
L 284.55601 267.972684 
L 286.483839 266.376146 
L 288.259471 264.615289 
L 289.832174 262.738051 
L 291.151215 260.813318 
L 292.216594 258.875372 
L 293.129777 256.742726 
L 293.941494 254.257825 
L 294.550282 251.6976 
L 295.057606 248.666697 
L 295.514197 244.621526 
L 295.970788 238.352686 
L 296.478111 227.756948 
L 298.405941 183.098464 
L 299.319123 168.383431 
L 300.181573 157.919522 
L 300.99329 150.56762 
L 301.754275 145.47936 
L 302.464528 142.044515 
L 303.124049 139.824854 
L 303.732837 138.501406 
L 304.24016 137.877556 
L 304.646019 137.669441 
L 305.051878 137.707754 
L 305.457737 137.98608 
L 305.914328 138.584774 
L 306.472384 139.737359 
L 307.081172 141.551502 
L 307.791425 144.425149 
L 308.755339 149.37108 
L 313.422715 174.526136 
L 315.959332 186.634021 
L 318.49595 197.666629 
L 320.981835 207.507986 
L 323.467719 216.453464 
L 325.902872 224.404405 
L 328.338025 231.602967 
L 330.722445 237.967977 
L 333.056133 243.582911 
L 335.389821 248.627088 
L 337.672776 253.043405 
L 339.955732 256.979542 
L 342.187955 260.393872 
L 344.267981 263.187163 
L 345.53629 264.516934 
L 346.804599 265.530927 
L 348.072907 266.267679 
L 349.391948 266.774173 
L 350.710989 267.045149 
L 352.080763 267.103114 
L 353.501268 266.94521 
L 355.023239 266.54928 
L 356.595941 265.90761 
L 358.219376 265.001735 
L 359.842812 263.837326 
L 361.415514 262.428071 
L 362.83602 260.853598 
L 364.053596 259.183494 
L 365.118976 257.348313 
L 366.032158 255.313632 
L 366.793143 253.039824 
L 367.401931 250.520378 
L 367.909255 247.527056 
L 368.365846 243.538964 
L 368.822437 237.379473 
L 369.32976 226.982698 
L 371.308322 181.871987 
L 372.221504 167.49995 
L 373.083954 157.303028 
L 373.895671 150.158808 
L 374.656657 145.234032 
L 375.366909 141.930201 
L 376.02643 139.817589 
L 376.635218 138.583281 
L 377.142542 138.028381 
L 377.5484 137.873002 
L 377.954259 137.962856 
L 378.360118 138.292575 
L 378.816709 138.950377 
L 379.374765 140.179265 
L 379.983553 142.082365 
L 380.693806 145.055664 
L 381.759185 150.640733 
L 385.665576 171.832542 
L 388.202193 184.177013 
L 390.73881 195.429493 
L 393.224695 205.471508 
L 395.71058 214.604304 
L 398.145733 222.726901 
L 400.580885 230.086304 
L 402.965306 236.599035 
L 405.349726 242.468173 
L 407.683414 247.6276 
L 409.966369 252.149659 
L 412.249325 256.184827 
L 414.481548 259.689663 
L 416.713771 262.787637 
L 418.945995 265.506749 
L 420.56943 267.194772 
L 421.634809 267.960263 
L 422.700188 268.449124 
L 423.765567 268.687915 
L 424.830947 268.698787 
L 425.947058 268.484572 
L 427.113902 268.028178 
L 428.331479 267.305313 
L 429.549055 266.323803 
L 430.766631 265.055259 
L 431.933475 263.508893 
L 432.948122 261.80386 
L 433.861304 259.832422 
L 434.62229 257.664801 
L 435.28181 255.094047 
L 435.839866 251.968812 
L 436.296457 248.168938 
L 436.753048 242.295235 
L 437.209639 233.262769 
L 439.695524 176.5676 
L 440.557974 163.948693 
L 441.420424 154.442622 
L 442.232141 147.816654 
L 442.993127 143.281336 
L 443.703379 140.273391 
L 444.3629 138.388605 
L 444.920956 137.396775 
L 445.377547 136.965087 
L 445.783406 136.8642 
L 446.189264 137.008391 
L 446.645855 137.455306 
L 447.153179 138.307627 
L 447.711235 139.695318 
L 448.370755 141.97901 
L 449.182473 145.714752 
L 450.653711 153.855314 
L 453.494722 169.311733 
L 456.031339 181.876921 
L 458.567957 193.334418 
L 461.053842 203.563456 
L 463.539727 212.87078 
L 465.974879 221.153268 
L 468.410032 228.662462 
L 470.794452 235.312755 
L 473.178872 241.310981 
L 475.51256 246.588946 
L 477.795516 251.219797 
L 480.078471 255.356891 
L 482.310695 258.954924 
L 484.542918 262.139845 
L 486.775141 264.939789 
L 489.007364 267.382284 
L 491.239588 269.494236 
L 493.471811 271.301874 
L 495.754766 272.86238 
L 498.037722 274.157591 
L 500.422142 275.254599 
L 502.908027 276.149469 
L 505.495377 276.842735 
L 508.234923 277.346844 
L 511.228132 277.668147 
L 514.525734 277.794591 
L 518.33066 277.710906 
L 522.998036 277.375217 
L 530.404959 276.585224 
L 540.196301 275.586425 
L 546.537845 275.173246 
L 552.93012 274.982254 
L 560.48924 274.990102 
L 573.67965 275.273951 
L 589.25448 275.528461 
L 605.488831 275.544228 
L 622.636364 275.473557 
L 622.636364 275.473557 
" clip-path="url(#p06a6aab28a)" style="fill: none; stroke: #ff7f0e; stroke-width: 1.5; stroke-linecap: square"/>
   </g>
   <g id="line2d_27">
    <path d="M 115.363636 189.508758 
L 116.987071 189.619837 
L 118.661239 189.965505 
L 120.487603 190.577295 
L 122.466165 191.485306 
L 124.596923 192.714945 
L 126.930611 194.322075 
L 129.568693 196.414863 
L 132.663366 199.162778 
L 137.026348 203.36596 
L 141.795189 207.903201 
L 143.215694 208.909481 
L 144.534735 209.585321 
L 145.803044 209.989279 
L 147.02062 210.148724 
L 148.288929 210.086026 
L 149.60797 209.793621 
L 151.079208 209.230175 
L 152.753375 208.342483 
L 154.833402 206.974323 
L 157.82661 204.709893 
L 165.537927 198.774905 
L 168.734064 196.650348 
L 171.727273 194.925145 
L 174.619016 193.513542 
L 177.51076 192.349422 
L 180.453236 191.406054 
L 183.497177 190.665596 
L 186.693315 190.117702 
L 190.143114 189.752669 
L 192.476802 189.686864 
L 193.745111 189.923574 
L 195.064152 190.398312 
L 196.484658 191.153083 
L 197.955896 192.188519 
L 199.528598 193.573633 
L 201.152033 195.306928 
L 202.775468 197.364928 
L 204.398904 199.787235 
L 205.920874 202.460167 
L 207.290647 205.307713 
L 208.508224 208.348618 
L 209.573603 211.629734 
L 210.436053 215.000713 
L 211.146306 218.628161 
L 211.755094 222.862499 
L 212.262417 227.86735 
L 212.769741 235.272005 
L 213.378529 248.100344 
L 214.748302 277.522216 
L 215.864414 296.448483 
L 216.980525 311.60934 
L 218.045905 323.214025 
L 219.111284 332.480242 
L 220.125931 339.408018 
L 221.039113 344.178841 
L 221.850831 347.286434 
L 222.510351 349.030853 
L 223.068407 349.961477 
L 223.524998 350.348904 
L 223.930857 350.404446 
L 224.285983 350.220312 
L 224.691842 349.723842 
L 225.148433 348.756376 
L 225.655756 347.094892 
L 226.264545 344.251159 
L 227.279192 338.210825 
L 231.185582 314.297688 
L 233.874397 299.399802 
L 236.512479 286.011157 
L 239.099828 273.997477 
L 241.687178 263.030782 
L 244.223795 253.240633 
L 246.70968 244.519457 
L 249.144833 236.76801 
L 251.529253 229.894702 
L 253.913673 223.689765 
L 256.247361 218.225999 
L 258.530317 213.429066 
L 260.813272 209.140914 
L 263.045495 205.409207 
L 265.277719 202.104148 
L 267.45921 199.259363 
L 268.727518 197.877119 
L 269.945095 196.881386 
L 271.162671 196.17481 
L 272.380247 195.728858 
L 273.597823 195.520377 
L 274.866132 195.535325 
L 276.185173 195.783699 
L 277.554946 196.276481 
L 278.975452 197.02645 
L 280.497422 198.089102 
L 282.070125 199.463495 
L 283.69356 201.180874 
L 285.316995 203.220647 
L 286.94043 205.626177 
L 288.462401 208.290595 
L 289.832174 211.146074 
L 290.999018 214.081028 
L 292.013665 217.228325 
L 292.876115 220.63872 
L 293.6371 224.568088 
L 294.245888 228.801987 
L 294.803944 234.371615 
L 295.311267 241.942316 
L 296.02152 256.852587 
L 297.239097 281.616116 
L 298.355208 299.730846 
L 299.47132 314.237243 
L 300.536699 325.331444 
L 301.602078 334.169285 
L 302.565993 340.452216 
L 303.479175 345.001735 
L 304.24016 347.77238 
L 304.899681 349.426534 
L 305.457737 350.285125 
L 305.914328 350.615926 
L 306.269454 350.636385 
L 306.624581 350.440338 
L 307.030439 349.931306 
L 307.487031 348.950521 
L 307.994354 347.275427 
L 308.603142 344.420137 
L 309.617789 338.374126 
L 313.52418 314.454332 
L 316.212994 299.552483 
L 318.851076 286.161183 
L 321.438426 274.145994 
L 324.025775 263.178745 
L 326.562393 253.388832 
L 329.048278 244.668489 
L 331.48343 236.918293 
L 333.86785 230.046496 
L 336.252271 223.843235 
L 338.585959 218.381164 
L 340.868914 213.585856 
L 343.15187 209.299217 
L 344.67384 206.827516 
L 345.840684 205.390419 
L 346.956796 204.353452 
L 348.072907 203.609229 
L 349.189019 203.12889 
L 350.305131 202.889467 
L 351.421242 202.872689 
L 352.588086 203.077719 
L 353.805662 203.521329 
L 355.073971 204.223237 
L 356.393012 205.208172 
L 357.762785 206.509363 
L 359.183291 208.174931 
L 360.553064 210.121634 
L 361.872105 212.375629 
L 363.089682 214.886045 
L 364.205793 217.702257 
L 365.169708 220.746874 
L 365.981425 224.042633 
L 366.691678 227.900234 
L 367.300466 232.559656 
L 367.80779 238.229203 
L 368.315113 246.550286 
L 371.105392 299.228527 
L 372.221504 313.836862 
L 373.286883 325.013195 
L 374.352262 333.92439 
L 375.316177 340.271408 
L 376.229359 344.883585 
L 376.990344 347.709329 
L 377.649865 349.41344 
L 378.207921 350.316026 
L 378.664512 350.684547 
L 379.070371 350.726198 
L 379.425497 350.531995 
L 379.831356 350.026149 
L 380.287947 349.05058 
L 380.79527 347.383329 
L 381.404059 344.537869 
L 382.418706 338.499346 
L 386.375828 314.278567 
L 389.064643 299.394895 
L 391.702725 286.020849 
L 394.290074 274.022031 
L 396.877424 263.0706 
L 399.414041 253.295633 
L 401.899926 244.589363 
L 404.335079 236.852362 
L 406.719499 229.992886 
L 409.103919 223.801321 
L 411.437607 218.350069 
L 413.720563 213.564725 
L 416.003519 209.287427 
L 418.235742 205.565558 
L 420.214303 202.654853 
L 421.178218 201.619392 
L 422.0914 200.949504 
L 423.004582 200.555986 
L 423.867032 200.420009 
L 424.729482 200.499718 
L 425.642664 200.808803 
L 426.606579 201.37862 
L 427.621226 202.247046 
L 428.686605 203.463885 
L 429.751984 205.018021 
L 430.817364 206.960759 
L 431.83201 209.261568 
L 432.795925 212.005189 
L 433.658375 215.15664 
L 434.368628 218.565284 
L 434.977416 222.512787 
L 435.535472 227.660316 
L 436.042795 234.644712 
L 436.600851 245.845555 
L 438.224286 280.380477 
L 439.340398 298.74025 
L 440.456509 313.442756 
L 441.521889 324.68829 
L 442.587268 333.650849 
L 443.551182 340.031058 
L 444.464365 344.666161 
L 445.22535 347.507703 
L 445.88487 349.197388 
L 446.442926 350.075194 
L 446.899517 350.417787 
L 447.254644 350.445268 
L 447.60977 350.254502 
L 448.015629 349.749478 
L 448.47222 348.770568 
L 448.979543 347.09384 
L 449.588332 344.232032 
L 450.602978 338.17667 
L 454.509369 314.261168 
L 457.198183 299.364142 
L 459.836265 285.976058 
L 462.423615 273.962669 
L 465.010965 262.996041 
L 467.547582 253.205773 
L 470.033467 244.484338 
L 472.46862 236.732536 
L 474.85304 229.858814 
L 477.23746 223.653425 
L 479.571148 218.189207 
L 481.854104 213.391842 
L 484.137059 209.103285 
L 486.369282 205.371225 
L 488.601506 202.065867 
L 490.782996 199.220851 
L 492.964487 196.730925 
L 495.145978 194.571385 
L 497.327469 192.71831 
L 499.559692 191.115218 
L 501.791916 189.784733 
L 504.074871 188.681743 
L 506.408559 187.798724 
L 508.843712 187.114072 
L 511.431061 186.621317 
L 514.170608 186.328441 
L 517.163816 186.235323 
L 520.512151 186.357051 
L 524.520007 186.733833 
L 530.049832 187.497155 
L 542.174863 189.222944 
L 547.704689 189.740266 
L 553.183782 190.024937 
L 559.220931 190.109579 
L 567.135177 189.981279 
L 594.023321 189.382475 
L 609.344489 189.39973 
L 622.636364 189.479086 
L 622.636364 189.479086 
" clip-path="url(#p06a6aab28a)" style="fill: none; stroke: #2ca02c; stroke-width: 1.5; stroke-linecap: square"/>
   </g>
   <g id="patch_3">
    <path d="M 90 384.48 
L 90 51.84 
" style="fill: none; stroke: #000000; stroke-width: 0.8; stroke-linejoin: miter; stroke-linecap: square"/>
   </g>
   <g id="patch_4">
    <path d="M 648 384.48 
L 648 51.84 
" style="fill: none; stroke: #000000; stroke-width: 0.8; stroke-linejoin: miter; stroke-linecap: square"/>
   </g>
   <g id="patch_5">
    <path d="M 90 384.48 
L 648 384.48 
" style="fill: none; stroke: #000000; stroke-width: 0.8; stroke-linejoin: miter; stroke-linecap: square"/>
   </g>
   <g id="patch_6">
    <path d="M 90 51.84 
L 648 51.84 
" style="fill: none; stroke: #000000; stroke-width: 0.8; stroke-linejoin: miter; stroke-linecap: square"/>
   </g>
   <g id="text_15">
    <!-- Gating Variables (6.3°C) -->
    <g transform="translate(245.573625 45.84) scale(0.204 -0.204)">
     <defs>
      <path id="DejaVuSans-47" d="M 3809 666 
L 3809 1919 
L 2778 1919 
L 2778 2438 
L 4434 2438 
L 4434 434 
Q 4069 175 3628 42 
Q 3188 -91 2688 -91 
Q 1594 -91 976 548 
Q 359 1188 359 2328 
Q 359 3472 976 4111 
Q 1594 4750 2688 4750 
Q 3144 4750 3555 4637 
Q 3966 4525 4313 4306 
L 4313 3634 
Q 3963 3931 3569 4081 
Q 3175 4231 2741 4231 
Q 1884 4231 1454 3753 
Q 1025 3275 1025 2328 
Q 1025 1384 1454 906 
Q 1884 428 2741 428 
Q 3075 428 3337 486 
Q 3600 544 3809 666 
z
" transform="scale(0.015625)"/>
      <path id="DejaVuSans-56" d="M 1831 0 
L 50 4666 
L 709 4666 
L 2188 738 
L 3669 4666 
L 4325 4666 
L 2547 0 
L 1831 0 
z
" transform="scale(0.015625)"/>
      <path id="DejaVuSans-33" d="M 2597 2516 
Q 3050 2419 3304 2112 
Q 3559 1806 3559 1356 
Q 3559 666 3084 287 
Q 2609 -91 1734 -91 
Q 1441 -91 1130 -33 
Q 819 25 488 141 
L 488 750 
Q 750 597 1062 519 
Q 1375 441 1716 441 
Q 2309 441 2620 675 
Q 2931 909 2931 1356 
Q 2931 1769 2642 2001 
Q 2353 2234 1838 2234 
L 1294 2234 
L 1294 2753 
L 1863 2753 
Q 2328 2753 2575 2939 
Q 2822 3125 2822 3475 
Q 2822 3834 2567 4026 
Q 2313 4219 1838 4219 
Q 1578 4219 1281 4162 
Q 984 4106 628 3988 
L 628 4550 
Q 988 4650 1302 4700 
Q 1616 4750 1894 4750 
Q 2613 4750 3031 4423 
Q 3450 4097 3450 3541 
Q 3450 3153 3228 2886 
Q 3006 2619 2597 2516 
z
" transform="scale(0.015625)"/>
      <path id="DejaVuSans-b0" d="M 1600 4347 
Q 1350 4347 1178 4173 
Q 1006 4000 1006 3750 
Q 1006 3503 1178 3333 
Q 1350 3163 1600 3163 
Q 1850 3163 2022 3333 
Q 2194 3503 2194 3750 
Q 2194 3997 2020 4172 
Q 1847 4347 1600 4347 
z
M 1600 4750 
Q 1800 4750 1984 4673 
Q 2169 4597 2303 4453 
Q 2447 4313 2519 4134 
Q 2591 3956 2591 3750 
Q 2591 3338 2302 3052 
Q 2013 2766 1594 2766 
Q 1172 2766 890 3047 
Q 609 3328 609 3750 
Q 609 4169 896 4459 
Q 1184 4750 1600 4750 
z
" transform="scale(0.015625)"/>
      <path id="DejaVuSans-43" d="M 4122 4306 
L 4122 3641 
Q 3803 3938 3442 4084 
Q 3081 4231 2675 4231 
Q 1875 4231 1450 3742 
Q 1025 3253 1025 2328 
Q 1025 1406 1450 917 
Q 1875 428 2675 428 
Q 3081 428 3442 575 
Q 3803 722 4122 1019 
L 4122 359 
Q 3791 134 3420 21 
Q 3050 -91 2638 -91 
Q 1578 -91 968 557 
Q 359 1206 359 2328 
Q 359 3453 968 4101 
Q 1578 4750 2638 4750 
Q 3056 4750 3426 4639 
Q 3797 4528 4122 4306 
z
" transform="scale(0.015625)"/>
     </defs>
     <use xlink:href="#DejaVuSans-47"/>
     <use xlink:href="#DejaVuSans-61" x="77.490234"/>
     <use xlink:href="#DejaVuSans-74" x="138.769531"/>
     <use xlink:href="#DejaVuSans-69" x="177.978516"/>
     <use xlink:href="#DejaVuSans-6e" x="205.761719"/>
     <use xlink:href="#DejaVuSans-67" x="269.140625"/>
     <use xlink:href="#DejaVuSans-20" x="332.617188"/>
     <use xlink:href="#DejaVuSans-56" x="364.404297"/>
     <use xlink:href="#DejaVuSans-61" x="425.0625"/>
     <use xlink:href="#DejaVuSans-72" x="486.341797"/>
     <use xlink:href="#DejaVuSans-69" x="527.455078"/>
     <use xlink:href="#DejaVuSans-61" x="555.238281"/>
     <use xlink:href="#DejaVuSans-62" x="616.517578"/>
     <use xlink:href="#DejaVuSans-6c" x="679.994141"/>
     <use xlink:href="#DejaVuSans-65" x="707.777344"/>
     <use xlink:href="#DejaVuSans-73" x="769.300781"/>
     <use xlink:href="#DejaVuSans-20" x="821.400391"/>
     <use xlink:href="#DejaVuSans-28" x="853.1875"/>
     <use xlink:href="#DejaVuSans-36" x="892.201172"/>
     <use xlink:href="#DejaVuSans-2e" x="955.824219"/>
     <use xlink:href="#DejaVuSans-33" x="987.611328"/>
     <use xlink:href="#DejaVuSans-b0" x="1051.234375"/>
     <use xlink:href="#DejaVuSans-43" x="1101.234375"/>
     <use xlink:href="#DejaVuSans-29" x="1171.058594"/>
    </g>
   </g>
   <g id="legend_1">
    <g id="patch_7">
     <path d="M 565.140937 140.298437 
L 636.1 140.298437 
Q 639.5 140.298437 639.5 136.898438 
L 639.5 63.74 
Q 639.5 60.34 636.1 60.34 
L 565.140937 60.34 
Q 561.740937 60.34 561.740937 63.74 
L 561.740937 136.898438 
Q 561.740937 140.298437 565.140937 140.298437 
z
" style="fill: #ffffff; opacity: 0.8; stroke: #cccccc; stroke-linejoin: miter"/>
    </g>
    <g id="line2d_28">
     <path d="M 568.540937 74.107344 
L 585.540937 74.107344 
L 602.540937 74.107344 
" style="fill: none; stroke: #1f77b4; stroke-width: 1.5; stroke-linecap: square"/>
    </g>
    <g id="text_16">
     <!-- m -->
     <g transform="translate(616.140937 80.057344) scale(0.17 -0.17)">
      <use xlink:href="#DejaVuSans-6d"/>
     </g>
    </g>
    <g id="line2d_29">
     <path d="M 568.540937 99.060156 
L 585.540937 99.060156 
L 602.540937 99.060156 
" style="fill: none; stroke: #ff7f0e; stroke-width: 1.5; stroke-linecap: square"/>
    </g>
    <g id="text_17">
     <!-- n -->
     <g transform="translate(616.140937 105.010156) scale(0.17 -0.17)">
      <use xlink:href="#DejaVuSans-6e"/>
     </g>
    </g>
    <g id="line2d_30">
     <path d="M 568.540937 124.012969 
L 585.540937 124.012969 
L 602.540937 124.012969 
" style="fill: none; stroke: #2ca02c; stroke-width: 1.5; stroke-linecap: square"/>
    </g>
    <g id="text_18">
     <!-- h -->
     <g transform="translate(616.140937 129.962969) scale(0.17 -0.17)">
      <defs>
       <path id="DejaVuSans-68" d="M 3513 2113 
L 3513 0 
L 2938 0 
L 2938 2094 
Q 2938 2591 2744 2837 
Q 2550 3084 2163 3084 
Q 1697 3084 1428 2787 
Q 1159 2491 1159 1978 
L 1159 0 
L 581 0 
L 581 4863 
L 1159 4863 
L 1159 2956 
Q 1366 3272 1645 3428 
Q 1925 3584 2291 3584 
Q 2894 3584 3203 3211 
Q 3513 2838 3513 2113 
z
" transform="scale(0.015625)"/>
      </defs>
      <use xlink:href="#DejaVuSans-68"/>
     </g>
    </g>
   </g>
  </g>
 </g>
 <defs>
  <clipPath id="p06a6aab28a">
   <rect x="90" y="51.84" width="558" height="332.64"/>
  </clipPath>
 </defs>
</svg>
