<?xml version="1.0" encoding="utf-8" standalone="no"?>
<!DOCTYPE svg PUBLIC "-//W3C//DTD SVG 1.1//EN"
  "http://www.w3.org/Graphics/SVG/1.1/DTD/svg11.dtd">
<svg xmlns:xlink="http://www.w3.org/1999/xlink" width="720pt" height="432pt" viewBox="0 0 720 432" xmlns="http://www.w3.org/2000/svg" version="1.1">
 <metadata>
  <rdf:RDF xmlns:dc="http://purl.org/dc/elements/1.1/" xmlns:cc="http://creativecommons.org/ns#" xmlns:rdf="http://www.w3.org/1999/02/22-rdf-syntax-ns#">
   <cc:Work>
    <dc:type rdf:resource="http://purl.org/dc/dcmitype/StillImage"/>
    <dc:date>2024-12-08T22:42:02.329180</dc:date>
    <dc:format>image/svg+xml</dc:format>
    <dc:creator>
     <cc:Agent>
      <dc:title>Matplotlib v3.9.2, https://matplotlib.org/</dc:title>
     </cc:Agent>
    </dc:creator>
   </cc:Work>
  </rdf:RDF>
 </metadata>
 <defs>
  <style type="text/css">*{stroke-linejoin: round; stroke-linecap: butt}</style>
 </defs>
 <g id="figure_1">
  <g id="patch_1">
   <path d="M 0 432 
L 720 432 
L 720 0 
L 0 0 
z
" style="fill: #ffffff"/>
  </g>
  <g id="axes_1">
   <g id="patch_2">
    <path d="M 90 384.48 
L 648 384.48 
L 648 51.84 
L 90 51.84 
z
" style="fill: #ffffff"/>
   </g>
   <g id="matplotlib.axis_1">
    <g id="xtick_1">
     <g id="line2d_1">
      <path d="M 115.363636 384.48 
L 115.363636 51.84 
" clip-path="url(#p8008c7184d)" style="fill: none; stroke: #b0b0b0; stroke-width: 0.8; stroke-linecap: square"/>
     </g>
     <g id="line2d_2">
      <defs>
       <path id="m9e5c68bfe3" d="M 0 0 
L 0 3.5 
" style="stroke: #000000; stroke-width: 0.8"/>
      </defs>
      <g>
       <use xlink:href="#m9e5c68bfe3" x="115.363636" y="384.48" style="stroke: #000000; stroke-width: 0.8"/>
      </g>
     </g>
     <g id="text_1">
      <!-- 0 -->
      <g transform="translate(109.955511 404.397344) scale(0.17 -0.17)">
       <defs>
        <path id="DejaVuSans-30" d="M 2034 4250 
Q 1547 4250 1301 3770 
Q 1056 3291 1056 2328 
Q 1056 1369 1301 889 
Q 1547 409 2034 409 
Q 2525 409 2770 889 
Q 3016 1369 3016 2328 
Q 3016 3291 2770 3770 
Q 2525 4250 2034 4250 
z
M 2034 4750 
Q 2819 4750 3233 4129 
Q 3647 3509 3647 2328 
Q 3647 1150 3233 529 
Q 2819 -91 2034 -91 
Q 1250 -91 836 529 
Q 422 1150 422 2328 
Q 422 3509 836 4129 
Q 1250 4750 2034 4750 
z
" transform="scale(0.015625)"/>
       </defs>
       <use xlink:href="#DejaVuSans-30"/>
      </g>
     </g>
    </g>
    <g id="xtick_2">
     <g id="line2d_3">
      <path d="M 216.828328 384.48 
L 216.828328 51.84 
" clip-path="url(#p8008c7184d)" style="fill: none; stroke: #b0b0b0; stroke-width: 0.8; stroke-linecap: square"/>
     </g>
     <g id="line2d_4">
      <g>
       <use xlink:href="#m9e5c68bfe3" x="216.828328" y="384.48" style="stroke: #000000; stroke-width: 0.8"/>
      </g>
     </g>
     <g id="text_2">
      <!-- 20 -->
      <g transform="translate(206.012078 404.397344) scale(0.17 -0.17)">
       <defs>
        <path id="DejaVuSans-32" d="M 1228 531 
L 3431 531 
L 3431 0 
L 469 0 
L 469 531 
Q 828 903 1448 1529 
Q 2069 2156 2228 2338 
Q 2531 2678 2651 2914 
Q 2772 3150 2772 3378 
Q 2772 3750 2511 3984 
Q 2250 4219 1831 4219 
Q 1534 4219 1204 4116 
Q 875 4013 500 3803 
L 500 4441 
Q 881 4594 1212 4672 
Q 1544 4750 1819 4750 
Q 2544 4750 2975 4387 
Q 3406 4025 3406 3419 
Q 3406 3131 3298 2873 
Q 3191 2616 2906 2266 
Q 2828 2175 2409 1742 
Q 1991 1309 1228 531 
z
" transform="scale(0.015625)"/>
       </defs>
       <use xlink:href="#DejaVuSans-32"/>
       <use xlink:href="#DejaVuSans-30" x="63.623047"/>
      </g>
     </g>
    </g>
    <g id="xtick_3">
     <g id="line2d_5">
      <path d="M 318.29302 384.48 
L 318.29302 51.84 
" clip-path="url(#p8008c7184d)" style="fill: none; stroke: #b0b0b0; stroke-width: 0.8; stroke-linecap: square"/>
     </g>
     <g id="line2d_6">
      <g>
       <use xlink:href="#m9e5c68bfe3" x="318.29302" y="384.48" style="stroke: #000000; stroke-width: 0.8"/>
      </g>
     </g>
     <g id="text_3">
      <!-- 40 -->
      <g transform="translate(307.47677 404.397344) scale(0.17 -0.17)">
       <defs>
        <path id="DejaVuSans-34" d="M 2419 4116 
L 825 1625 
L 2419 1625 
L 2419 4116 
z
M 2253 4666 
L 3047 4666 
L 3047 1625 
L 3713 1625 
L 3713 1100 
L 3047 1100 
L 3047 0 
L 2419 0 
L 2419 1100 
L 313 1100 
L 313 1709 
L 2253 4666 
z
" transform="scale(0.015625)"/>
       </defs>
       <use xlink:href="#DejaVuSans-34"/>
       <use xlink:href="#DejaVuSans-30" x="63.623047"/>
      </g>
     </g>
    </g>
    <g id="xtick_4">
     <g id="line2d_7">
      <path d="M 419.757712 384.48 
L 419.757712 51.84 
" clip-path="url(#p8008c7184d)" style="fill: none; stroke: #b0b0b0; stroke-width: 0.8; stroke-linecap: square"/>
     </g>
     <g id="line2d_8">
      <g>
       <use xlink:href="#m9e5c68bfe3" x="419.757712" y="384.48" style="stroke: #000000; stroke-width: 0.8"/>
      </g>
     </g>
     <g id="text_4">
      <!-- 60 -->
      <g transform="translate(408.941462 404.397344) scale(0.17 -0.17)">
       <defs>
        <path id="DejaVuSans-36" d="M 2113 2584 
Q 1688 2584 1439 2293 
Q 1191 2003 1191 1497 
Q 1191 994 1439 701 
Q 1688 409 2113 409 
Q 2538 409 2786 701 
Q 3034 994 3034 1497 
Q 3034 2003 2786 2293 
Q 2538 2584 2113 2584 
z
M 3366 4563 
L 3366 3988 
Q 3128 4100 2886 4159 
Q 2644 4219 2406 4219 
Q 1781 4219 1451 3797 
Q 1122 3375 1075 2522 
Q 1259 2794 1537 2939 
Q 1816 3084 2150 3084 
Q 2853 3084 3261 2657 
Q 3669 2231 3669 1497 
Q 3669 778 3244 343 
Q 2819 -91 2113 -91 
Q 1303 -91 875 529 
Q 447 1150 447 2328 
Q 447 3434 972 4092 
Q 1497 4750 2381 4750 
Q 2619 4750 2861 4703 
Q 3103 4656 3366 4563 
z
" transform="scale(0.015625)"/>
       </defs>
       <use xlink:href="#DejaVuSans-36"/>
       <use xlink:href="#DejaVuSans-30" x="63.623047"/>
      </g>
     </g>
    </g>
    <g id="xtick_5">
     <g id="line2d_9">
      <path d="M 521.222404 384.48 
L 521.222404 51.84 
" clip-path="url(#p8008c7184d)" style="fill: none; stroke: #b0b0b0; stroke-width: 0.8; stroke-linecap: square"/>
     </g>
     <g id="line2d_10">
      <g>
       <use xlink:href="#m9e5c68bfe3" x="521.222404" y="384.48" style="stroke: #000000; stroke-width: 0.8"/>
      </g>
     </g>
     <g id="text_5">
      <!-- 80 -->
      <g transform="translate(510.406154 404.397344) scale(0.17 -0.17)">
       <defs>
        <path id="DejaVuSans-38" d="M 2034 2216 
Q 1584 2216 1326 1975 
Q 1069 1734 1069 1313 
Q 1069 891 1326 650 
Q 1584 409 2034 409 
Q 2484 409 2743 651 
Q 3003 894 3003 1313 
Q 3003 1734 2745 1975 
Q 2488 2216 2034 2216 
z
M 1403 2484 
Q 997 2584 770 2862 
Q 544 3141 544 3541 
Q 544 4100 942 4425 
Q 1341 4750 2034 4750 
Q 2731 4750 3128 4425 
Q 3525 4100 3525 3541 
Q 3525 3141 3298 2862 
Q 3072 2584 2669 2484 
Q 3125 2378 3379 2068 
Q 3634 1759 3634 1313 
Q 3634 634 3220 271 
Q 2806 -91 2034 -91 
Q 1263 -91 848 271 
Q 434 634 434 1313 
Q 434 1759 690 2068 
Q 947 2378 1403 2484 
z
M 1172 3481 
Q 1172 3119 1398 2916 
Q 1625 2713 2034 2713 
Q 2441 2713 2670 2916 
Q 2900 3119 2900 3481 
Q 2900 3844 2670 4047 
Q 2441 4250 2034 4250 
Q 1625 4250 1398 4047 
Q 1172 3844 1172 3481 
z
" transform="scale(0.015625)"/>
       </defs>
       <use xlink:href="#DejaVuSans-38"/>
       <use xlink:href="#DejaVuSans-30" x="63.623047"/>
      </g>
     </g>
    </g>
    <g id="xtick_6">
     <g id="line2d_11">
      <path d="M 622.687096 384.48 
L 622.687096 51.84 
" clip-path="url(#p8008c7184d)" style="fill: none; stroke: #b0b0b0; stroke-width: 0.8; stroke-linecap: square"/>
     </g>
     <g id="line2d_12">
      <g>
       <use xlink:href="#m9e5c68bfe3" x="622.687096" y="384.48" style="stroke: #000000; stroke-width: 0.8"/>
      </g>
     </g>
     <g id="text_6">
      <!-- 100 -->
      <g transform="translate(606.462721 404.397344) scale(0.17 -0.17)">
       <defs>
        <path id="DejaVuSans-31" d="M 794 531 
L 1825 531 
L 1825 4091 
L 703 3866 
L 703 4441 
L 1819 4666 
L 2450 4666 
L 2450 531 
L 3481 531 
L 3481 0 
L 794 0 
L 794 531 
z
" transform="scale(0.015625)"/>
       </defs>
       <use xlink:href="#DejaVuSans-31"/>
       <use xlink:href="#DejaVuSans-30" x="63.623047"/>
       <use xlink:href="#DejaVuSans-30" x="127.246094"/>
      </g>
     </g>
    </g>
    <g id="text_7">
     <!-- t (ms) -->
     <g transform="translate(343.626172 424.850156) scale(0.17 -0.17)">
      <defs>
       <path id="DejaVuSans-74" d="M 1172 4494 
L 1172 3500 
L 2356 3500 
L 2356 3053 
L 1172 3053 
L 1172 1153 
Q 1172 725 1289 603 
Q 1406 481 1766 481 
L 2356 481 
L 2356 0 
L 1766 0 
Q 1100 0 847 248 
Q 594 497 594 1153 
L 594 3053 
L 172 3053 
L 172 3500 
L 594 3500 
L 594 4494 
L 1172 4494 
z
" transform="scale(0.015625)"/>
       <path id="DejaVuSans-20" transform="scale(0.015625)"/>
       <path id="DejaVuSans-28" d="M 1984 4856 
Q 1566 4138 1362 3434 
Q 1159 2731 1159 2009 
Q 1159 1288 1364 580 
Q 1569 -128 1984 -844 
L 1484 -844 
Q 1016 -109 783 600 
Q 550 1309 550 2009 
Q 550 2706 781 3412 
Q 1013 4119 1484 4856 
L 1984 4856 
z
" transform="scale(0.015625)"/>
       <path id="DejaVuSans-6d" d="M 3328 2828 
Q 3544 3216 3844 3400 
Q 4144 3584 4550 3584 
Q 5097 3584 5394 3201 
Q 5691 2819 5691 2113 
L 5691 0 
L 5113 0 
L 5113 2094 
Q 5113 2597 4934 2840 
Q 4756 3084 4391 3084 
Q 3944 3084 3684 2787 
Q 3425 2491 3425 1978 
L 3425 0 
L 2847 0 
L 2847 2094 
Q 2847 2600 2669 2842 
Q 2491 3084 2119 3084 
Q 1678 3084 1418 2786 
Q 1159 2488 1159 1978 
L 1159 0 
L 581 0 
L 581 3500 
L 1159 3500 
L 1159 2956 
Q 1356 3278 1631 3431 
Q 1906 3584 2284 3584 
Q 2666 3584 2933 3390 
Q 3200 3197 3328 2828 
z
" transform="scale(0.015625)"/>
       <path id="DejaVuSans-73" d="M 2834 3397 
L 2834 2853 
Q 2591 2978 2328 3040 
Q 2066 3103 1784 3103 
Q 1356 3103 1142 2972 
Q 928 2841 928 2578 
Q 928 2378 1081 2264 
Q 1234 2150 1697 2047 
L 1894 2003 
Q 2506 1872 2764 1633 
Q 3022 1394 3022 966 
Q 3022 478 2636 193 
Q 2250 -91 1575 -91 
Q 1294 -91 989 -36 
Q 684 19 347 128 
L 347 722 
Q 666 556 975 473 
Q 1284 391 1588 391 
Q 1994 391 2212 530 
Q 2431 669 2431 922 
Q 2431 1156 2273 1281 
Q 2116 1406 1581 1522 
L 1381 1569 
Q 847 1681 609 1914 
Q 372 2147 372 2553 
Q 372 3047 722 3315 
Q 1072 3584 1716 3584 
Q 2034 3584 2315 3537 
Q 2597 3491 2834 3397 
z
" transform="scale(0.015625)"/>
       <path id="DejaVuSans-29" d="M 513 4856 
L 1013 4856 
Q 1481 4119 1714 3412 
Q 1947 2706 1947 2009 
Q 1947 1309 1714 600 
Q 1481 -109 1013 -844 
L 513 -844 
Q 928 -128 1133 580 
Q 1338 1288 1338 2009 
Q 1338 2731 1133 3434 
Q 928 4138 513 4856 
z
" transform="scale(0.015625)"/>
      </defs>
      <use xlink:href="#DejaVuSans-74"/>
      <use xlink:href="#DejaVuSans-20" x="39.208984"/>
      <use xlink:href="#DejaVuSans-28" x="70.996094"/>
      <use xlink:href="#DejaVuSans-6d" x="110.009766"/>
      <use xlink:href="#DejaVuSans-73" x="207.421875"/>
      <use xlink:href="#DejaVuSans-29" x="259.521484"/>
     </g>
    </g>
   </g>
   <g id="matplotlib.axis_2">
    <g id="ytick_1">
     <g id="line2d_13">
      <path d="M 90 374.625699 
L 648 374.625699 
" clip-path="url(#p8008c7184d)" style="fill: none; stroke: #b0b0b0; stroke-width: 0.8; stroke-linecap: square"/>
     </g>
     <g id="line2d_14">
      <defs>
       <path id="m304e1df490" d="M 0 0 
L -3.5 0 
" style="stroke: #000000; stroke-width: 0.8"/>
      </defs>
      <g>
       <use xlink:href="#m304e1df490" x="90" y="374.625699" style="stroke: #000000; stroke-width: 0.8"/>
      </g>
     </g>
     <g id="text_8">
      <!-- −800 -->
      <g transform="translate(36.305781 381.084371) scale(0.17 -0.17)">
       <defs>
        <path id="DejaVuSans-2212" d="M 678 2272 
L 4684 2272 
L 4684 1741 
L 678 1741 
L 678 2272 
z
" transform="scale(0.015625)"/>
       </defs>
       <use xlink:href="#DejaVuSans-2212"/>
       <use xlink:href="#DejaVuSans-38" x="83.789062"/>
       <use xlink:href="#DejaVuSans-30" x="147.412109"/>
       <use xlink:href="#DejaVuSans-30" x="211.035156"/>
      </g>
     </g>
    </g>
    <g id="ytick_2">
     <g id="line2d_15">
      <path d="M 90 336.424402 
L 648 336.424402 
" clip-path="url(#p8008c7184d)" style="fill: none; stroke: #b0b0b0; stroke-width: 0.8; stroke-linecap: square"/>
     </g>
     <g id="line2d_16">
      <g>
       <use xlink:href="#m304e1df490" x="90" y="336.424402" style="stroke: #000000; stroke-width: 0.8"/>
      </g>
     </g>
     <g id="text_9">
      <!-- −600 -->
      <g transform="translate(36.305781 342.883074) scale(0.17 -0.17)">
       <use xlink:href="#DejaVuSans-2212"/>
       <use xlink:href="#DejaVuSans-36" x="83.789062"/>
       <use xlink:href="#DejaVuSans-30" x="147.412109"/>
       <use xlink:href="#DejaVuSans-30" x="211.035156"/>
      </g>
     </g>
    </g>
    <g id="ytick_3">
     <g id="line2d_17">
      <path d="M 90 298.223105 
L 648 298.223105 
" clip-path="url(#p8008c7184d)" style="fill: none; stroke: #b0b0b0; stroke-width: 0.8; stroke-linecap: square"/>
     </g>
     <g id="line2d_18">
      <g>
       <use xlink:href="#m304e1df490" x="90" y="298.223105" style="stroke: #000000; stroke-width: 0.8"/>
      </g>
     </g>
     <g id="text_10">
      <!-- −400 -->
      <g transform="translate(36.305781 304.681777) scale(0.17 -0.17)">
       <use xlink:href="#DejaVuSans-2212"/>
       <use xlink:href="#DejaVuSans-34" x="83.789062"/>
       <use xlink:href="#DejaVuSans-30" x="147.412109"/>
       <use xlink:href="#DejaVuSans-30" x="211.035156"/>
      </g>
     </g>
    </g>
    <g id="ytick_4">
     <g id="line2d_19">
      <path d="M 90 260.021808 
L 648 260.021808 
" clip-path="url(#p8008c7184d)" style="fill: none; stroke: #b0b0b0; stroke-width: 0.8; stroke-linecap: square"/>
     </g>
     <g id="line2d_20">
      <g>
       <use xlink:href="#m304e1df490" x="90" y="260.021808" style="stroke: #000000; stroke-width: 0.8"/>
      </g>
     </g>
     <g id="text_11">
      <!-- −200 -->
      <g transform="translate(36.305781 266.48048) scale(0.17 -0.17)">
       <use xlink:href="#DejaVuSans-2212"/>
       <use xlink:href="#DejaVuSans-32" x="83.789062"/>
       <use xlink:href="#DejaVuSans-30" x="147.412109"/>
       <use xlink:href="#DejaVuSans-30" x="211.035156"/>
      </g>
     </g>
    </g>
    <g id="ytick_5">
     <g id="line2d_21">
      <path d="M 90 221.820511 
L 648 221.820511 
" clip-path="url(#p8008c7184d)" style="fill: none; stroke: #b0b0b0; stroke-width: 0.8; stroke-linecap: square"/>
     </g>
     <g id="line2d_22">
      <g>
       <use xlink:href="#m304e1df490" x="90" y="221.820511" style="stroke: #000000; stroke-width: 0.8"/>
      </g>
     </g>
     <g id="text_12">
      <!-- 0 -->
      <g transform="translate(72.18375 228.279183) scale(0.17 -0.17)">
       <use xlink:href="#DejaVuSans-30"/>
      </g>
     </g>
    </g>
    <g id="ytick_6">
     <g id="line2d_23">
      <path d="M 90 183.619214 
L 648 183.619214 
" clip-path="url(#p8008c7184d)" style="fill: none; stroke: #b0b0b0; stroke-width: 0.8; stroke-linecap: square"/>
     </g>
     <g id="line2d_24">
      <g>
       <use xlink:href="#m304e1df490" x="90" y="183.619214" style="stroke: #000000; stroke-width: 0.8"/>
      </g>
     </g>
     <g id="text_13">
      <!-- 200 -->
      <g transform="translate(50.55125 190.077886) scale(0.17 -0.17)">
       <use xlink:href="#DejaVuSans-32"/>
       <use xlink:href="#DejaVuSans-30" x="63.623047"/>
       <use xlink:href="#DejaVuSans-30" x="127.246094"/>
      </g>
     </g>
    </g>
    <g id="ytick_7">
     <g id="line2d_25">
      <path d="M 90 145.417917 
L 648 145.417917 
" clip-path="url(#p8008c7184d)" style="fill: none; stroke: #b0b0b0; stroke-width: 0.8; stroke-linecap: square"/>
     </g>
     <g id="line2d_26">
      <g>
       <use xlink:href="#m304e1df490" x="90" y="145.417917" style="stroke: #000000; stroke-width: 0.8"/>
      </g>
     </g>
     <g id="text_14">
      <!-- 400 -->
      <g transform="translate(50.55125 151.876589) scale(0.17 -0.17)">
       <use xlink:href="#DejaVuSans-34"/>
       <use xlink:href="#DejaVuSans-30" x="63.623047"/>
       <use xlink:href="#DejaVuSans-30" x="127.246094"/>
      </g>
     </g>
    </g>
    <g id="ytick_8">
     <g id="line2d_27">
      <path d="M 90 107.21662 
L 648 107.21662 
" clip-path="url(#p8008c7184d)" style="fill: none; stroke: #b0b0b0; stroke-width: 0.8; stroke-linecap: square"/>
     </g>
     <g id="line2d_28">
      <g>
       <use xlink:href="#m304e1df490" x="90" y="107.21662" style="stroke: #000000; stroke-width: 0.8"/>
      </g>
     </g>
     <g id="text_15">
      <!-- 600 -->
      <g transform="translate(50.55125 113.675292) scale(0.17 -0.17)">
       <use xlink:href="#DejaVuSans-36"/>
       <use xlink:href="#DejaVuSans-30" x="63.623047"/>
       <use xlink:href="#DejaVuSans-30" x="127.246094"/>
      </g>
     </g>
    </g>
    <g id="ytick_9">
     <g id="line2d_29">
      <path d="M 90 69.015323 
L 648 69.015323 
" clip-path="url(#p8008c7184d)" style="fill: none; stroke: #b0b0b0; stroke-width: 0.8; stroke-linecap: square"/>
     </g>
     <g id="line2d_30">
      <g>
       <use xlink:href="#m304e1df490" x="90" y="69.015323" style="stroke: #000000; stroke-width: 0.8"/>
      </g>
     </g>
     <g id="text_16">
      <!-- 800 -->
      <g transform="translate(50.55125 75.473995) scale(0.17 -0.17)">
       <use xlink:href="#DejaVuSans-38"/>
       <use xlink:href="#DejaVuSans-30" x="63.623047"/>
       <use xlink:href="#DejaVuSans-30" x="127.246094"/>
      </g>
     </g>
    </g>
    <g id="text_17">
     <!-- I (µA) -->
     <g transform="translate(28.770312 241.224219) rotate(-90) scale(0.17 -0.17)">
      <defs>
       <path id="DejaVuSans-49" d="M 628 4666 
L 1259 4666 
L 1259 0 
L 628 0 
L 628 4666 
z
" transform="scale(0.015625)"/>
       <path id="DejaVuSans-b5" d="M 544 -1331 
L 544 3500 
L 1119 3500 
L 1119 1325 
Q 1119 872 1334 640 
Q 1550 409 1972 409 
Q 2434 409 2667 671 
Q 2900 934 2900 1459 
L 2900 3500 
L 3475 3500 
L 3475 806 
Q 3475 619 3529 530 
Q 3584 441 3700 441 
Q 3728 441 3778 458 
Q 3828 475 3916 513 
L 3916 50 
Q 3788 -22 3673 -56 
Q 3559 -91 3450 -91 
Q 3234 -91 3106 31 
Q 2978 153 2931 403 
Q 2775 156 2548 32 
Q 2322 -91 2016 -91 
Q 1697 -91 1473 31 
Q 1250 153 1119 397 
L 1119 -1331 
L 544 -1331 
z
" transform="scale(0.015625)"/>
       <path id="DejaVuSans-41" d="M 2188 4044 
L 1331 1722 
L 3047 1722 
L 2188 4044 
z
M 1831 4666 
L 2547 4666 
L 4325 0 
L 3669 0 
L 3244 1197 
L 1141 1197 
L 716 0 
L 50 0 
L 1831 4666 
z
" transform="scale(0.015625)"/>
      </defs>
      <use xlink:href="#DejaVuSans-49"/>
      <use xlink:href="#DejaVuSans-20" x="29.492188"/>
      <use xlink:href="#DejaVuSans-28" x="61.279297"/>
      <use xlink:href="#DejaVuSans-b5" x="100.292969"/>
      <use xlink:href="#DejaVuSans-41" x="163.916016"/>
      <use xlink:href="#DejaVuSans-29" x="232.324219"/>
     </g>
    </g>
   </g>
   <g id="line2d_31">
    <path d="M 115.363636 222.05355 
L 120.132477 222.164639 
L 142.657638 222.803409 
L 152.601178 222.023728 
L 159.55151 221.93294 
L 178.525407 221.970737 
L 194.911955 222.155588 
L 199.934457 222.545923 
L 203.384257 223.020153 
L 205.565747 223.527247 
L 207.036986 224.079612 
L 208.102365 224.700775 
L 208.914082 225.412794 
L 209.573603 226.265165 
L 210.182391 227.436258 
L 210.689714 228.903942 
L 211.146306 230.893836 
L 211.602897 234.010253 
L 212.008755 238.489974 
L 212.414614 245.937824 
L 212.769741 256.70431 
L 213.175599 276.131985 
L 213.682923 300.518858 
L 213.784388 301.282405 
L 213.885852 299.894999 
L 214.190246 288.554161 
L 214.443908 282.907435 
L 214.49464 282.789227 
L 214.596105 283.429888 
L 214.799034 287.234063 
L 215.35709 304.171824 
L 216.625399 342.266982 
L 217.386384 358.326713 
L 217.94444 365.403651 
L 218.350299 368.267805 
L 218.654693 369.234367 
L 218.857622 369.350999 
L 219.009819 369.175956 
L 219.263481 368.410818 
L 219.618607 366.416361 
L 220.075198 362.437063 
L 220.683987 355.021834 
L 221.495704 342.104632 
L 222.459619 323.059492 
L 223.423533 299.710686 
L 224.336715 272.197733 
L 225.655756 231.675107 
L 226.061615 225.575695 
L 226.416742 223.161917 
L 226.721136 222.32835 
L 227.076262 221.978837 
L 227.583586 221.853233 
L 229.207021 221.822393 
L 269.234842 221.884857 
L 275.728582 222.109059 
L 281.258408 222.508241 
L 285.012601 222.985231 
L 287.397022 223.492901 
L 289.020457 224.051177 
L 290.187301 224.679225 
L 291.04975 225.381254 
L 291.760003 226.237312 
L 292.368791 227.32348 
L 292.926847 228.82227 
L 293.484903 231.116777 
L 293.941494 233.972948 
L 294.347353 237.914005 
L 294.753212 244.261265 
L 295.15907 254.907793 
L 295.564929 272.333035 
L 296.22445 301.692771 
L 296.275182 301.843104 
L 296.376647 300.728896 
L 296.681041 291.189627 
L 296.934703 286.570898 
L 296.985435 286.535605 
L 297.0869 287.253368 
L 297.289829 291.01014 
L 297.847885 307.507349 
L 299.014729 341.477189 
L 299.724982 355.934884 
L 300.283037 363.124755 
L 300.688896 366.082248 
L 300.99329 367.119034 
L 301.19622 367.28198 
L 301.348417 367.141293 
L 301.602078 366.432599 
L 301.957205 364.515409 
L 302.413796 360.632746 
L 303.022584 353.342933 
L 303.834302 340.590023 
L 304.798216 321.738896 
L 305.762131 298.587247 
L 306.726045 269.6292 
L 307.943622 232.424067 
L 308.34948 225.975616 
L 308.704607 223.335068 
L 309.009001 222.399959 
L 309.364127 222.001694 
L 309.820718 221.863492 
L 311.089027 221.823365 
L 340.260126 221.839664 
L 348.935357 221.965275 
L 353.907127 222.280434 
L 357.610588 222.722218 
L 360.096473 223.225817 
L 361.770641 223.77378 
L 362.988217 224.394746 
L 363.901399 225.100366 
L 364.662384 225.979818 
L 365.271173 227.022664 
L 365.829228 228.444585 
L 366.336552 230.417331 
L 366.793143 233.181592 
L 367.199002 237.044205 
L 367.60486 243.283952 
L 368.010719 253.746755 
L 368.416578 270.882149 
L 369.076099 300.84805 
L 369.126831 301.290672 
L 369.177563 301.254818 
L 369.279028 299.876243 
L 369.837084 287.694845 
L 369.887816 287.866493 
L 370.040013 289.727151 
L 370.39514 298.618885 
L 372.120039 347.242836 
L 372.728827 357.949489 
L 373.236151 363.525415 
L 373.64201 365.876231 
L 373.895671 366.453259 
L 374.047868 366.489136 
L 374.200065 366.302907 
L 374.453727 365.523409 
L 374.808854 363.51783 
L 375.265445 359.539448 
L 375.874233 352.150682 
L 376.68595 339.30504 
L 377.649865 320.362944 
L 378.61378 297.074035 
L 379.577694 267.95609 
L 380.744538 232.519604 
L 381.150397 226.03387 
L 381.505523 223.362336 
L 381.809917 222.411775 
L 382.165044 222.005606 
L 382.621635 221.864378 
L 383.839211 221.823579 
L 410.473693 221.835466 
L 423.258244 221.96419 
L 426.251452 222.256432 
L 428.483676 222.688987 
L 430.056378 223.207882 
L 431.223222 223.82079 
L 432.085672 224.512105 
L 432.795925 225.359319 
L 433.404713 226.439073 
L 433.912037 227.772066 
L 434.41936 229.798359 
L 434.875951 232.683367 
L 435.28181 236.787703 
L 435.687669 243.552801 
L 436.042795 253.313964 
L 436.448654 271.323063 
L 437.057442 300.371692 
L 437.108174 300.763454 
L 437.158907 300.609144 
L 437.311104 297.203721 
L 437.767695 282.970184 
L 437.818427 282.717392 
L 437.86916 282.780348 
L 438.021357 284.531045 
L 438.325751 292.161674 
L 440.405777 351.906627 
L 441.014565 361.764661 
L 441.521889 366.613367 
L 441.877015 368.280928 
L 442.130677 368.660746 
L 442.282874 368.582926 
L 442.485803 368.141082 
L 442.790197 366.797959 
L 443.196056 363.85096 
L 443.754112 357.925092 
L 444.464365 347.804185 
L 445.479012 329.746279 
L 446.392194 309.057995 
L 447.305376 283.534583 
L 449.182473 227.958666 
L 449.537599 224.209949 
L 449.892726 222.624083 
L 450.19712 222.117906 
L 450.602978 221.900115 
L 451.363964 221.830204 
L 457.147451 221.82233 
L 505.14025 221.942639 
L 543.341707 222.09052 
L 622.585631 222.05506 
L 622.636364 221.820511 
L 622.636364 221.820511 
" clip-path="url(#p8008c7184d)" style="fill: none; stroke: #1f77b4; stroke-width: 1.5; stroke-linecap: square"/>
   </g>
   <g id="line2d_32">
    <path d="M 115.363636 220.980133 
L 119.422224 220.869236 
L 133.018493 220.361745 
L 142.403977 220.059203 
L 146.919156 220.262161 
L 158.131004 220.875621 
L 166.958432 221.038056 
L 182.583995 221.072642 
L 193.897308 220.937488 
L 201.608624 220.483457 
L 205.768677 220.031459 
L 208.153097 219.5641 
L 209.573603 219.076706 
L 210.537517 218.518574 
L 211.197038 217.897954 
L 211.755094 217.052615 
L 212.211685 215.917344 
L 212.617544 214.224779 
L 212.97267 211.685536 
L 213.327796 207.208519 
L 213.682923 199.390788 
L 214.190246 182.081842 
L 216.42247 101.638335 
L 217.132722 84.150672 
L 217.741511 74.244534 
L 218.198102 69.867324 
L 218.553228 68.153863 
L 218.80689 67.767949 
L 218.959087 67.850166 
L 219.162016 68.305161 
L 219.46641 69.679398 
L 219.872269 72.679904 
L 220.430325 78.682249 
L 221.19131 89.685932 
L 222.155225 107.160681 
L 223.271336 131.582964 
L 224.285983 158.667477 
L 226.112348 210.045672 
L 226.568939 215.844789 
L 226.974797 218.414816 
L 227.380656 219.624684 
L 227.786515 220.173016 
L 228.293838 220.458972 
L 229.105556 220.601837 
L 231.337779 220.666063 
L 268.930448 221.045651 
L 285.875051 220.032287 
L 289.071189 219.561521 
L 290.948286 219.081041 
L 292.165862 218.556223 
L 293.079044 217.915087 
L 293.687832 217.280627 
L 294.195156 216.445331 
L 294.651747 215.238621 
L 295.057606 213.459045 
L 295.412732 210.833429 
L 295.767859 206.297212 
L 296.122985 198.50026 
L 296.630308 181.100499 
L 298.60887 108.895978 
L 299.369855 88.760862 
L 299.978643 77.887003 
L 300.485967 72.418718 
L 300.891826 70.24391 
L 301.145487 69.798966 
L 301.297684 69.846781 
L 301.500614 70.257017 
L 301.805008 71.566258 
L 302.210867 74.483396 
L 302.768922 80.37534 
L 303.479175 90.422626 
L 304.44309 107.526034 
L 305.559201 131.510031 
L 306.573848 158.089855 
L 308.501677 211.058411 
L 308.958269 216.337975 
L 309.364127 218.642464 
L 309.769986 219.723733 
L 310.175845 220.215643 
L 310.683168 220.474433 
L 311.494886 220.605883 
L 313.879306 220.669654 
L 344.775305 220.957963 
L 349.138287 220.640194 
L 358.016447 219.997754 
L 361.466247 219.525001 
L 363.546273 219.031697 
L 364.865314 218.506105 
L 365.778496 217.914004 
L 366.438017 217.237985 
L 366.996072 216.335501 
L 367.452663 215.153363 
L 367.858522 213.443001 
L 368.213649 210.961847 
L 368.568775 206.728066 
L 368.923901 199.434201 
L 369.380493 184.546534 
L 371.561983 105.609284 
L 372.272236 87.749871 
L 372.881024 77.532556 
L 373.337616 72.93836 
L 373.692742 71.065509 
L 373.946404 70.571416 
L 374.098601 70.591003 
L 374.30153 70.965066 
L 374.605924 72.223093 
L 375.011783 75.077254 
L 375.569839 80.891254 
L 376.280092 90.850628 
L 377.244006 107.84636 
L 378.360118 131.703147 
L 379.374765 158.141477 
L 381.302594 210.965109 
L 381.759185 216.281239 
L 382.165044 218.611073 
L 382.570903 219.707493 
L 382.976761 220.207464 
L 383.484085 220.47102 
L 384.295802 220.605122 
L 386.62949 220.66924 
L 420.56943 220.996686 
L 425.389003 220.487515 
L 429.549055 219.949376 
L 431.679813 219.468187 
L 432.998854 218.966114 
L 433.912037 218.3969 
L 434.571557 217.738576 
L 435.078881 216.943864 
L 435.535472 215.803127 
L 435.94133 214.116596 
L 436.296457 211.605148 
L 436.651583 207.200358 
L 437.00671 199.49867 
L 437.514033 182.187832 
L 439.695524 102.846578 
L 440.456509 83.64955 
L 441.065297 73.614536 
L 441.521889 69.159154 
L 441.877015 67.389501 
L 442.130677 66.96546 
L 442.282874 67.025472 
L 442.485803 67.451514 
L 442.790197 68.783399 
L 443.196056 71.728581 
L 443.754112 77.654555 
L 444.464365 87.734929 
L 445.276082 102.3876 
L 446.848785 137.743334 
L 447.863432 166.42693 
L 449.283937 207.413072 
L 449.740529 214.446352 
L 450.146387 217.729223 
L 450.552246 219.311853 
L 450.958105 220.033154 
L 451.414696 220.383734 
L 452.074217 220.564863 
L 453.494722 220.647322 
L 470.490058 220.896403 
L 492.558629 221.134006 
L 512.69937 221.102003 
L 557.24237 220.956561 
L 622.585631 220.979086 
L 622.636364 221.820511 
L 622.636364 221.820511 
" clip-path="url(#p8008c7184d)" style="fill: none; stroke: #ff7f0e; stroke-width: 1.5; stroke-linecap: square"/>
   </g>
   <g id="patch_3">
    <path d="M 90 384.48 
L 90 51.84 
" style="fill: none; stroke: #000000; stroke-width: 0.8; stroke-linejoin: miter; stroke-linecap: square"/>
   </g>
   <g id="patch_4">
    <path d="M 648 384.48 
L 648 51.84 
" style="fill: none; stroke: #000000; stroke-width: 0.8; stroke-linejoin: miter; stroke-linecap: square"/>
   </g>
   <g id="patch_5">
    <path d="M 90 384.48 
L 648 384.48 
" style="fill: none; stroke: #000000; stroke-width: 0.8; stroke-linejoin: miter; stroke-linecap: square"/>
   </g>
   <g id="patch_6">
    <path d="M 90 51.84 
L 648 51.84 
" style="fill: none; stroke: #000000; stroke-width: 0.8; stroke-linejoin: miter; stroke-linecap: square"/>
   </g>
   <g id="text_18">
    <!-- Ionic Currents (6.3°C) -->
    <g transform="translate(258.339562 45.84) scale(0.204 -0.204)">
     <defs>
      <path id="DejaVuSans-6f" d="M 1959 3097 
Q 1497 3097 1228 2736 
Q 959 2375 959 1747 
Q 959 1119 1226 758 
Q 1494 397 1959 397 
Q 2419 397 2687 759 
Q 2956 1122 2956 1747 
Q 2956 2369 2687 2733 
Q 2419 3097 1959 3097 
z
M 1959 3584 
Q 2709 3584 3137 3096 
Q 3566 2609 3566 1747 
Q 3566 888 3137 398 
Q 2709 -91 1959 -91 
Q 1206 -91 779 398 
Q 353 888 353 1747 
Q 353 2609 779 3096 
Q 1206 3584 1959 3584 
z
" transform="scale(0.015625)"/>
      <path id="DejaVuSans-6e" d="M 3513 2113 
L 3513 0 
L 2938 0 
L 2938 2094 
Q 2938 2591 2744 2837 
Q 2550 3084 2163 3084 
Q 1697 3084 1428 2787 
Q 1159 2491 1159 1978 
L 1159 0 
L 581 0 
L 581 3500 
L 1159 3500 
L 1159 2956 
Q 1366 3272 1645 3428 
Q 1925 3584 2291 3584 
Q 2894 3584 3203 3211 
Q 3513 2838 3513 2113 
z
" transform="scale(0.015625)"/>
      <path id="DejaVuSans-69" d="M 603 3500 
L 1178 3500 
L 1178 0 
L 603 0 
L 603 3500 
z
M 603 4863 
L 1178 4863 
L 1178 4134 
L 603 4134 
L 603 4863 
z
" transform="scale(0.015625)"/>
      <path id="DejaVuSans-63" d="M 3122 3366 
L 3122 2828 
Q 2878 2963 2633 3030 
Q 2388 3097 2138 3097 
Q 1578 3097 1268 2742 
Q 959 2388 959 1747 
Q 959 1106 1268 751 
Q 1578 397 2138 397 
Q 2388 397 2633 464 
Q 2878 531 3122 666 
L 3122 134 
Q 2881 22 2623 -34 
Q 2366 -91 2075 -91 
Q 1284 -91 818 406 
Q 353 903 353 1747 
Q 353 2603 823 3093 
Q 1294 3584 2113 3584 
Q 2378 3584 2631 3529 
Q 2884 3475 3122 3366 
z
" transform="scale(0.015625)"/>
      <path id="DejaVuSans-43" d="M 4122 4306 
L 4122 3641 
Q 3803 3938 3442 4084 
Q 3081 4231 2675 4231 
Q 1875 4231 1450 3742 
Q 1025 3253 1025 2328 
Q 1025 1406 1450 917 
Q 1875 428 2675 428 
Q 3081 428 3442 575 
Q 3803 722 4122 1019 
L 4122 359 
Q 3791 134 3420 21 
Q 3050 -91 2638 -91 
Q 1578 -91 968 557 
Q 359 1206 359 2328 
Q 359 3453 968 4101 
Q 1578 4750 2638 4750 
Q 3056 4750 3426 4639 
Q 3797 4528 4122 4306 
z
" transform="scale(0.015625)"/>
      <path id="DejaVuSans-75" d="M 544 1381 
L 544 3500 
L 1119 3500 
L 1119 1403 
Q 1119 906 1312 657 
Q 1506 409 1894 409 
Q 2359 409 2629 706 
Q 2900 1003 2900 1516 
L 2900 3500 
L 3475 3500 
L 3475 0 
L 2900 0 
L 2900 538 
Q 2691 219 2414 64 
Q 2138 -91 1772 -91 
Q 1169 -91 856 284 
Q 544 659 544 1381 
z
M 1991 3584 
L 1991 3584 
z
" transform="scale(0.015625)"/>
      <path id="DejaVuSans-72" d="M 2631 2963 
Q 2534 3019 2420 3045 
Q 2306 3072 2169 3072 
Q 1681 3072 1420 2755 
Q 1159 2438 1159 1844 
L 1159 0 
L 581 0 
L 581 3500 
L 1159 3500 
L 1159 2956 
Q 1341 3275 1631 3429 
Q 1922 3584 2338 3584 
Q 2397 3584 2469 3576 
Q 2541 3569 2628 3553 
L 2631 2963 
z
" transform="scale(0.015625)"/>
      <path id="DejaVuSans-65" d="M 3597 1894 
L 3597 1613 
L 953 1613 
Q 991 1019 1311 708 
Q 1631 397 2203 397 
Q 2534 397 2845 478 
Q 3156 559 3463 722 
L 3463 178 
Q 3153 47 2828 -22 
Q 2503 -91 2169 -91 
Q 1331 -91 842 396 
Q 353 884 353 1716 
Q 353 2575 817 3079 
Q 1281 3584 2069 3584 
Q 2775 3584 3186 3129 
Q 3597 2675 3597 1894 
z
M 3022 2063 
Q 3016 2534 2758 2815 
Q 2500 3097 2075 3097 
Q 1594 3097 1305 2825 
Q 1016 2553 972 2059 
L 3022 2063 
z
" transform="scale(0.015625)"/>
      <path id="DejaVuSans-2e" d="M 684 794 
L 1344 794 
L 1344 0 
L 684 0 
L 684 794 
z
" transform="scale(0.015625)"/>
      <path id="DejaVuSans-33" d="M 2597 2516 
Q 3050 2419 3304 2112 
Q 3559 1806 3559 1356 
Q 3559 666 3084 287 
Q 2609 -91 1734 -91 
Q 1441 -91 1130 -33 
Q 819 25 488 141 
L 488 750 
Q 750 597 1062 519 
Q 1375 441 1716 441 
Q 2309 441 2620 675 
Q 2931 909 2931 1356 
Q 2931 1769 2642 2001 
Q 2353 2234 1838 2234 
L 1294 2234 
L 1294 2753 
L 1863 2753 
Q 2328 2753 2575 2939 
Q 2822 3125 2822 3475 
Q 2822 3834 2567 4026 
Q 2313 4219 1838 4219 
Q 1578 4219 1281 4162 
Q 984 4106 628 3988 
L 628 4550 
Q 988 4650 1302 4700 
Q 1616 4750 1894 4750 
Q 2613 4750 3031 4423 
Q 3450 4097 3450 3541 
Q 3450 3153 3228 2886 
Q 3006 2619 2597 2516 
z
" transform="scale(0.015625)"/>
      <path id="DejaVuSans-b0" d="M 1600 4347 
Q 1350 4347 1178 4173 
Q 1006 4000 1006 3750 
Q 1006 3503 1178 3333 
Q 1350 3163 1600 3163 
Q 1850 3163 2022 3333 
Q 2194 3503 2194 3750 
Q 2194 3997 2020 4172 
Q 1847 4347 1600 4347 
z
M 1600 4750 
Q 1800 4750 1984 4673 
Q 2169 4597 2303 4453 
Q 2447 4313 2519 4134 
Q 2591 3956 2591 3750 
Q 2591 3338 2302 3052 
Q 2013 2766 1594 2766 
Q 1172 2766 890 3047 
Q 609 3328 609 3750 
Q 609 4169 896 4459 
Q 1184 4750 1600 4750 
z
" transform="scale(0.015625)"/>
     </defs>
     <use xlink:href="#DejaVuSans-49"/>
     <use xlink:href="#DejaVuSans-6f" x="29.492188"/>
     <use xlink:href="#DejaVuSans-6e" x="90.673828"/>
     <use xlink:href="#DejaVuSans-69" x="154.052734"/>
     <use xlink:href="#DejaVuSans-63" x="181.835938"/>
     <use xlink:href="#DejaVuSans-20" x="236.816406"/>
     <use xlink:href="#DejaVuSans-43" x="268.603516"/>
     <use xlink:href="#DejaVuSans-75" x="338.427734"/>
     <use xlink:href="#DejaVuSans-72" x="401.806641"/>
     <use xlink:href="#DejaVuSans-72" x="441.169922"/>
     <use xlink:href="#DejaVuSans-65" x="480.033203"/>
     <use xlink:href="#DejaVuSans-6e" x="541.556641"/>
     <use xlink:href="#DejaVuSans-74" x="604.935547"/>
     <use xlink:href="#DejaVuSans-73" x="644.144531"/>
     <use xlink:href="#DejaVuSans-20" x="696.244141"/>
     <use xlink:href="#DejaVuSans-28" x="728.03125"/>
     <use xlink:href="#DejaVuSans-36" x="767.044922"/>
     <use xlink:href="#DejaVuSans-2e" x="830.667969"/>
     <use xlink:href="#DejaVuSans-33" x="862.455078"/>
     <use xlink:href="#DejaVuSans-b0" x="926.078125"/>
     <use xlink:href="#DejaVuSans-43" x="976.078125"/>
     <use xlink:href="#DejaVuSans-29" x="1045.902344"/>
    </g>
   </g>
   <g id="legend_1">
    <g id="patch_7">
     <path d="M 545.049062 116.29125 
L 636.1 116.29125 
Q 639.5 116.29125 639.5 112.89125 
L 639.5 63.74 
Q 639.5 60.34 636.1 60.34 
L 545.049062 60.34 
Q 541.649063 60.34 541.649063 63.74 
L 541.649063 112.89125 
Q 541.649063 116.29125 545.049062 116.29125 
z
" style="fill: #ffffff; opacity: 0.8; stroke: #cccccc; stroke-linejoin: miter"/>
    </g>
    <g id="line2d_33">
     <path d="M 548.449062 74.107344 
L 565.449062 74.107344 
L 582.449062 74.107344 
" style="fill: none; stroke: #1f77b4; stroke-width: 1.5; stroke-linecap: square"/>
    </g>
    <g id="text_19">
     <!-- I_Na -->
     <g transform="translate(596.049062 80.057344) scale(0.17 -0.17)">
      <defs>
       <path id="DejaVuSans-5f" d="M 3263 -1063 
L 3263 -1509 
L -63 -1509 
L -63 -1063 
L 3263 -1063 
z
" transform="scale(0.015625)"/>
       <path id="DejaVuSans-4e" d="M 628 4666 
L 1478 4666 
L 3547 763 
L 3547 4666 
L 4159 4666 
L 4159 0 
L 3309 0 
L 1241 3903 
L 1241 0 
L 628 0 
L 628 4666 
z
" transform="scale(0.015625)"/>
       <path id="DejaVuSans-61" d="M 2194 1759 
Q 1497 1759 1228 1600 
Q 959 1441 959 1056 
Q 959 750 1161 570 
Q 1363 391 1709 391 
Q 2188 391 2477 730 
Q 2766 1069 2766 1631 
L 2766 1759 
L 2194 1759 
z
M 3341 1997 
L 3341 0 
L 2766 0 
L 2766 531 
Q 2569 213 2275 61 
Q 1981 -91 1556 -91 
Q 1019 -91 701 211 
Q 384 513 384 1019 
Q 384 1609 779 1909 
Q 1175 2209 1959 2209 
L 2766 2209 
L 2766 2266 
Q 2766 2663 2505 2880 
Q 2244 3097 1772 3097 
Q 1472 3097 1187 3025 
Q 903 2953 641 2809 
L 641 3341 
Q 956 3463 1253 3523 
Q 1550 3584 1831 3584 
Q 2591 3584 2966 3190 
Q 3341 2797 3341 1997 
z
" transform="scale(0.015625)"/>
      </defs>
      <use xlink:href="#DejaVuSans-49"/>
      <use xlink:href="#DejaVuSans-5f" x="29.492188"/>
      <use xlink:href="#DejaVuSans-4e" x="79.492188"/>
      <use xlink:href="#DejaVuSans-61" x="154.296875"/>
     </g>
    </g>
    <g id="line2d_34">
     <path d="M 548.449062 99.532969 
L 565.449062 99.532969 
L 582.449062 99.532969 
" style="fill: none; stroke: #ff7f0e; stroke-width: 1.5; stroke-linecap: square"/>
    </g>
    <g id="text_20">
     <!-- I_K -->
     <g transform="translate(596.049062 105.482969) scale(0.17 -0.17)">
      <defs>
       <path id="DejaVuSans-4b" d="M 628 4666 
L 1259 4666 
L 1259 2694 
L 3353 4666 
L 4166 4666 
L 1850 2491 
L 4331 0 
L 3500 0 
L 1259 2247 
L 1259 0 
L 628 0 
L 628 4666 
z
" transform="scale(0.015625)"/>
      </defs>
      <use xlink:href="#DejaVuSans-49"/>
      <use xlink:href="#DejaVuSans-5f" x="29.492188"/>
      <use xlink:href="#DejaVuSans-4b" x="79.492188"/>
     </g>
    </g>
   </g>
  </g>
 </g>
 <defs>
  <clipPath id="p8008c7184d">
   <rect x="90" y="51.84" width="558" height="332.64"/>
  </clipPath>
 </defs>
</svg>
