<?xml version="1.0" encoding="utf-8" standalone="no"?>
<!DOCTYPE svg PUBLIC "-//W3C//DTD SVG 1.1//EN"
  "http://www.w3.org/Graphics/SVG/1.1/DTD/svg11.dtd">
<svg xmlns:xlink="http://www.w3.org/1999/xlink" width="720pt" height="432pt" viewBox="0 0 720 432" xmlns="http://www.w3.org/2000/svg" version="1.1">
 <metadata>
  <rdf:RDF xmlns:dc="http://purl.org/dc/elements/1.1/" xmlns:cc="http://creativecommons.org/ns#" xmlns:rdf="http://www.w3.org/1999/02/22-rdf-syntax-ns#">
   <cc:Work>
    <dc:type rdf:resource="http://purl.org/dc/dcmitype/StillImage"/>
    <dc:date>2024-12-08T22:42:02.421077</dc:date>
    <dc:format>image/svg+xml</dc:format>
    <dc:creator>
     <cc:Agent>
      <dc:title>Matplotlib v3.9.2, https://matplotlib.org/</dc:title>
     </cc:Agent>
    </dc:creator>
   </cc:Work>
  </rdf:RDF>
 </metadata>
 <defs>
  <style type="text/css">*{stroke-linejoin: round; stroke-linecap: butt}</style>
 </defs>
 <g id="figure_1">
  <g id="patch_1">
   <path d="M 0 432 
L 720 432 
L 720 0 
L 0 0 
z
" style="fill: #ffffff"/>
  </g>
  <g id="axes_1">
   <g id="patch_2">
    <path d="M 90 384.48 
L 648 384.48 
L 648 51.84 
L 90 51.84 
z
" style="fill: #ffffff"/>
   </g>
   <g id="matplotlib.axis_1">
    <g id="xtick_1">
     <g id="line2d_1">
      <path d="M 144.288372 384.48 
L 144.288372 51.84 
" clip-path="url(#pd8520a5708)" style="fill: none; stroke: #b0b0b0; stroke-width: 0.8; stroke-linecap: square"/>
     </g>
     <g id="line2d_2">
      <defs>
       <path id="m11a0841047" d="M 0 0 
L 0 3.5 
" style="stroke: #000000; stroke-width: 0.8"/>
      </defs>
      <g>
       <use xlink:href="#m11a0841047" x="144.288372" y="384.48" style="stroke: #000000; stroke-width: 0.8"/>
      </g>
     </g>
     <g id="text_1">
      <!-- 0 -->
      <g transform="translate(138.880247 404.397344) scale(0.17 -0.17)">
       <defs>
        <path id="DejaVuSans-30" d="M 2034 4250 
Q 1547 4250 1301 3770 
Q 1056 3291 1056 2328 
Q 1056 1369 1301 889 
Q 1547 409 2034 409 
Q 2525 409 2770 889 
Q 3016 1369 3016 2328 
Q 3016 3291 2770 3770 
Q 2525 4250 2034 4250 
z
M 2034 4750 
Q 2819 4750 3233 4129 
Q 3647 3509 3647 2328 
Q 3647 1150 3233 529 
Q 2819 -91 2034 -91 
Q 1250 -91 836 529 
Q 422 1150 422 2328 
Q 422 3509 836 4129 
Q 1250 4750 2034 4750 
z
" transform="scale(0.015625)"/>
       </defs>
       <use xlink:href="#DejaVuSans-30"/>
      </g>
     </g>
    </g>
    <g id="xtick_2">
     <g id="line2d_3">
      <path d="M 211.262961 384.48 
L 211.262961 51.84 
" clip-path="url(#pd8520a5708)" style="fill: none; stroke: #b0b0b0; stroke-width: 0.8; stroke-linecap: square"/>
     </g>
     <g id="line2d_4">
      <g>
       <use xlink:href="#m11a0841047" x="211.262961" y="384.48" style="stroke: #000000; stroke-width: 0.8"/>
      </g>
     </g>
     <g id="text_2">
      <!-- 10 -->
      <g transform="translate(200.446711 404.397344) scale(0.17 -0.17)">
       <defs>
        <path id="DejaVuSans-31" d="M 794 531 
L 1825 531 
L 1825 4091 
L 703 3866 
L 703 4441 
L 1819 4666 
L 2450 4666 
L 2450 531 
L 3481 531 
L 3481 0 
L 794 0 
L 794 531 
z
" transform="scale(0.015625)"/>
       </defs>
       <use xlink:href="#DejaVuSans-31"/>
       <use xlink:href="#DejaVuSans-30" x="63.623047"/>
      </g>
     </g>
    </g>
    <g id="xtick_3">
     <g id="line2d_5">
      <path d="M 278.23755 384.48 
L 278.23755 51.84 
" clip-path="url(#pd8520a5708)" style="fill: none; stroke: #b0b0b0; stroke-width: 0.8; stroke-linecap: square"/>
     </g>
     <g id="line2d_6">
      <g>
       <use xlink:href="#m11a0841047" x="278.23755" y="384.48" style="stroke: #000000; stroke-width: 0.8"/>
      </g>
     </g>
     <g id="text_3">
      <!-- 20 -->
      <g transform="translate(267.4213 404.397344) scale(0.17 -0.17)">
       <defs>
        <path id="DejaVuSans-32" d="M 1228 531 
L 3431 531 
L 3431 0 
L 469 0 
L 469 531 
Q 828 903 1448 1529 
Q 2069 2156 2228 2338 
Q 2531 2678 2651 2914 
Q 2772 3150 2772 3378 
Q 2772 3750 2511 3984 
Q 2250 4219 1831 4219 
Q 1534 4219 1204 4116 
Q 875 4013 500 3803 
L 500 4441 
Q 881 4594 1212 4672 
Q 1544 4750 1819 4750 
Q 2544 4750 2975 4387 
Q 3406 4025 3406 3419 
Q 3406 3131 3298 2873 
Q 3191 2616 2906 2266 
Q 2828 2175 2409 1742 
Q 1991 1309 1228 531 
z
" transform="scale(0.015625)"/>
       </defs>
       <use xlink:href="#DejaVuSans-32"/>
       <use xlink:href="#DejaVuSans-30" x="63.623047"/>
      </g>
     </g>
    </g>
    <g id="xtick_4">
     <g id="line2d_7">
      <path d="M 345.212139 384.48 
L 345.212139 51.84 
" clip-path="url(#pd8520a5708)" style="fill: none; stroke: #b0b0b0; stroke-width: 0.8; stroke-linecap: square"/>
     </g>
     <g id="line2d_8">
      <g>
       <use xlink:href="#m11a0841047" x="345.212139" y="384.48" style="stroke: #000000; stroke-width: 0.8"/>
      </g>
     </g>
     <g id="text_4">
      <!-- 30 -->
      <g transform="translate(334.395889 404.397344) scale(0.17 -0.17)">
       <defs>
        <path id="DejaVuSans-33" d="M 2597 2516 
Q 3050 2419 3304 2112 
Q 3559 1806 3559 1356 
Q 3559 666 3084 287 
Q 2609 -91 1734 -91 
Q 1441 -91 1130 -33 
Q 819 25 488 141 
L 488 750 
Q 750 597 1062 519 
Q 1375 441 1716 441 
Q 2309 441 2620 675 
Q 2931 909 2931 1356 
Q 2931 1769 2642 2001 
Q 2353 2234 1838 2234 
L 1294 2234 
L 1294 2753 
L 1863 2753 
Q 2328 2753 2575 2939 
Q 2822 3125 2822 3475 
Q 2822 3834 2567 4026 
Q 2313 4219 1838 4219 
Q 1578 4219 1281 4162 
Q 984 4106 628 3988 
L 628 4550 
Q 988 4650 1302 4700 
Q 1616 4750 1894 4750 
Q 2613 4750 3031 4423 
Q 3450 4097 3450 3541 
Q 3450 3153 3228 2886 
Q 3006 2619 2597 2516 
z
" transform="scale(0.015625)"/>
       </defs>
       <use xlink:href="#DejaVuSans-33"/>
       <use xlink:href="#DejaVuSans-30" x="63.623047"/>
      </g>
     </g>
    </g>
    <g id="xtick_5">
     <g id="line2d_9">
      <path d="M 412.186728 384.48 
L 412.186728 51.84 
" clip-path="url(#pd8520a5708)" style="fill: none; stroke: #b0b0b0; stroke-width: 0.8; stroke-linecap: square"/>
     </g>
     <g id="line2d_10">
      <g>
       <use xlink:href="#m11a0841047" x="412.186728" y="384.48" style="stroke: #000000; stroke-width: 0.8"/>
      </g>
     </g>
     <g id="text_5">
      <!-- 40 -->
      <g transform="translate(401.370478 404.397344) scale(0.17 -0.17)">
       <defs>
        <path id="DejaVuSans-34" d="M 2419 4116 
L 825 1625 
L 2419 1625 
L 2419 4116 
z
M 2253 4666 
L 3047 4666 
L 3047 1625 
L 3713 1625 
L 3713 1100 
L 3047 1100 
L 3047 0 
L 2419 0 
L 2419 1100 
L 313 1100 
L 313 1709 
L 2253 4666 
z
" transform="scale(0.015625)"/>
       </defs>
       <use xlink:href="#DejaVuSans-34"/>
       <use xlink:href="#DejaVuSans-30" x="63.623047"/>
      </g>
     </g>
    </g>
    <g id="xtick_6">
     <g id="line2d_11">
      <path d="M 479.161317 384.48 
L 479.161317 51.84 
" clip-path="url(#pd8520a5708)" style="fill: none; stroke: #b0b0b0; stroke-width: 0.8; stroke-linecap: square"/>
     </g>
     <g id="line2d_12">
      <g>
       <use xlink:href="#m11a0841047" x="479.161317" y="384.48" style="stroke: #000000; stroke-width: 0.8"/>
      </g>
     </g>
     <g id="text_6">
      <!-- 50 -->
      <g transform="translate(468.345067 404.397344) scale(0.17 -0.17)">
       <defs>
        <path id="DejaVuSans-35" d="M 691 4666 
L 3169 4666 
L 3169 4134 
L 1269 4134 
L 1269 2991 
Q 1406 3038 1543 3061 
Q 1681 3084 1819 3084 
Q 2600 3084 3056 2656 
Q 3513 2228 3513 1497 
Q 3513 744 3044 326 
Q 2575 -91 1722 -91 
Q 1428 -91 1123 -41 
Q 819 9 494 109 
L 494 744 
Q 775 591 1075 516 
Q 1375 441 1709 441 
Q 2250 441 2565 725 
Q 2881 1009 2881 1497 
Q 2881 1984 2565 2268 
Q 2250 2553 1709 2553 
Q 1456 2553 1204 2497 
Q 953 2441 691 2322 
L 691 4666 
z
" transform="scale(0.015625)"/>
       </defs>
       <use xlink:href="#DejaVuSans-35"/>
       <use xlink:href="#DejaVuSans-30" x="63.623047"/>
      </g>
     </g>
    </g>
    <g id="xtick_7">
     <g id="line2d_13">
      <path d="M 546.135906 384.48 
L 546.135906 51.84 
" clip-path="url(#pd8520a5708)" style="fill: none; stroke: #b0b0b0; stroke-width: 0.8; stroke-linecap: square"/>
     </g>
     <g id="line2d_14">
      <g>
       <use xlink:href="#m11a0841047" x="546.135906" y="384.48" style="stroke: #000000; stroke-width: 0.8"/>
      </g>
     </g>
     <g id="text_7">
      <!-- 60 -->
      <g transform="translate(535.319656 404.397344) scale(0.17 -0.17)">
       <defs>
        <path id="DejaVuSans-36" d="M 2113 2584 
Q 1688 2584 1439 2293 
Q 1191 2003 1191 1497 
Q 1191 994 1439 701 
Q 1688 409 2113 409 
Q 2538 409 2786 701 
Q 3034 994 3034 1497 
Q 3034 2003 2786 2293 
Q 2538 2584 2113 2584 
z
M 3366 4563 
L 3366 3988 
Q 3128 4100 2886 4159 
Q 2644 4219 2406 4219 
Q 1781 4219 1451 3797 
Q 1122 3375 1075 2522 
Q 1259 2794 1537 2939 
Q 1816 3084 2150 3084 
Q 2853 3084 3261 2657 
Q 3669 2231 3669 1497 
Q 3669 778 3244 343 
Q 2819 -91 2113 -91 
Q 1303 -91 875 529 
Q 447 1150 447 2328 
Q 447 3434 972 4092 
Q 1497 4750 2381 4750 
Q 2619 4750 2861 4703 
Q 3103 4656 3366 4563 
z
" transform="scale(0.015625)"/>
       </defs>
       <use xlink:href="#DejaVuSans-36"/>
       <use xlink:href="#DejaVuSans-30" x="63.623047"/>
      </g>
     </g>
    </g>
    <g id="xtick_8">
     <g id="line2d_15">
      <path d="M 613.110495 384.48 
L 613.110495 51.84 
" clip-path="url(#pd8520a5708)" style="fill: none; stroke: #b0b0b0; stroke-width: 0.8; stroke-linecap: square"/>
     </g>
     <g id="line2d_16">
      <g>
       <use xlink:href="#m11a0841047" x="613.110495" y="384.48" style="stroke: #000000; stroke-width: 0.8"/>
      </g>
     </g>
     <g id="text_8">
      <!-- 70 -->
      <g transform="translate(602.294245 404.397344) scale(0.17 -0.17)">
       <defs>
        <path id="DejaVuSans-37" d="M 525 4666 
L 3525 4666 
L 3525 4397 
L 1831 0 
L 1172 0 
L 2766 4134 
L 525 4134 
L 525 4666 
z
" transform="scale(0.015625)"/>
       </defs>
       <use xlink:href="#DejaVuSans-37"/>
       <use xlink:href="#DejaVuSans-30" x="63.623047"/>
      </g>
     </g>
    </g>
    <g id="text_9">
     <!-- Membrane Potential (mV) -->
     <g transform="translate(260.079141 424.850156) scale(0.17 -0.17)">
      <defs>
       <path id="DejaVuSans-4d" d="M 628 4666 
L 1569 4666 
L 2759 1491 
L 3956 4666 
L 4897 4666 
L 4897 0 
L 4281 0 
L 4281 4097 
L 3078 897 
L 2444 897 
L 1241 4097 
L 1241 0 
L 628 0 
L 628 4666 
z
" transform="scale(0.015625)"/>
       <path id="DejaVuSans-65" d="M 3597 1894 
L 3597 1613 
L 953 1613 
Q 991 1019 1311 708 
Q 1631 397 2203 397 
Q 2534 397 2845 478 
Q 3156 559 3463 722 
L 3463 178 
Q 3153 47 2828 -22 
Q 2503 -91 2169 -91 
Q 1331 -91 842 396 
Q 353 884 353 1716 
Q 353 2575 817 3079 
Q 1281 3584 2069 3584 
Q 2775 3584 3186 3129 
Q 3597 2675 3597 1894 
z
M 3022 2063 
Q 3016 2534 2758 2815 
Q 2500 3097 2075 3097 
Q 1594 3097 1305 2825 
Q 1016 2553 972 2059 
L 3022 2063 
z
" transform="scale(0.015625)"/>
       <path id="DejaVuSans-6d" d="M 3328 2828 
Q 3544 3216 3844 3400 
Q 4144 3584 4550 3584 
Q 5097 3584 5394 3201 
Q 5691 2819 5691 2113 
L 5691 0 
L 5113 0 
L 5113 2094 
Q 5113 2597 4934 2840 
Q 4756 3084 4391 3084 
Q 3944 3084 3684 2787 
Q 3425 2491 3425 1978 
L 3425 0 
L 2847 0 
L 2847 2094 
Q 2847 2600 2669 2842 
Q 2491 3084 2119 3084 
Q 1678 3084 1418 2786 
Q 1159 2488 1159 1978 
L 1159 0 
L 581 0 
L 581 3500 
L 1159 3500 
L 1159 2956 
Q 1356 3278 1631 3431 
Q 1906 3584 2284 3584 
Q 2666 3584 2933 3390 
Q 3200 3197 3328 2828 
z
" transform="scale(0.015625)"/>
       <path id="DejaVuSans-62" d="M 3116 1747 
Q 3116 2381 2855 2742 
Q 2594 3103 2138 3103 
Q 1681 3103 1420 2742 
Q 1159 2381 1159 1747 
Q 1159 1113 1420 752 
Q 1681 391 2138 391 
Q 2594 391 2855 752 
Q 3116 1113 3116 1747 
z
M 1159 2969 
Q 1341 3281 1617 3432 
Q 1894 3584 2278 3584 
Q 2916 3584 3314 3078 
Q 3713 2572 3713 1747 
Q 3713 922 3314 415 
Q 2916 -91 2278 -91 
Q 1894 -91 1617 61 
Q 1341 213 1159 525 
L 1159 0 
L 581 0 
L 581 4863 
L 1159 4863 
L 1159 2969 
z
" transform="scale(0.015625)"/>
       <path id="DejaVuSans-72" d="M 2631 2963 
Q 2534 3019 2420 3045 
Q 2306 3072 2169 3072 
Q 1681 3072 1420 2755 
Q 1159 2438 1159 1844 
L 1159 0 
L 581 0 
L 581 3500 
L 1159 3500 
L 1159 2956 
Q 1341 3275 1631 3429 
Q 1922 3584 2338 3584 
Q 2397 3584 2469 3576 
Q 2541 3569 2628 3553 
L 2631 2963 
z
" transform="scale(0.015625)"/>
       <path id="DejaVuSans-61" d="M 2194 1759 
Q 1497 1759 1228 1600 
Q 959 1441 959 1056 
Q 959 750 1161 570 
Q 1363 391 1709 391 
Q 2188 391 2477 730 
Q 2766 1069 2766 1631 
L 2766 1759 
L 2194 1759 
z
M 3341 1997 
L 3341 0 
L 2766 0 
L 2766 531 
Q 2569 213 2275 61 
Q 1981 -91 1556 -91 
Q 1019 -91 701 211 
Q 384 513 384 1019 
Q 384 1609 779 1909 
Q 1175 2209 1959 2209 
L 2766 2209 
L 2766 2266 
Q 2766 2663 2505 2880 
Q 2244 3097 1772 3097 
Q 1472 3097 1187 3025 
Q 903 2953 641 2809 
L 641 3341 
Q 956 3463 1253 3523 
Q 1550 3584 1831 3584 
Q 2591 3584 2966 3190 
Q 3341 2797 3341 1997 
z
" transform="scale(0.015625)"/>
       <path id="DejaVuSans-6e" d="M 3513 2113 
L 3513 0 
L 2938 0 
L 2938 2094 
Q 2938 2591 2744 2837 
Q 2550 3084 2163 3084 
Q 1697 3084 1428 2787 
Q 1159 2491 1159 1978 
L 1159 0 
L 581 0 
L 581 3500 
L 1159 3500 
L 1159 2956 
Q 1366 3272 1645 3428 
Q 1925 3584 2291 3584 
Q 2894 3584 3203 3211 
Q 3513 2838 3513 2113 
z
" transform="scale(0.015625)"/>
       <path id="DejaVuSans-20" transform="scale(0.015625)"/>
       <path id="DejaVuSans-50" d="M 1259 4147 
L 1259 2394 
L 2053 2394 
Q 2494 2394 2734 2622 
Q 2975 2850 2975 3272 
Q 2975 3691 2734 3919 
Q 2494 4147 2053 4147 
L 1259 4147 
z
M 628 4666 
L 2053 4666 
Q 2838 4666 3239 4311 
Q 3641 3956 3641 3272 
Q 3641 2581 3239 2228 
Q 2838 1875 2053 1875 
L 1259 1875 
L 1259 0 
L 628 0 
L 628 4666 
z
" transform="scale(0.015625)"/>
       <path id="DejaVuSans-6f" d="M 1959 3097 
Q 1497 3097 1228 2736 
Q 959 2375 959 1747 
Q 959 1119 1226 758 
Q 1494 397 1959 397 
Q 2419 397 2687 759 
Q 2956 1122 2956 1747 
Q 2956 2369 2687 2733 
Q 2419 3097 1959 3097 
z
M 1959 3584 
Q 2709 3584 3137 3096 
Q 3566 2609 3566 1747 
Q 3566 888 3137 398 
Q 2709 -91 1959 -91 
Q 1206 -91 779 398 
Q 353 888 353 1747 
Q 353 2609 779 3096 
Q 1206 3584 1959 3584 
z
" transform="scale(0.015625)"/>
       <path id="DejaVuSans-74" d="M 1172 4494 
L 1172 3500 
L 2356 3500 
L 2356 3053 
L 1172 3053 
L 1172 1153 
Q 1172 725 1289 603 
Q 1406 481 1766 481 
L 2356 481 
L 2356 0 
L 1766 0 
Q 1100 0 847 248 
Q 594 497 594 1153 
L 594 3053 
L 172 3053 
L 172 3500 
L 594 3500 
L 594 4494 
L 1172 4494 
z
" transform="scale(0.015625)"/>
       <path id="DejaVuSans-69" d="M 603 3500 
L 1178 3500 
L 1178 0 
L 603 0 
L 603 3500 
z
M 603 4863 
L 1178 4863 
L 1178 4134 
L 603 4134 
L 603 4863 
z
" transform="scale(0.015625)"/>
       <path id="DejaVuSans-6c" d="M 603 4863 
L 1178 4863 
L 1178 0 
L 603 0 
L 603 4863 
z
" transform="scale(0.015625)"/>
       <path id="DejaVuSans-28" d="M 1984 4856 
Q 1566 4138 1362 3434 
Q 1159 2731 1159 2009 
Q 1159 1288 1364 580 
Q 1569 -128 1984 -844 
L 1484 -844 
Q 1016 -109 783 600 
Q 550 1309 550 2009 
Q 550 2706 781 3412 
Q 1013 4119 1484 4856 
L 1984 4856 
z
" transform="scale(0.015625)"/>
       <path id="DejaVuSans-56" d="M 1831 0 
L 50 4666 
L 709 4666 
L 2188 738 
L 3669 4666 
L 4325 4666 
L 2547 0 
L 1831 0 
z
" transform="scale(0.015625)"/>
       <path id="DejaVuSans-29" d="M 513 4856 
L 1013 4856 
Q 1481 4119 1714 3412 
Q 1947 2706 1947 2009 
Q 1947 1309 1714 600 
Q 1481 -109 1013 -844 
L 513 -844 
Q 928 -128 1133 580 
Q 1338 1288 1338 2009 
Q 1338 2731 1133 3434 
Q 928 4138 513 4856 
z
" transform="scale(0.015625)"/>
      </defs>
      <use xlink:href="#DejaVuSans-4d"/>
      <use xlink:href="#DejaVuSans-65" x="86.279297"/>
      <use xlink:href="#DejaVuSans-6d" x="147.802734"/>
      <use xlink:href="#DejaVuSans-62" x="245.214844"/>
      <use xlink:href="#DejaVuSans-72" x="308.691406"/>
      <use xlink:href="#DejaVuSans-61" x="349.804688"/>
      <use xlink:href="#DejaVuSans-6e" x="411.083984"/>
      <use xlink:href="#DejaVuSans-65" x="474.462891"/>
      <use xlink:href="#DejaVuSans-20" x="535.986328"/>
      <use xlink:href="#DejaVuSans-50" x="567.773438"/>
      <use xlink:href="#DejaVuSans-6f" x="624.451172"/>
      <use xlink:href="#DejaVuSans-74" x="685.632812"/>
      <use xlink:href="#DejaVuSans-65" x="724.841797"/>
      <use xlink:href="#DejaVuSans-6e" x="786.365234"/>
      <use xlink:href="#DejaVuSans-74" x="849.744141"/>
      <use xlink:href="#DejaVuSans-69" x="888.953125"/>
      <use xlink:href="#DejaVuSans-61" x="916.736328"/>
      <use xlink:href="#DejaVuSans-6c" x="978.015625"/>
      <use xlink:href="#DejaVuSans-20" x="1005.798828"/>
      <use xlink:href="#DejaVuSans-28" x="1037.585938"/>
      <use xlink:href="#DejaVuSans-6d" x="1076.599609"/>
      <use xlink:href="#DejaVuSans-56" x="1174.011719"/>
      <use xlink:href="#DejaVuSans-29" x="1242.419922"/>
     </g>
    </g>
   </g>
   <g id="matplotlib.axis_2">
    <g id="ytick_1">
     <g id="line2d_17">
      <path d="M 90 379.415759 
L 648 379.415759 
" clip-path="url(#pd8520a5708)" style="fill: none; stroke: #b0b0b0; stroke-width: 0.8; stroke-linecap: square"/>
     </g>
     <g id="line2d_18">
      <defs>
       <path id="m00667d6fb6" d="M 0 0 
L -3.5 0 
" style="stroke: #000000; stroke-width: 0.8"/>
      </defs>
      <g>
       <use xlink:href="#m00667d6fb6" x="90" y="379.415759" style="stroke: #000000; stroke-width: 0.8"/>
      </g>
     </g>
     <g id="text_10">
      <!-- 0.0 -->
      <g transform="translate(55.964687 385.874431) scale(0.17 -0.17)">
       <defs>
        <path id="DejaVuSans-2e" d="M 684 794 
L 1344 794 
L 1344 0 
L 684 0 
L 684 794 
z
" transform="scale(0.015625)"/>
       </defs>
       <use xlink:href="#DejaVuSans-30"/>
       <use xlink:href="#DejaVuSans-2e" x="63.623047"/>
       <use xlink:href="#DejaVuSans-30" x="95.410156"/>
      </g>
     </g>
    </g>
    <g id="ytick_2">
     <g id="line2d_19">
      <path d="M 90 315.556982 
L 648 315.556982 
" clip-path="url(#pd8520a5708)" style="fill: none; stroke: #b0b0b0; stroke-width: 0.8; stroke-linecap: square"/>
     </g>
     <g id="line2d_20">
      <g>
       <use xlink:href="#m00667d6fb6" x="90" y="315.556982" style="stroke: #000000; stroke-width: 0.8"/>
      </g>
     </g>
     <g id="text_11">
      <!-- 0.2 -->
      <g transform="translate(55.964687 322.015654) scale(0.17 -0.17)">
       <use xlink:href="#DejaVuSans-30"/>
       <use xlink:href="#DejaVuSans-2e" x="63.623047"/>
       <use xlink:href="#DejaVuSans-32" x="95.410156"/>
      </g>
     </g>
    </g>
    <g id="ytick_3">
     <g id="line2d_21">
      <path d="M 90 251.698206 
L 648 251.698206 
" clip-path="url(#pd8520a5708)" style="fill: none; stroke: #b0b0b0; stroke-width: 0.8; stroke-linecap: square"/>
     </g>
     <g id="line2d_22">
      <g>
       <use xlink:href="#m00667d6fb6" x="90" y="251.698206" style="stroke: #000000; stroke-width: 0.8"/>
      </g>
     </g>
     <g id="text_12">
      <!-- 0.4 -->
      <g transform="translate(55.964687 258.156878) scale(0.17 -0.17)">
       <use xlink:href="#DejaVuSans-30"/>
       <use xlink:href="#DejaVuSans-2e" x="63.623047"/>
       <use xlink:href="#DejaVuSans-34" x="95.410156"/>
      </g>
     </g>
    </g>
    <g id="ytick_4">
     <g id="line2d_23">
      <path d="M 90 187.839429 
L 648 187.839429 
" clip-path="url(#pd8520a5708)" style="fill: none; stroke: #b0b0b0; stroke-width: 0.8; stroke-linecap: square"/>
     </g>
     <g id="line2d_24">
      <g>
       <use xlink:href="#m00667d6fb6" x="90" y="187.839429" style="stroke: #000000; stroke-width: 0.8"/>
      </g>
     </g>
     <g id="text_13">
      <!-- 0.6 -->
      <g transform="translate(55.964687 194.298101) scale(0.17 -0.17)">
       <use xlink:href="#DejaVuSans-30"/>
       <use xlink:href="#DejaVuSans-2e" x="63.623047"/>
       <use xlink:href="#DejaVuSans-36" x="95.410156"/>
      </g>
     </g>
    </g>
    <g id="ytick_5">
     <g id="line2d_25">
      <path d="M 90 123.980653 
L 648 123.980653 
" clip-path="url(#pd8520a5708)" style="fill: none; stroke: #b0b0b0; stroke-width: 0.8; stroke-linecap: square"/>
     </g>
     <g id="line2d_26">
      <g>
       <use xlink:href="#m00667d6fb6" x="90" y="123.980653" style="stroke: #000000; stroke-width: 0.8"/>
      </g>
     </g>
     <g id="text_14">
      <!-- 0.8 -->
      <g transform="translate(55.964687 130.439325) scale(0.17 -0.17)">
       <defs>
        <path id="DejaVuSans-38" d="M 2034 2216 
Q 1584 2216 1326 1975 
Q 1069 1734 1069 1313 
Q 1069 891 1326 650 
Q 1584 409 2034 409 
Q 2484 409 2743 651 
Q 3003 894 3003 1313 
Q 3003 1734 2745 1975 
Q 2488 2216 2034 2216 
z
M 1403 2484 
Q 997 2584 770 2862 
Q 544 3141 544 3541 
Q 544 4100 942 4425 
Q 1341 4750 2034 4750 
Q 2731 4750 3128 4425 
Q 3525 4100 3525 3541 
Q 3525 3141 3298 2862 
Q 3072 2584 2669 2484 
Q 3125 2378 3379 2068 
Q 3634 1759 3634 1313 
Q 3634 634 3220 271 
Q 2806 -91 2034 -91 
Q 1263 -91 848 271 
Q 434 634 434 1313 
Q 434 1759 690 2068 
Q 947 2378 1403 2484 
z
M 1172 3481 
Q 1172 3119 1398 2916 
Q 1625 2713 2034 2713 
Q 2441 2713 2670 2916 
Q 2900 3119 2900 3481 
Q 2900 3844 2670 4047 
Q 2441 4250 2034 4250 
Q 1625 4250 1398 4047 
Q 1172 3844 1172 3481 
z
" transform="scale(0.015625)"/>
       </defs>
       <use xlink:href="#DejaVuSans-30"/>
       <use xlink:href="#DejaVuSans-2e" x="63.623047"/>
       <use xlink:href="#DejaVuSans-38" x="95.410156"/>
      </g>
     </g>
    </g>
    <g id="ytick_6">
     <g id="line2d_27">
      <path d="M 90 60.121876 
L 648 60.121876 
" clip-path="url(#pd8520a5708)" style="fill: none; stroke: #b0b0b0; stroke-width: 0.8; stroke-linecap: square"/>
     </g>
     <g id="line2d_28">
      <g>
       <use xlink:href="#m00667d6fb6" x="90" y="60.121876" style="stroke: #000000; stroke-width: 0.8"/>
      </g>
     </g>
     <g id="text_15">
      <!-- 1.0 -->
      <g transform="translate(55.964687 66.580548) scale(0.17 -0.17)">
       <use xlink:href="#DejaVuSans-31"/>
       <use xlink:href="#DejaVuSans-2e" x="63.623047"/>
       <use xlink:href="#DejaVuSans-30" x="95.410156"/>
      </g>
     </g>
    </g>
    <g id="text_16">
     <!-- m-gate -->
     <g transform="translate(48.429219 248.673672) rotate(-90) scale(0.17 -0.17)">
      <defs>
       <path id="DejaVuSans-2d" d="M 313 2009 
L 1997 2009 
L 1997 1497 
L 313 1497 
L 313 2009 
z
" transform="scale(0.015625)"/>
       <path id="DejaVuSans-67" d="M 2906 1791 
Q 2906 2416 2648 2759 
Q 2391 3103 1925 3103 
Q 1463 3103 1205 2759 
Q 947 2416 947 1791 
Q 947 1169 1205 825 
Q 1463 481 1925 481 
Q 2391 481 2648 825 
Q 2906 1169 2906 1791 
z
M 3481 434 
Q 3481 -459 3084 -895 
Q 2688 -1331 1869 -1331 
Q 1566 -1331 1297 -1286 
Q 1028 -1241 775 -1147 
L 775 -588 
Q 1028 -725 1275 -790 
Q 1522 -856 1778 -856 
Q 2344 -856 2625 -561 
Q 2906 -266 2906 331 
L 2906 616 
Q 2728 306 2450 153 
Q 2172 0 1784 0 
Q 1141 0 747 490 
Q 353 981 353 1791 
Q 353 2603 747 3093 
Q 1141 3584 1784 3584 
Q 2172 3584 2450 3431 
Q 2728 3278 2906 2969 
L 2906 3500 
L 3481 3500 
L 3481 434 
z
" transform="scale(0.015625)"/>
      </defs>
      <use xlink:href="#DejaVuSans-6d"/>
      <use xlink:href="#DejaVuSans-2d" x="97.412109"/>
      <use xlink:href="#DejaVuSans-67" x="133.496094"/>
      <use xlink:href="#DejaVuSans-61" x="196.972656"/>
      <use xlink:href="#DejaVuSans-74" x="258.251953"/>
      <use xlink:href="#DejaVuSans-65" x="297.460938"/>
     </g>
    </g>
   </g>
   <g id="line2d_29">
    <path d="M 144.288372 362.51474 
L 144.950758 362.413435 
L 148.170459 361.425857 
L 154.095176 359.414175 
L 155.834193 358.750065 
L 154.246348 359.262021 
L 153.464115 359.455853 
L 143.48816 362.751009 
L 144.558012 362.514224 
L 145.614651 362.311252 
L 148.937817 361.301178 
L 155.385338 359.12437 
L 161.297163 356.895589 
L 166.046948 354.880191 
L 166.613712 354.585992 
L 165.769966 354.88809 
L 162.057386 356.424592 
L 162.094421 356.238453 
L 160.797018 356.6303 
L 147.290907 361.494643 
L 142.645525 362.996629 
L 144.290066 362.51424 
L 145.358041 362.45557 
L 147.462115 361.96282 
L 152.088291 360.520241 
L 158.497116 358.297999 
L 164.977205 355.80915 
L 170.94061 353.282476 
L 176.643742 350.628868 
L 182.054469 347.859959 
L 186.443372 345.369861 
L 188.797752 343.810734 
L 188.93947 343.626504 
L 188.85503 343.623344 
L 188.216544 343.865557 
L 185.612252 345.150993 
L 171.895667 352.280687 
L 172.197111 352.182563 
L 174.542983 351.12732 
L 176.214832 350.274708 
L 175.855812 350.429601 
L 174.769759 350.518018 
L 173.170853 351.023774 
L 170.022933 352.385211 
L 161.72603 356.000282 
L 154.948559 358.686477 
L 148.21751 361.104118 
L 140.821049 363.517392 
L 144.290067 362.514242 
L 145.361669 362.51424 
L 147.484664 362.204724 
L 150.634575 361.399397 
L 155.817576 359.765122 
L 161.947042 357.603987 
L 167.996332 355.265643 
L 173.988439 352.741762 
L 179.95344 350.015056 
L 185.93034 347.061094 
L 191.969667 343.845674 
L 198.137661 340.320554 
L 204.523246 336.416746 
L 211.249917 332.033557 
L 218.496695 327.019726 
L 226.536608 321.139302 
L 234.15299 315.305613 
L 243.036322 308.243652 
L 253.875219 299.353941 
L 267.880344 287.597171 
L 332.445355 233.041821 
L 351.759051 217.130249 
L 374.855052 198.447207 
L 401.624848 177.241346 
L 430.749386 154.591187 
L 459.103009 132.549953 
L 471.546516 122.549895 
L 481.979396 113.61048 
L 489.827864 105.925043 
L 494.655291 99.590873 
L 496.206848 94.616024 
L 494.423081 90.943757 
L 489.425002 88.484734 
L 481.479952 87.147412 
L 470.958812 86.86083 
L 458.293015 87.58814 
L 443.936461 89.33181 
L 428.334685 92.132299 
L 411.901758 96.06173 
L 395.004367 101.213564 
L 377.952111 107.689035 
L 360.993067 115.581242 
L 344.313936 124.958227 
L 328.044406 135.846808 
L 312.265409 148.218992 
L 297.020633 161.982434 
L 282.330104 176.975678 
L 268.204075 192.968314 
L 254.655132 209.666048 
L 241.70653 226.721022 
L 229.39533 243.748184 
L 217.769902 260.348377 
L 196.780514 290.778548 
L 187.495064 304.011578 
L 179.036737 315.674205 
L 171.392768 325.7086 
L 164.52972 334.153292 
L 158.398739 341.123028 
L 152.941696 346.782475 
L 148.096739 351.319928 
L 143.802475 354.925507 
L 140.000675 357.775942 
L 136.637735 360.025979 
L 133.665257 361.805145 
L 128.72404 364.347768 
L 124.888807 365.99683 
L 120.735974 367.51643 
L 115.363636 369.335732 
L 115.504036 369.36 
L 116.609456 369.25067 
L 121.033795 368.520835 
L 127.88782 367.166236 
L 135.073655 365.534434 
L 142.714222 363.558868 
L 149.757186 361.501695 
L 156.82751 359.189026 
L 163.070112 356.924479 
L 169.236755 354.467637 
L 175.308289 351.821589 
L 181.276684 348.988207 
L 187.141416 345.96811 
L 192.90586 342.761121 
L 198.573348 339.367491 
L 204.142405 335.79033 
L 209.60037 332.039907 
L 214.914248 328.140898 
L 220.017163 324.144181 
L 224.788538 320.145262 
L 229.026957 316.311123 
L 232.054929 313.302516 
L 233.9142 311.189604 
L 234.770399 309.921764 
L 234.916021 309.440604 
L 234.839969 309.256451 
L 234.614896 309.192703 
L 233.980136 309.342327 
L 232.545077 310.039531 
L 230.410001 311.343292 
L 226.767719 313.835187 
L 220.073073 318.754676 
L 197.064079 335.964854 
L 189.261588 341.404049 
L 182.561228 345.795739 
L 174.238451 351.175971 
L 174.259145 351.186259 
L 174.619443 351.124799 
L 176.141322 350.556418 
L 179.692623 348.968465 
L 180.209834 348.722639 
L 179.401231 348.5965 
L 177.831856 348.774329 
L 176.304153 349.257944 
L 173.3337 350.54162 
L 162.086936 355.671039 
L 155.801887 358.240926 
L 149.203688 360.686454 
L 142.438934 362.941812 
L 139.276655 363.946401 
L 141.661506 363.303655 
L 144.45363 362.465568 
L 144.290156 362.514216 
L 146.433351 362.514214 
L 148.562031 362.27872 
L 152.787327 361.403548 
L 156.980908 360.23617 
L 163.230516 358.195047 
L 169.452642 355.911504 
L 175.673688 353.408075 
L 181.926665 350.673432 
L 188.254454 347.681873 
L 194.713458 344.395927 
L 201.378612 340.763616 
L 208.35089 336.712604 
L 215.769037 332.140755 
L 223.828688 326.901061 
L 232.814639 320.77694 
L 243.157511 313.440319 
L 255.537372 304.378199 
L 277.267822 288.104199 
L 310.008629 263.560076 
L 333.716654 246.164639 
L 348.313173 235.682412 
L 365.189054 223.803693 
L 384.696115 210.410145 
L 407.130599 195.468029 
L 432.626353 179.099305 
L 460.996694 161.663507 
L 491.548514 143.814766 
L 522.943011 126.47391 
L 553.22366 110.666347 
L 601.475053 86.689993 
L 615.857616 78.947793 
L 622.636364 73.63997 
L 621.969799 70.231597 
L 614.558779 68.216839 
L 601.407213 67.20907 
L 583.641809 66.96 
L 562.392601 67.344003 
L 538.717107 68.334191 
L 513.554063 69.981887 
L 487.698773 72.401321 
L 461.795211 75.757076 
L 436.340552 80.25067 
L 411.697541 86.10327 
L 388.110348 93.533064 
L 365.720993 102.728049 
L 344.585686 113.817271 
L 324.692374 126.845094 
L 305.981066 141.752834 
L 288.366907 158.370169 
L 271.763778 176.416243 
L 256.10474 195.509018 
L 241.355561 215.182027 
L 227.518665 234.909389 
L 214.626832 254.140895 
L 182.073546 303.971689 
L 173.33671 316.859276 
L 165.620769 327.696181 
L 158.861322 336.579233 
L 152.976787 343.701976 
L 147.878141 349.31146 
L 143.476618 353.669536 
L 139.688672 357.024584 
L 136.438532 359.594912 
L 133.659062 361.562042 
L 129.285377 364.23313 
L 125.024949 366.386347 
L 121.905606 367.906453 
L 121.928336 368.037984 
L 122.646508 368.041758 
L 125.208635 367.681084 
L 130.73426 366.626506 
L 137.694191 365.062327 
L 144.379251 363.352227 
L 151.489216 361.306284 
L 158.868324 358.919543 
L 165.144201 356.663574 
L 171.49016 354.157149 
L 177.882378 351.390588 
L 184.314161 348.350336 
L 190.796447 345.016612 
L 197.359217 341.360049 
L 204.054229 337.337025 
L 210.959927 332.882984 
L 218.190062 327.90247 
L 225.908825 322.253456 
L 234.357591 315.72144 
L 241.882478 309.642895 
L 250.385373 302.535679 
L 260.282129 294.022115 
L 275.610927 280.506822 
L 306.623342 252.711614 
L 332.784657 229.336291 
L 358.10485 206.963773 
L 420.070406 152.516157 
L 429.893328 143.518827 
L 438.734073 135.038155 
L 446.215758 127.262761 
L 451.988721 120.349702 
L 455.763489 114.413126 
L 457.337273 109.521073 
L 456.609526 105.700595 
L 453.584926 102.94901 
L 448.365006 101.247927 
L 441.131541 100.576728 
L 432.125422 100.923188 
L 421.624333 102.290062 
L 409.921729 104.697401 
L 397.30863 108.180936 
L 384.059013 112.787093 
L 370.419045 118.565364 
L 356.600119 125.558901 
L 342.775547 133.794332 
L 329.080656 143.271909 
L 315.615969 153.957046 
L 302.452943 165.774084 
L 289.641479 178.602821 
L 277.218177 192.277986 
L 265.214156 206.591761 
L 253.661277 221.29944 
L 242.595824 236.128511 
L 232.059142 250.791375 
L 212.746672 278.492213 
L 196.023429 302.456838 
L 188.679946 312.648621 
L 182.010132 321.569496 
L 175.991992 329.240654 
L 170.592367 335.733871 
L 165.77061 341.156393 
L 161.48211 345.635367 
L 157.681187 349.30417 
L 154.323191 352.291992 
L 151.36585 354.716993 
L 146.499963 358.276775 
L 142.811498 360.626293 
L 138.132865 363.242875 
L 135.847329 364.558097 
L 135.719952 364.759777 
L 135.938057 364.838388 
L 136.802389 364.774807 
L 139.357962 364.298407 
L 144.582189 363.044142 
L 151.056001 361.236421 
L 157.236326 359.293128 
L 163.789286 357.001906 
L 170.580308 354.366711 
L 176.356389 351.906308 
L 182.205193 349.200562 
L 188.113067 346.240665 
L 194.082595 343.012183 
L 200.132751 339.492702 
L 206.300032 335.64861 
L 212.641008 331.430651 
L 219.237089 326.767556 
L 226.202872 321.556512 
L 233.700412 315.648274 
L 241.963499 308.823115 
L 251.339151 300.750992 
L 262.358734 290.924974 
L 275.857203 278.552599 
L 293.151945 262.399287 
L 333.692643 224.117277 
L 361.585996 197.604586 
L 376.849565 182.869179 
L 384.493507 175.345899 
L 391.948634 167.847669 
L 399.032466 160.489836 
L 405.541387 153.397046 
L 411.260558 146.696452 
L 415.97694 140.510177 
L 419.494044 134.948238 
L 421.646504 130.103248 
L 422.31241 126.047799 
L 421.42173 122.83484 
L 418.959835 120.500678 
L 414.966057 119.069697 
L 409.527951 118.559643 
L 402.772402 118.98642 
L 394.85494 120.367545 
L 385.948507 122.723796 
L 376.232729 126.078875 
L 365.884469 130.457195 
L 355.070167 135.880086 
L 343.940276 142.360895 
L 332.625926 149.899515 
L 321.237789 158.476929 
L 309.86698 168.050308 
L 298.587652 178.549129 
L 287.460809 189.872635 
L 276.538689 201.888941 
L 265.86903 214.436023 
L 255.498508 227.324902 
L 245.474758 240.345335 
L 235.84665 253.274237 
L 217.96866 277.968956 
L 202.194916 299.823208 
L 195.160733 309.336335 
L 188.704009 317.814379 
L 182.815812 325.248781 
L 177.476722 331.673166 
L 172.65941 337.153909 
L 168.33137 341.779315 
L 164.457375 345.649152 
L 161.001459 348.8658 
L 157.928352 351.527621 
L 152.798276 355.536272 
L 148.825885 358.26457 
L 144.60643 360.832682 
L 140.436627 363.279618 
L 140.269331 363.50483 
L 140.434561 363.602948 
L 141.203314 363.561096 
L 142.485154 363.337164 
L 140.865415 363.228152 
L 139.34429 363.332295 
L 136.569807 363.847811 
L 131.936656 365.115001 
L 123.705195 367.407533 
L 117.243122 369.018146 
L 118.95877 368.740296 
L 125.495281 367.415498 
L 132.821208 365.71247 
L 139.811768 363.860911 
L 145.008132 362.299559 
L 144.290231 362.514187 
" clip-path="url(#pd8520a5708)" style="fill: none; stroke: #1f77b4; stroke-width: 1.5; stroke-linecap: square"/>
   </g>
   <g id="patch_3">
    <path d="M 90 384.48 
L 90 51.84 
" style="fill: none; stroke: #000000; stroke-width: 0.8; stroke-linejoin: miter; stroke-linecap: square"/>
   </g>
   <g id="patch_4">
    <path d="M 648 384.48 
L 648 51.84 
" style="fill: none; stroke: #000000; stroke-width: 0.8; stroke-linejoin: miter; stroke-linecap: square"/>
   </g>
   <g id="patch_5">
    <path d="M 90 384.48 
L 648 384.48 
" style="fill: none; stroke: #000000; stroke-width: 0.8; stroke-linejoin: miter; stroke-linecap: square"/>
   </g>
   <g id="patch_6">
    <path d="M 90 51.84 
L 648 51.84 
" style="fill: none; stroke: #000000; stroke-width: 0.8; stroke-linejoin: miter; stroke-linecap: square"/>
   </g>
   <g id="text_17">
    <!-- Phase Plot (28°C) -->
    <g transform="translate(279.676688 45.84) scale(0.204 -0.204)">
     <defs>
      <path id="DejaVuSans-68" d="M 3513 2113 
L 3513 0 
L 2938 0 
L 2938 2094 
Q 2938 2591 2744 2837 
Q 2550 3084 2163 3084 
Q 1697 3084 1428 2787 
Q 1159 2491 1159 1978 
L 1159 0 
L 581 0 
L 581 4863 
L 1159 4863 
L 1159 2956 
Q 1366 3272 1645 3428 
Q 1925 3584 2291 3584 
Q 2894 3584 3203 3211 
Q 3513 2838 3513 2113 
z
" transform="scale(0.015625)"/>
      <path id="DejaVuSans-73" d="M 2834 3397 
L 2834 2853 
Q 2591 2978 2328 3040 
Q 2066 3103 1784 3103 
Q 1356 3103 1142 2972 
Q 928 2841 928 2578 
Q 928 2378 1081 2264 
Q 1234 2150 1697 2047 
L 1894 2003 
Q 2506 1872 2764 1633 
Q 3022 1394 3022 966 
Q 3022 478 2636 193 
Q 2250 -91 1575 -91 
Q 1294 -91 989 -36 
Q 684 19 347 128 
L 347 722 
Q 666 556 975 473 
Q 1284 391 1588 391 
Q 1994 391 2212 530 
Q 2431 669 2431 922 
Q 2431 1156 2273 1281 
Q 2116 1406 1581 1522 
L 1381 1569 
Q 847 1681 609 1914 
Q 372 2147 372 2553 
Q 372 3047 722 3315 
Q 1072 3584 1716 3584 
Q 2034 3584 2315 3537 
Q 2597 3491 2834 3397 
z
" transform="scale(0.015625)"/>
      <path id="DejaVuSans-b0" d="M 1600 4347 
Q 1350 4347 1178 4173 
Q 1006 4000 1006 3750 
Q 1006 3503 1178 3333 
Q 1350 3163 1600 3163 
Q 1850 3163 2022 3333 
Q 2194 3503 2194 3750 
Q 2194 3997 2020 4172 
Q 1847 4347 1600 4347 
z
M 1600 4750 
Q 1800 4750 1984 4673 
Q 2169 4597 2303 4453 
Q 2447 4313 2519 4134 
Q 2591 3956 2591 3750 
Q 2591 3338 2302 3052 
Q 2013 2766 1594 2766 
Q 1172 2766 890 3047 
Q 609 3328 609 3750 
Q 609 4169 896 4459 
Q 1184 4750 1600 4750 
z
" transform="scale(0.015625)"/>
      <path id="DejaVuSans-43" d="M 4122 4306 
L 4122 3641 
Q 3803 3938 3442 4084 
Q 3081 4231 2675 4231 
Q 1875 4231 1450 3742 
Q 1025 3253 1025 2328 
Q 1025 1406 1450 917 
Q 1875 428 2675 428 
Q 3081 428 3442 575 
Q 3803 722 4122 1019 
L 4122 359 
Q 3791 134 3420 21 
Q 3050 -91 2638 -91 
Q 1578 -91 968 557 
Q 359 1206 359 2328 
Q 359 3453 968 4101 
Q 1578 4750 2638 4750 
Q 3056 4750 3426 4639 
Q 3797 4528 4122 4306 
z
" transform="scale(0.015625)"/>
     </defs>
     <use xlink:href="#DejaVuSans-50"/>
     <use xlink:href="#DejaVuSans-68" x="60.302734"/>
     <use xlink:href="#DejaVuSans-61" x="123.681641"/>
     <use xlink:href="#DejaVuSans-73" x="184.960938"/>
     <use xlink:href="#DejaVuSans-65" x="237.060547"/>
     <use xlink:href="#DejaVuSans-20" x="298.583984"/>
     <use xlink:href="#DejaVuSans-50" x="330.371094"/>
     <use xlink:href="#DejaVuSans-6c" x="390.673828"/>
     <use xlink:href="#DejaVuSans-6f" x="418.457031"/>
     <use xlink:href="#DejaVuSans-74" x="479.638672"/>
     <use xlink:href="#DejaVuSans-20" x="518.847656"/>
     <use xlink:href="#DejaVuSans-28" x="550.634766"/>
     <use xlink:href="#DejaVuSans-32" x="589.648438"/>
     <use xlink:href="#DejaVuSans-38" x="653.271484"/>
     <use xlink:href="#DejaVuSans-b0" x="716.894531"/>
     <use xlink:href="#DejaVuSans-43" x="766.894531"/>
     <use xlink:href="#DejaVuSans-29" x="836.71875"/>
    </g>
   </g>
  </g>
 </g>
 <defs>
  <clipPath id="pd8520a5708">
   <rect x="90" y="51.84" width="558" height="332.64"/>
  </clipPath>
 </defs>
</svg>
