<?xml version="1.0" encoding="utf-8" standalone="no"?>
<!DOCTYPE svg PUBLIC "-//W3C//DTD SVG 1.1//EN"
  "http://www.w3.org/Graphics/SVG/1.1/DTD/svg11.dtd">
<svg xmlns:xlink="http://www.w3.org/1999/xlink" width="720pt" height="432pt" viewBox="0 0 720 432" xmlns="http://www.w3.org/2000/svg" version="1.1">
 <metadata>
  <rdf:RDF xmlns:dc="http://purl.org/dc/elements/1.1/" xmlns:cc="http://creativecommons.org/ns#" xmlns:rdf="http://www.w3.org/1999/02/22-rdf-syntax-ns#">
   <cc:Work>
    <dc:type rdf:resource="http://purl.org/dc/dcmitype/StillImage"/>
    <dc:date>2024-12-08T22:42:02.395914</dc:date>
    <dc:format>image/svg+xml</dc:format>
    <dc:creator>
     <cc:Agent>
      <dc:title>Matplotlib v3.9.2, https://matplotlib.org/</dc:title>
     </cc:Agent>
    </dc:creator>
   </cc:Work>
  </rdf:RDF>
 </metadata>
 <defs>
  <style type="text/css">*{stroke-linejoin: round; stroke-linecap: butt}</style>
 </defs>
 <g id="figure_1">
  <g id="patch_1">
   <path d="M 0 432 
L 720 432 
L 720 0 
L 0 0 
z
" style="fill: #ffffff"/>
  </g>
  <g id="axes_1">
   <g id="patch_2">
    <path d="M 90 384.48 
L 648 384.48 
L 648 51.84 
L 90 51.84 
z
" style="fill: #ffffff"/>
   </g>
   <g id="matplotlib.axis_1">
    <g id="xtick_1">
     <g id="line2d_1">
      <path d="M 165.009343 384.48 
L 165.009343 51.84 
" clip-path="url(#p098438dc73)" style="fill: none; stroke: #b0b0b0; stroke-width: 0.8; stroke-linecap: square"/>
     </g>
     <g id="line2d_2">
      <defs>
       <path id="m4a5b2c65f0" d="M 0 0 
L 0 3.5 
" style="stroke: #000000; stroke-width: 0.8"/>
      </defs>
      <g>
       <use xlink:href="#m4a5b2c65f0" x="165.009343" y="384.48" style="stroke: #000000; stroke-width: 0.8"/>
      </g>
     </g>
     <g id="text_1">
      <!-- 0 -->
      <g transform="translate(159.601218 404.397344) scale(0.17 -0.17)">
       <defs>
        <path id="DejaVuSans-30" d="M 2034 4250 
Q 1547 4250 1301 3770 
Q 1056 3291 1056 2328 
Q 1056 1369 1301 889 
Q 1547 409 2034 409 
Q 2525 409 2770 889 
Q 3016 1369 3016 2328 
Q 3016 3291 2770 3770 
Q 2525 4250 2034 4250 
z
M 2034 4750 
Q 2819 4750 3233 4129 
Q 3647 3509 3647 2328 
Q 3647 1150 3233 529 
Q 2819 -91 2034 -91 
Q 1250 -91 836 529 
Q 422 1150 422 2328 
Q 422 3509 836 4129 
Q 1250 4750 2034 4750 
z
" transform="scale(0.015625)"/>
       </defs>
       <use xlink:href="#DejaVuSans-30"/>
      </g>
     </g>
    </g>
    <g id="xtick_2">
     <g id="line2d_3">
      <path d="M 253.855143 384.48 
L 253.855143 51.84 
" clip-path="url(#p098438dc73)" style="fill: none; stroke: #b0b0b0; stroke-width: 0.8; stroke-linecap: square"/>
     </g>
     <g id="line2d_4">
      <g>
       <use xlink:href="#m4a5b2c65f0" x="253.855143" y="384.48" style="stroke: #000000; stroke-width: 0.8"/>
      </g>
     </g>
     <g id="text_2">
      <!-- 20 -->
      <g transform="translate(243.038893 404.397344) scale(0.17 -0.17)">
       <defs>
        <path id="DejaVuSans-32" d="M 1228 531 
L 3431 531 
L 3431 0 
L 469 0 
L 469 531 
Q 828 903 1448 1529 
Q 2069 2156 2228 2338 
Q 2531 2678 2651 2914 
Q 2772 3150 2772 3378 
Q 2772 3750 2511 3984 
Q 2250 4219 1831 4219 
Q 1534 4219 1204 4116 
Q 875 4013 500 3803 
L 500 4441 
Q 881 4594 1212 4672 
Q 1544 4750 1819 4750 
Q 2544 4750 2975 4387 
Q 3406 4025 3406 3419 
Q 3406 3131 3298 2873 
Q 3191 2616 2906 2266 
Q 2828 2175 2409 1742 
Q 1991 1309 1228 531 
z
" transform="scale(0.015625)"/>
       </defs>
       <use xlink:href="#DejaVuSans-32"/>
       <use xlink:href="#DejaVuSans-30" x="63.623047"/>
      </g>
     </g>
    </g>
    <g id="xtick_3">
     <g id="line2d_5">
      <path d="M 342.700944 384.48 
L 342.700944 51.84 
" clip-path="url(#p098438dc73)" style="fill: none; stroke: #b0b0b0; stroke-width: 0.8; stroke-linecap: square"/>
     </g>
     <g id="line2d_6">
      <g>
       <use xlink:href="#m4a5b2c65f0" x="342.700944" y="384.48" style="stroke: #000000; stroke-width: 0.8"/>
      </g>
     </g>
     <g id="text_3">
      <!-- 40 -->
      <g transform="translate(331.884694 404.397344) scale(0.17 -0.17)">
       <defs>
        <path id="DejaVuSans-34" d="M 2419 4116 
L 825 1625 
L 2419 1625 
L 2419 4116 
z
M 2253 4666 
L 3047 4666 
L 3047 1625 
L 3713 1625 
L 3713 1100 
L 3047 1100 
L 3047 0 
L 2419 0 
L 2419 1100 
L 313 1100 
L 313 1709 
L 2253 4666 
z
" transform="scale(0.015625)"/>
       </defs>
       <use xlink:href="#DejaVuSans-34"/>
       <use xlink:href="#DejaVuSans-30" x="63.623047"/>
      </g>
     </g>
    </g>
    <g id="xtick_4">
     <g id="line2d_7">
      <path d="M 431.546744 384.48 
L 431.546744 51.84 
" clip-path="url(#p098438dc73)" style="fill: none; stroke: #b0b0b0; stroke-width: 0.8; stroke-linecap: square"/>
     </g>
     <g id="line2d_8">
      <g>
       <use xlink:href="#m4a5b2c65f0" x="431.546744" y="384.48" style="stroke: #000000; stroke-width: 0.8"/>
      </g>
     </g>
     <g id="text_4">
      <!-- 60 -->
      <g transform="translate(420.730494 404.397344) scale(0.17 -0.17)">
       <defs>
        <path id="DejaVuSans-36" d="M 2113 2584 
Q 1688 2584 1439 2293 
Q 1191 2003 1191 1497 
Q 1191 994 1439 701 
Q 1688 409 2113 409 
Q 2538 409 2786 701 
Q 3034 994 3034 1497 
Q 3034 2003 2786 2293 
Q 2538 2584 2113 2584 
z
M 3366 4563 
L 3366 3988 
Q 3128 4100 2886 4159 
Q 2644 4219 2406 4219 
Q 1781 4219 1451 3797 
Q 1122 3375 1075 2522 
Q 1259 2794 1537 2939 
Q 1816 3084 2150 3084 
Q 2853 3084 3261 2657 
Q 3669 2231 3669 1497 
Q 3669 778 3244 343 
Q 2819 -91 2113 -91 
Q 1303 -91 875 529 
Q 447 1150 447 2328 
Q 447 3434 972 4092 
Q 1497 4750 2381 4750 
Q 2619 4750 2861 4703 
Q 3103 4656 3366 4563 
z
" transform="scale(0.015625)"/>
       </defs>
       <use xlink:href="#DejaVuSans-36"/>
       <use xlink:href="#DejaVuSans-30" x="63.623047"/>
      </g>
     </g>
    </g>
    <g id="xtick_5">
     <g id="line2d_9">
      <path d="M 520.392545 384.48 
L 520.392545 51.84 
" clip-path="url(#p098438dc73)" style="fill: none; stroke: #b0b0b0; stroke-width: 0.8; stroke-linecap: square"/>
     </g>
     <g id="line2d_10">
      <g>
       <use xlink:href="#m4a5b2c65f0" x="520.392545" y="384.48" style="stroke: #000000; stroke-width: 0.8"/>
      </g>
     </g>
     <g id="text_5">
      <!-- 80 -->
      <g transform="translate(509.576295 404.397344) scale(0.17 -0.17)">
       <defs>
        <path id="DejaVuSans-38" d="M 2034 2216 
Q 1584 2216 1326 1975 
Q 1069 1734 1069 1313 
Q 1069 891 1326 650 
Q 1584 409 2034 409 
Q 2484 409 2743 651 
Q 3003 894 3003 1313 
Q 3003 1734 2745 1975 
Q 2488 2216 2034 2216 
z
M 1403 2484 
Q 997 2584 770 2862 
Q 544 3141 544 3541 
Q 544 4100 942 4425 
Q 1341 4750 2034 4750 
Q 2731 4750 3128 4425 
Q 3525 4100 3525 3541 
Q 3525 3141 3298 2862 
Q 3072 2584 2669 2484 
Q 3125 2378 3379 2068 
Q 3634 1759 3634 1313 
Q 3634 634 3220 271 
Q 2806 -91 2034 -91 
Q 1263 -91 848 271 
Q 434 634 434 1313 
Q 434 1759 690 2068 
Q 947 2378 1403 2484 
z
M 1172 3481 
Q 1172 3119 1398 2916 
Q 1625 2713 2034 2713 
Q 2441 2713 2670 2916 
Q 2900 3119 2900 3481 
Q 2900 3844 2670 4047 
Q 2441 4250 2034 4250 
Q 1625 4250 1398 4047 
Q 1172 3844 1172 3481 
z
" transform="scale(0.015625)"/>
       </defs>
       <use xlink:href="#DejaVuSans-38"/>
       <use xlink:href="#DejaVuSans-30" x="63.623047"/>
      </g>
     </g>
    </g>
    <g id="xtick_6">
     <g id="line2d_11">
      <path d="M 609.238345 384.48 
L 609.238345 51.84 
" clip-path="url(#p098438dc73)" style="fill: none; stroke: #b0b0b0; stroke-width: 0.8; stroke-linecap: square"/>
     </g>
     <g id="line2d_12">
      <g>
       <use xlink:href="#m4a5b2c65f0" x="609.238345" y="384.48" style="stroke: #000000; stroke-width: 0.8"/>
      </g>
     </g>
     <g id="text_6">
      <!-- 100 -->
      <g transform="translate(593.01397 404.397344) scale(0.17 -0.17)">
       <defs>
        <path id="DejaVuSans-31" d="M 794 531 
L 1825 531 
L 1825 4091 
L 703 3866 
L 703 4441 
L 1819 4666 
L 2450 4666 
L 2450 531 
L 3481 531 
L 3481 0 
L 794 0 
L 794 531 
z
" transform="scale(0.015625)"/>
       </defs>
       <use xlink:href="#DejaVuSans-31"/>
       <use xlink:href="#DejaVuSans-30" x="63.623047"/>
       <use xlink:href="#DejaVuSans-30" x="127.246094"/>
      </g>
     </g>
    </g>
    <g id="text_7">
     <!-- Membrane Potential (mV) -->
     <g transform="translate(260.079141 424.850156) scale(0.17 -0.17)">
      <defs>
       <path id="DejaVuSans-4d" d="M 628 4666 
L 1569 4666 
L 2759 1491 
L 3956 4666 
L 4897 4666 
L 4897 0 
L 4281 0 
L 4281 4097 
L 3078 897 
L 2444 897 
L 1241 4097 
L 1241 0 
L 628 0 
L 628 4666 
z
" transform="scale(0.015625)"/>
       <path id="DejaVuSans-65" d="M 3597 1894 
L 3597 1613 
L 953 1613 
Q 991 1019 1311 708 
Q 1631 397 2203 397 
Q 2534 397 2845 478 
Q 3156 559 3463 722 
L 3463 178 
Q 3153 47 2828 -22 
Q 2503 -91 2169 -91 
Q 1331 -91 842 396 
Q 353 884 353 1716 
Q 353 2575 817 3079 
Q 1281 3584 2069 3584 
Q 2775 3584 3186 3129 
Q 3597 2675 3597 1894 
z
M 3022 2063 
Q 3016 2534 2758 2815 
Q 2500 3097 2075 3097 
Q 1594 3097 1305 2825 
Q 1016 2553 972 2059 
L 3022 2063 
z
" transform="scale(0.015625)"/>
       <path id="DejaVuSans-6d" d="M 3328 2828 
Q 3544 3216 3844 3400 
Q 4144 3584 4550 3584 
Q 5097 3584 5394 3201 
Q 5691 2819 5691 2113 
L 5691 0 
L 5113 0 
L 5113 2094 
Q 5113 2597 4934 2840 
Q 4756 3084 4391 3084 
Q 3944 3084 3684 2787 
Q 3425 2491 3425 1978 
L 3425 0 
L 2847 0 
L 2847 2094 
Q 2847 2600 2669 2842 
Q 2491 3084 2119 3084 
Q 1678 3084 1418 2786 
Q 1159 2488 1159 1978 
L 1159 0 
L 581 0 
L 581 3500 
L 1159 3500 
L 1159 2956 
Q 1356 3278 1631 3431 
Q 1906 3584 2284 3584 
Q 2666 3584 2933 3390 
Q 3200 3197 3328 2828 
z
" transform="scale(0.015625)"/>
       <path id="DejaVuSans-62" d="M 3116 1747 
Q 3116 2381 2855 2742 
Q 2594 3103 2138 3103 
Q 1681 3103 1420 2742 
Q 1159 2381 1159 1747 
Q 1159 1113 1420 752 
Q 1681 391 2138 391 
Q 2594 391 2855 752 
Q 3116 1113 3116 1747 
z
M 1159 2969 
Q 1341 3281 1617 3432 
Q 1894 3584 2278 3584 
Q 2916 3584 3314 3078 
Q 3713 2572 3713 1747 
Q 3713 922 3314 415 
Q 2916 -91 2278 -91 
Q 1894 -91 1617 61 
Q 1341 213 1159 525 
L 1159 0 
L 581 0 
L 581 4863 
L 1159 4863 
L 1159 2969 
z
" transform="scale(0.015625)"/>
       <path id="DejaVuSans-72" d="M 2631 2963 
Q 2534 3019 2420 3045 
Q 2306 3072 2169 3072 
Q 1681 3072 1420 2755 
Q 1159 2438 1159 1844 
L 1159 0 
L 581 0 
L 581 3500 
L 1159 3500 
L 1159 2956 
Q 1341 3275 1631 3429 
Q 1922 3584 2338 3584 
Q 2397 3584 2469 3576 
Q 2541 3569 2628 3553 
L 2631 2963 
z
" transform="scale(0.015625)"/>
       <path id="DejaVuSans-61" d="M 2194 1759 
Q 1497 1759 1228 1600 
Q 959 1441 959 1056 
Q 959 750 1161 570 
Q 1363 391 1709 391 
Q 2188 391 2477 730 
Q 2766 1069 2766 1631 
L 2766 1759 
L 2194 1759 
z
M 3341 1997 
L 3341 0 
L 2766 0 
L 2766 531 
Q 2569 213 2275 61 
Q 1981 -91 1556 -91 
Q 1019 -91 701 211 
Q 384 513 384 1019 
Q 384 1609 779 1909 
Q 1175 2209 1959 2209 
L 2766 2209 
L 2766 2266 
Q 2766 2663 2505 2880 
Q 2244 3097 1772 3097 
Q 1472 3097 1187 3025 
Q 903 2953 641 2809 
L 641 3341 
Q 956 3463 1253 3523 
Q 1550 3584 1831 3584 
Q 2591 3584 2966 3190 
Q 3341 2797 3341 1997 
z
" transform="scale(0.015625)"/>
       <path id="DejaVuSans-6e" d="M 3513 2113 
L 3513 0 
L 2938 0 
L 2938 2094 
Q 2938 2591 2744 2837 
Q 2550 3084 2163 3084 
Q 1697 3084 1428 2787 
Q 1159 2491 1159 1978 
L 1159 0 
L 581 0 
L 581 3500 
L 1159 3500 
L 1159 2956 
Q 1366 3272 1645 3428 
Q 1925 3584 2291 3584 
Q 2894 3584 3203 3211 
Q 3513 2838 3513 2113 
z
" transform="scale(0.015625)"/>
       <path id="DejaVuSans-20" transform="scale(0.015625)"/>
       <path id="DejaVuSans-50" d="M 1259 4147 
L 1259 2394 
L 2053 2394 
Q 2494 2394 2734 2622 
Q 2975 2850 2975 3272 
Q 2975 3691 2734 3919 
Q 2494 4147 2053 4147 
L 1259 4147 
z
M 628 4666 
L 2053 4666 
Q 2838 4666 3239 4311 
Q 3641 3956 3641 3272 
Q 3641 2581 3239 2228 
Q 2838 1875 2053 1875 
L 1259 1875 
L 1259 0 
L 628 0 
L 628 4666 
z
" transform="scale(0.015625)"/>
       <path id="DejaVuSans-6f" d="M 1959 3097 
Q 1497 3097 1228 2736 
Q 959 2375 959 1747 
Q 959 1119 1226 758 
Q 1494 397 1959 397 
Q 2419 397 2687 759 
Q 2956 1122 2956 1747 
Q 2956 2369 2687 2733 
Q 2419 3097 1959 3097 
z
M 1959 3584 
Q 2709 3584 3137 3096 
Q 3566 2609 3566 1747 
Q 3566 888 3137 398 
Q 2709 -91 1959 -91 
Q 1206 -91 779 398 
Q 353 888 353 1747 
Q 353 2609 779 3096 
Q 1206 3584 1959 3584 
z
" transform="scale(0.015625)"/>
       <path id="DejaVuSans-74" d="M 1172 4494 
L 1172 3500 
L 2356 3500 
L 2356 3053 
L 1172 3053 
L 1172 1153 
Q 1172 725 1289 603 
Q 1406 481 1766 481 
L 2356 481 
L 2356 0 
L 1766 0 
Q 1100 0 847 248 
Q 594 497 594 1153 
L 594 3053 
L 172 3053 
L 172 3500 
L 594 3500 
L 594 4494 
L 1172 4494 
z
" transform="scale(0.015625)"/>
       <path id="DejaVuSans-69" d="M 603 3500 
L 1178 3500 
L 1178 0 
L 603 0 
L 603 3500 
z
M 603 4863 
L 1178 4863 
L 1178 4134 
L 603 4134 
L 603 4863 
z
" transform="scale(0.015625)"/>
       <path id="DejaVuSans-6c" d="M 603 4863 
L 1178 4863 
L 1178 0 
L 603 0 
L 603 4863 
z
" transform="scale(0.015625)"/>
       <path id="DejaVuSans-28" d="M 1984 4856 
Q 1566 4138 1362 3434 
Q 1159 2731 1159 2009 
Q 1159 1288 1364 580 
Q 1569 -128 1984 -844 
L 1484 -844 
Q 1016 -109 783 600 
Q 550 1309 550 2009 
Q 550 2706 781 3412 
Q 1013 4119 1484 4856 
L 1984 4856 
z
" transform="scale(0.015625)"/>
       <path id="DejaVuSans-56" d="M 1831 0 
L 50 4666 
L 709 4666 
L 2188 738 
L 3669 4666 
L 4325 4666 
L 2547 0 
L 1831 0 
z
" transform="scale(0.015625)"/>
       <path id="DejaVuSans-29" d="M 513 4856 
L 1013 4856 
Q 1481 4119 1714 3412 
Q 1947 2706 1947 2009 
Q 1947 1309 1714 600 
Q 1481 -109 1013 -844 
L 513 -844 
Q 928 -128 1133 580 
Q 1338 1288 1338 2009 
Q 1338 2731 1133 3434 
Q 928 4138 513 4856 
z
" transform="scale(0.015625)"/>
      </defs>
      <use xlink:href="#DejaVuSans-4d"/>
      <use xlink:href="#DejaVuSans-65" x="86.279297"/>
      <use xlink:href="#DejaVuSans-6d" x="147.802734"/>
      <use xlink:href="#DejaVuSans-62" x="245.214844"/>
      <use xlink:href="#DejaVuSans-72" x="308.691406"/>
      <use xlink:href="#DejaVuSans-61" x="349.804688"/>
      <use xlink:href="#DejaVuSans-6e" x="411.083984"/>
      <use xlink:href="#DejaVuSans-65" x="474.462891"/>
      <use xlink:href="#DejaVuSans-20" x="535.986328"/>
      <use xlink:href="#DejaVuSans-50" x="567.773438"/>
      <use xlink:href="#DejaVuSans-6f" x="624.451172"/>
      <use xlink:href="#DejaVuSans-74" x="685.632812"/>
      <use xlink:href="#DejaVuSans-65" x="724.841797"/>
      <use xlink:href="#DejaVuSans-6e" x="786.365234"/>
      <use xlink:href="#DejaVuSans-74" x="849.744141"/>
      <use xlink:href="#DejaVuSans-69" x="888.953125"/>
      <use xlink:href="#DejaVuSans-61" x="916.736328"/>
      <use xlink:href="#DejaVuSans-6c" x="978.015625"/>
      <use xlink:href="#DejaVuSans-20" x="1005.798828"/>
      <use xlink:href="#DejaVuSans-28" x="1037.585938"/>
      <use xlink:href="#DejaVuSans-6d" x="1076.599609"/>
      <use xlink:href="#DejaVuSans-56" x="1174.011719"/>
      <use xlink:href="#DejaVuSans-29" x="1242.419922"/>
     </g>
    </g>
   </g>
   <g id="matplotlib.axis_2">
    <g id="ytick_1">
     <g id="line2d_13">
      <path d="M 90 373.538923 
L 648 373.538923 
" clip-path="url(#p098438dc73)" style="fill: none; stroke: #b0b0b0; stroke-width: 0.8; stroke-linecap: square"/>
     </g>
     <g id="line2d_14">
      <defs>
       <path id="m4592b17a61" d="M 0 0 
L -3.5 0 
" style="stroke: #000000; stroke-width: 0.8"/>
      </defs>
      <g>
       <use xlink:href="#m4592b17a61" x="90" y="373.538923" style="stroke: #000000; stroke-width: 0.8"/>
      </g>
     </g>
     <g id="text_8">
      <!-- 0.0 -->
      <g transform="translate(55.964687 379.997595) scale(0.17 -0.17)">
       <defs>
        <path id="DejaVuSans-2e" d="M 684 794 
L 1344 794 
L 1344 0 
L 684 0 
L 684 794 
z
" transform="scale(0.015625)"/>
       </defs>
       <use xlink:href="#DejaVuSans-30"/>
       <use xlink:href="#DejaVuSans-2e" x="63.623047"/>
       <use xlink:href="#DejaVuSans-30" x="95.410156"/>
      </g>
     </g>
    </g>
    <g id="ytick_2">
     <g id="line2d_15">
      <path d="M 90 311.796344 
L 648 311.796344 
" clip-path="url(#p098438dc73)" style="fill: none; stroke: #b0b0b0; stroke-width: 0.8; stroke-linecap: square"/>
     </g>
     <g id="line2d_16">
      <g>
       <use xlink:href="#m4592b17a61" x="90" y="311.796344" style="stroke: #000000; stroke-width: 0.8"/>
      </g>
     </g>
     <g id="text_9">
      <!-- 0.2 -->
      <g transform="translate(55.964687 318.255016) scale(0.17 -0.17)">
       <use xlink:href="#DejaVuSans-30"/>
       <use xlink:href="#DejaVuSans-2e" x="63.623047"/>
       <use xlink:href="#DejaVuSans-32" x="95.410156"/>
      </g>
     </g>
    </g>
    <g id="ytick_3">
     <g id="line2d_17">
      <path d="M 90 250.053764 
L 648 250.053764 
" clip-path="url(#p098438dc73)" style="fill: none; stroke: #b0b0b0; stroke-width: 0.8; stroke-linecap: square"/>
     </g>
     <g id="line2d_18">
      <g>
       <use xlink:href="#m4592b17a61" x="90" y="250.053764" style="stroke: #000000; stroke-width: 0.8"/>
      </g>
     </g>
     <g id="text_10">
      <!-- 0.4 -->
      <g transform="translate(55.964687 256.512436) scale(0.17 -0.17)">
       <use xlink:href="#DejaVuSans-30"/>
       <use xlink:href="#DejaVuSans-2e" x="63.623047"/>
       <use xlink:href="#DejaVuSans-34" x="95.410156"/>
      </g>
     </g>
    </g>
    <g id="ytick_4">
     <g id="line2d_19">
      <path d="M 90 188.311184 
L 648 188.311184 
" clip-path="url(#p098438dc73)" style="fill: none; stroke: #b0b0b0; stroke-width: 0.8; stroke-linecap: square"/>
     </g>
     <g id="line2d_20">
      <g>
       <use xlink:href="#m4592b17a61" x="90" y="188.311184" style="stroke: #000000; stroke-width: 0.8"/>
      </g>
     </g>
     <g id="text_11">
      <!-- 0.6 -->
      <g transform="translate(55.964687 194.769856) scale(0.17 -0.17)">
       <use xlink:href="#DejaVuSans-30"/>
       <use xlink:href="#DejaVuSans-2e" x="63.623047"/>
       <use xlink:href="#DejaVuSans-36" x="95.410156"/>
      </g>
     </g>
    </g>
    <g id="ytick_5">
     <g id="line2d_21">
      <path d="M 90 126.568605 
L 648 126.568605 
" clip-path="url(#p098438dc73)" style="fill: none; stroke: #b0b0b0; stroke-width: 0.8; stroke-linecap: square"/>
     </g>
     <g id="line2d_22">
      <g>
       <use xlink:href="#m4592b17a61" x="90" y="126.568605" style="stroke: #000000; stroke-width: 0.8"/>
      </g>
     </g>
     <g id="text_12">
      <!-- 0.8 -->
      <g transform="translate(55.964687 133.027277) scale(0.17 -0.17)">
       <use xlink:href="#DejaVuSans-30"/>
       <use xlink:href="#DejaVuSans-2e" x="63.623047"/>
       <use xlink:href="#DejaVuSans-38" x="95.410156"/>
      </g>
     </g>
    </g>
    <g id="ytick_6">
     <g id="line2d_23">
      <path d="M 90 64.826025 
L 648 64.826025 
" clip-path="url(#p098438dc73)" style="fill: none; stroke: #b0b0b0; stroke-width: 0.8; stroke-linecap: square"/>
     </g>
     <g id="line2d_24">
      <g>
       <use xlink:href="#m4592b17a61" x="90" y="64.826025" style="stroke: #000000; stroke-width: 0.8"/>
      </g>
     </g>
     <g id="text_13">
      <!-- 1.0 -->
      <g transform="translate(55.964687 71.284697) scale(0.17 -0.17)">
       <use xlink:href="#DejaVuSans-31"/>
       <use xlink:href="#DejaVuSans-2e" x="63.623047"/>
       <use xlink:href="#DejaVuSans-30" x="95.410156"/>
      </g>
     </g>
    </g>
    <g id="text_14">
     <!-- m-gate -->
     <g transform="translate(48.429219 248.673672) rotate(-90) scale(0.17 -0.17)">
      <defs>
       <path id="DejaVuSans-2d" d="M 313 2009 
L 1997 2009 
L 1997 1497 
L 313 1497 
L 313 2009 
z
" transform="scale(0.015625)"/>
       <path id="DejaVuSans-67" d="M 2906 1791 
Q 2906 2416 2648 2759 
Q 2391 3103 1925 3103 
Q 1463 3103 1205 2759 
Q 947 2416 947 1791 
Q 947 1169 1205 825 
Q 1463 481 1925 481 
Q 2391 481 2648 825 
Q 2906 1169 2906 1791 
z
M 3481 434 
Q 3481 -459 3084 -895 
Q 2688 -1331 1869 -1331 
Q 1566 -1331 1297 -1286 
Q 1028 -1241 775 -1147 
L 775 -588 
Q 1028 -725 1275 -790 
Q 1522 -856 1778 -856 
Q 2344 -856 2625 -561 
Q 2906 -266 2906 331 
L 2906 616 
Q 2728 306 2450 153 
Q 2172 0 1784 0 
Q 1141 0 747 490 
Q 353 981 353 1791 
Q 353 2603 747 3093 
Q 1141 3584 1784 3584 
Q 2172 3584 2450 3431 
Q 2728 3278 2906 2969 
L 2906 3500 
L 3481 3500 
L 3481 434 
z
" transform="scale(0.015625)"/>
      </defs>
      <use xlink:href="#DejaVuSans-6d"/>
      <use xlink:href="#DejaVuSans-2d" x="97.412109"/>
      <use xlink:href="#DejaVuSans-67" x="133.496094"/>
      <use xlink:href="#DejaVuSans-61" x="196.972656"/>
      <use xlink:href="#DejaVuSans-74" x="258.251953"/>
      <use xlink:href="#DejaVuSans-65" x="297.460938"/>
     </g>
    </g>
   </g>
   <g id="line2d_25">
    <path d="M 165.009343 357.197982 
L 166.122312 357.093056 
L 167.546163 356.709429 
L 169.509432 355.925933 
L 172.590078 354.43218 
L 176.756193 352.160236 
L 180.879093 349.662421 
L 184.326494 347.324104 
L 186.402921 345.678839 
L 186.961462 345.015459 
L 186.964892 344.990198 
L 186.876115 344.984355 
L 185.919733 345.052692 
L 184.784257 345.368904 
L 183.111057 346.081906 
L 180.073397 347.651525 
L 171.176715 352.598139 
L 162.949707 357.042628 
L 155.65492 360.797807 
L 156.04937 360.747953 
L 157.902033 360.168191 
L 161.615569 358.773877 
L 164.525873 357.699267 
L 166.054878 357.468528 
L 167.888642 356.960282 
L 170.229049 356.073949 
L 173.460768 354.593153 
L 177.697635 352.392151 
L 182.761271 349.505273 
L 188.73265 345.836924 
L 197.535181 340.135049 
L 215.34192 328.574302 
L 226.702115 321.482797 
L 238.751667 314.226379 
L 251.602965 306.757551 
L 264.196344 299.673833 
L 278.691929 291.766181 
L 294.608238 283.339384 
L 310.854223 274.96897 
L 331.294115 264.711598 
L 350.121247 255.48702 
L 372.586499 244.708939 
L 399.198689 232.196397 
L 430.164931 217.878659 
L 489.60568 190.531643 
L 514.387772 178.838552 
L 526.515551 172.953369 
L 538.275765 167.091518 
L 549.524904 161.290704 
L 560.129093 155.587832 
L 569.971801 150.017742 
L 578.960557 144.612057 
L 587.031814 139.398223 
L 594.153361 134.398829 
L 600.324038 129.631225 
L 605.570924 125.10747 
L 609.944528 120.834542 
L 613.512757 116.814793 
L 616.354494 113.04655 
L 618.553526 109.524805 
L 620.193386 106.241923 
L 621.353394 103.188316 
L 622.10599 100.353052 
L 622.515248 97.724368 
L 622.636364 95.290101 
L 622.515857 93.038011 
L 622.192252 90.956041 
L 621.697011 89.032487 
L 621.055564 87.256125 
L 620.28833 85.616288 
L 619.411643 84.102907 
L 618.438572 82.706529 
L 617.379603 81.418319 
L 616.243202 80.230042 
L 613.764472 78.123229 
L 611.04455 76.331347 
L 608.113564 74.807552 
L 604.994355 73.511919 
L 601.705242 72.410509 
L 598.261633 71.474526 
L 594.676977 70.679572 
L 589.061638 69.707274 
L 583.192473 68.949795 
L 577.102372 68.363048 
L 568.690057 67.788376 
L 557.794582 67.322385 
L 546.248498 67.064585 
L 532.416964 66.96 
L 516.152391 67.054351 
L 497.502396 67.402126 
L 481.270563 67.908165 
L 465.219643 68.616441 
L 449.41413 69.555804 
L 436.092703 70.57617 
L 425.161815 71.603318 
L 414.389097 72.815457 
L 403.773717 74.238805 
L 393.311416 75.903097 
L 385.046809 77.430363 
L 376.869915 79.152122 
L 368.773705 81.089048 
L 360.749365 83.263657 
L 352.785993 85.700449 
L 346.845524 87.716059 
L 340.925162 89.906234 
L 335.017131 92.283941 
L 329.11246 94.863077 
L 323.200843 97.658574 
L 317.270495 100.686534 
L 311.308012 103.964384 
L 305.298245 107.511061 
L 299.224192 111.347216 
L 293.066931 115.495442 
L 286.805605 119.980516 
L 280.417498 124.829631 
L 273.878246 130.072602 
L 267.162231 135.741994 
L 260.243253 141.873116 
L 253.095585 148.503765 
L 245.695537 155.673593 
L 238.023691 163.422888 
L 230.067964 171.7905 
L 221.827603 180.810575 
L 213.318114 190.507744 
L 204.576864 200.89043 
L 195.668694 211.942215 
L 189.683554 219.658167 
L 183.703441 227.623557 
L 177.771582 235.802203 
L 171.936561 244.14702 
L 166.250714 252.599936 
L 160.767859 261.092709 
L 155.540487 269.54881 
L 150.616673 277.886401 
L 146.037049 286.022238 
L 141.832262 293.876113 
L 138.021274 301.375315 
L 134.610747 308.45851 
L 130.231706 318.204423 
L 126.681114 326.818762 
L 123.865277 334.284139 
L 121.673577 340.64534 
L 119.529367 347.564847 
L 117.770205 354.085844 
L 116.543242 359.503996 
L 115.754392 363.940863 
L 115.406219 367.033383 
L 115.421281 368.609279 
L 115.619048 369.167898 
L 115.899058 369.333521 
L 116.462896 369.344895 
L 119.394671 369.003417 
L 126.992265 367.939206 
L 133.92392 366.747379 
L 140.2486 365.438538 
L 147.599718 363.882252 
L 150.104581 363.46857 
L 153.194964 362.725467 
L 157.053439 361.556259 
L 161.435173 359.992907 
L 166.141051 358.077648 
L 170.932303 355.88666 
L 175.816526 353.404466 
L 180.80174 350.620389 
L 186.267388 347.307947 
L 193.005496 342.948264 
L 222.907815 323.268478 
L 234.672204 315.764353 
L 238.718552 312.913704 
L 243.670658 309.690262 
L 251.107616 305.137966 
L 260.697855 299.550248 
L 273.288315 292.503524 
L 287.005672 285.08057 
L 304.851383 275.716986 
L 323.168525 266.374899 
L 346.228825 254.91839 
L 367.373161 244.652222 
L 392.349534 232.754873 
L 421.396887 219.142065 
L 489.478033 187.41762 
L 513.190636 176.043444 
L 524.748722 170.335577 
L 535.93376 164.659753 
L 546.617599 159.050797 
L 556.682022 153.542514 
L 566.025153 148.166595 
L 574.566892 142.951632 
L 582.25272 137.922326 
L 589.055443 133.098926 
L 594.974721 128.496946 
L 600.034571 124.127135 
L 604.279274 119.995696 
L 607.76832 116.104682 
L 610.571033 112.452532 
L 612.761472 109.03467 
L 614.414044 105.84413 
L 615.600085 102.87214 
L 616.385463 100.108664 
L 616.829167 97.542864 
L 616.982702 95.163481 
L 616.890118 92.95914 
L 616.588452 90.918584 
L 616.108437 89.030845 
L 615.475319 87.285362 
L 614.709703 85.672062 
L 613.828338 84.181406 
L 612.844834 82.80441 
L 611.770272 81.532654 
L 610.613719 80.358269 
L 608.083278 78.272818 
L 605.299777 76.495476 
L 602.296691 74.981091 
L 599.099518 73.69106 
L 595.728675 72.592482 
L 592.201243 71.657373 
L 588.532013 70.861972 
L 582.790729 69.887592 
L 576.799201 69.127417 
L 570.592428 68.538235 
L 562.035979 67.961743 
L 550.981859 67.497058 
L 539.634694 67.24457 
L 525.766929 67.15202 
L 509.41471 67.272518 
L 493.040073 67.60445 
L 476.772666 68.140827 
L 460.704739 68.895748 
L 447.138302 69.739257 
L 433.787945 70.792365 
L 422.837307 71.85447 
L 412.048387 73.109165 
L 401.419865 74.583403 
L 393.029391 75.941294 
L 384.734475 77.476616 
L 376.529601 79.208435 
L 368.407657 81.157559 
L 360.359721 83.346645 
L 352.374746 85.800349 
L 346.419282 87.830335 
L 340.484865 90.036414 
L 334.563625 92.431624 
L 328.646487 95.029932 
L 322.723035 97.846345 
L 316.781365 100.897038 
L 310.807953 104.199517 
L 304.787529 107.772795 
L 298.702977 111.6376 
L 292.535272 115.816602 
L 286.263479 120.334648 
L 279.864839 125.218989 
L 273.314992 130.499478 
L 266.588401 136.208682 
L 259.65904 142.38185 
L 252.501484 149.05663 
L 245.092511 156.272393 
L 237.41337 164.06895 
L 229.452885 172.484406 
L 221.211467 181.551806 
L 212.706037 191.294229 
L 203.975567 201.718017 
L 195.086544 212.80411 
L 189.119546 220.537634 
L 183.162246 228.515199 
L 177.25801 236.699635 
L 171.455343 245.042959 
L 165.806236 253.48638 
L 160.363875 261.961217 
L 155.17985 270.390877 
L 150.3011 278.693889 
L 145.766979 286.787825 
L 141.606824 294.593701 
L 137.838369 302.040335 
L 134.467245 309.068094 
L 130.13985 318.729198 
L 126.630908 327.261256 
L 123.846804 334.650703 
L 121.677988 340.944593 
L 119.553265 347.789116 
L 117.806177 354.238909 
L 116.583629 359.598619 
L 115.793873 363.989151 
L 115.44235 367.051054 
L 115.455142 368.612374 
L 115.652806 369.166063 
L 115.934005 369.330051 
L 116.501086 369.340528 
L 119.448818 368.99662 
L 127.072263 367.926733 
L 134.013142 366.730471 
L 141.646287 365.387038 
L 144.602239 365.029493 
L 148.147006 364.354069 
L 152.114231 363.364031 
L 156.563298 362.022658 
L 161.300649 360.358945 
L 166.021581 358.468242 
L 170.853091 356.291025 
L 175.652484 353.884914 
L 180.655655 351.127052 
L 186.070771 347.884075 
L 192.535838 343.740509 
L 203.275094 336.542521 
L 217.797081 326.876048 
L 229.264945 319.527835 
L 240.806358 312.402059 
L 252.2924 305.552094 
L 264.479573 298.51321 
L 278.388382 290.726478 
L 293.530412 282.501125 
L 308.863011 274.396037 
L 328.003592 264.53979 
L 345.513232 255.734872 
L 366.29382 245.500657 
L 390.815322 233.665743 
L 419.33117 220.143202 
L 498.171432 182.982885 
L 520.888709 171.613878 
L 531.858648 165.958269 
L 542.398527 160.365253 
L 552.388559 154.866953 
L 561.723037 149.493903 
L 570.315736 144.274057 
L 578.103972 139.231957 
L 585.050844 134.38812 
L 591.145457 129.758664 
L 596.401169 125.355195 
L 600.852227 121.184927 
L 604.549282 117.250993 
L 607.554406 113.552907 
L 609.936172 110.087106 
L 611.765244 106.847533 
L 613.110793 103.826204 
L 614.037843 101.013739 
L 614.605552 98.399823 
L 614.866317 95.973603 
L 614.865527 93.724005 
L 614.641799 91.63998 
L 614.227517 89.710695 
L 613.649535 87.925666 
L 612.929953 86.274847 
L 612.086864 84.748692 
L 611.135055 83.338184 
L 610.086619 82.034851 
L 608.951484 80.830757 
L 606.452523 78.691188 
L 603.6889 76.866247 
L 600.697189 75.310117 
L 597.505061 73.983552 
L 594.134487 72.853054 
L 590.603687 71.890098 
L 586.928318 71.070434 
L 581.174058 70.065452 
L 575.166511 69.280536 
L 568.941941 68.671455 
L 560.360599 68.074558 
L 551.519381 67.669006 
L 540.193487 67.366627 
L 526.332058 67.231991 
L 509.96847 67.31903 
L 493.56927 67.627731 
L 477.269537 68.146904 
L 461.165415 68.888119 
L 447.566966 69.721468 
L 434.184966 70.765205 
L 423.208857 71.819784 
L 412.395657 73.067015 
L 401.744296 74.533712 
L 393.336714 75.885439 
L 385.025805 77.414427 
L 376.806113 79.139701 
L 368.670589 81.082023 
L 360.610364 83.264012 
L 352.614458 85.710272 
L 346.651728 87.734416 
L 340.710884 89.9344 
L 334.784095 92.323231 
L 328.862334 94.914837 
L 322.935234 97.724179 
L 316.990952 100.767378 
L 311.016029 104.061873 
L 304.99527 107.6266 
L 298.911641 111.482195 
L 292.746207 115.65122 
L 286.478128 120.158394 
L 280.084746 125.030823 
L 273.541801 130.298196 
L 266.823844 135.992896 
L 259.90492 142.149977 
L 252.759636 148.806884 
L 245.364737 156.002797 
L 237.70134 163.777372 
L 229.757992 172.168632 
L 221.534628 181.209677 
L 213.047435 190.923851 
L 204.334343 201.318073 
L 195.460477 212.37428 
L 189.501544 220.088425 
L 183.550067 228.04771 
L 177.648886 236.215645 
L 171.846025 244.545 
L 166.193092 252.977765 
L 160.74304 261.446011 
L 155.547413 269.873788 
L 150.653328 278.180083 
L 146.100536 286.282677 
L 141.918966 294.102496 
L 138.127091 301.567974 
L 134.731348 308.618824 
L 130.366522 318.320633 
L 126.821609 326.897764 
L 124.004694 334.333492 
L 121.807171 340.672271 
L 119.650999 347.571453 
L 117.874727 354.078426 
L 116.628909 359.48994 
L 115.821347 363.925974 
L 115.458558 367.021522 
L 115.466304 368.600947 
L 115.662535 369.161508 
L 115.943608 369.327865 
L 116.511381 369.339191 
L 119.463346 368.994794 
L 127.048284 367.930474 
L 133.986273 366.735563 
L 140.310398 365.424558 
L 143.763466 364.693118 
L 146.515005 364.49115 
L 149.860413 364.010486 
L 153.686237 363.212278 
L 157.880145 362.091063 
L 162.34105 360.655941 
L 166.989373 358.916317 
L 171.778145 356.873302 
L 176.47836 354.627143 
L 181.399005 352.033414 
L 186.898718 348.875199 
L 193.325416 344.916626 
L 202.785277 338.795872 
L 223.032116 325.642961 
L 235.0493 318.13834 
L 246.677249 311.129444 
L 259.595727 303.608971 
L 272.613219 296.278414 
L 286.695865 288.586932 
L 300.910759 281.036852 
L 318.650598 271.866804 
L 334.920834 263.662963 
L 354.337672 254.087715 
L 377.475805 242.928706 
L 404.808623 230.020783 
L 436.449815 215.326106 
L 484.020811 193.335876 
L 508.77152 181.675317 
L 520.980143 175.78396 
L 532.88973 169.8998 
L 544.355809 164.060321 
L 555.239833 158.302793 
L 565.416972 152.662994 
L 574.783341 147.174008 
L 583.261773 141.86517 
L 590.805403 136.761255 
L 597.398654 131.881963 
L 603.055585 127.241714 
L 607.815985 122.84974 
L 611.739871 118.710435 
L 614.901209 114.823889 
L 617.381652 111.186548 
L 619.264941 107.791909 
L 620.632385 104.631217 
L 621.559605 101.694103 
L 622.114503 98.96914 
L 622.356322 96.444312 
L 622.33552 94.107388 
L 622.094248 91.946203 
L 621.667166 89.948874 
L 621.082436 88.103946 
L 620.362746 86.400486 
L 619.526281 84.828143 
L 618.587593 83.377179 
L 617.558343 82.038468 
L 616.447916 80.803499 
L 614.012614 78.613668 
L 611.327884 76.750949 
L 608.426298 75.16674 
L 605.332206 73.819581 
L 602.064894 72.674211 
L 598.640419 71.700701 
L 595.072686 70.873682 
L 589.479301 69.861759 
L 583.628702 69.072835 
L 577.554399 68.461038 
L 569.159669 67.860546 
L 560.4866 67.449704 
L 549.342457 67.136389 
L 535.656371 66.980063 
L 519.440789 67.027211 
L 500.807251 67.328409 
L 482.265441 67.876007 
L 466.233817 68.569518 
L 450.451849 69.491336 
L 437.15484 70.493384 
L 424.085789 71.724982 
L 413.373004 72.954564 
L 402.821178 74.39661 
L 392.42595 76.080666 
L 384.217543 77.624313 
L 376.099169 79.362725 
L 368.063912 81.316285 
L 360.103127 83.507139 
L 352.206149 85.959321 
L 346.317535 87.985568 
L 331.454324 93.468568 
L 325.291984 96.205358 
L 319.231354 99.180723 
L 313.198637 102.406039 
L 307.150782 105.897099 
L 301.05788 109.672809 
L 294.895078 113.754675 
L 288.638837 118.166679 
L 282.265269 122.935334 
L 275.749492 128.089818 
L 269.065592 133.662083 
L 262.187034 139.686879 
L 255.087516 146.201565 
L 247.742338 153.245593 
L 240.130436 160.859468 
L 232.237203 169.082923 
L 224.058244 177.952002 
L 215.604085 187.494673 
L 206.90567 197.72463 
L 198.020103 208.633105 
L 192.034583 216.263722 
L 186.038771 224.156148 
L 180.073611 232.278242 
L 174.185882 240.587125 
L 168.426861 249.028806 
L 162.850295 257.538605 
L 157.509765 266.042624 
L 152.455647 274.460311 
L 147.731993 282.708063 
L 143.373732 290.703545 
L 139.404587 298.370244 
L 135.836017 305.641679 
L 132.667289 312.464696 
L 128.63557 321.78007 
L 125.399191 329.943786 
L 122.854833 336.966182 
L 120.343074 344.672212 
L 118.604699 350.712512 
L 117.195841 356.35088 
L 116.116967 361.599657 
L 115.504907 365.721266 
L 115.365895 368.050501 
L 115.505167 368.995348 
L 115.744865 369.283548 
L 116.122814 369.35976 
L 117.250107 369.263369 
L 124.451008 368.321035 
L 131.594208 367.174094 
L 138.139625 365.900869 
L 144.160152 364.505881 
L 149.730943 362.990337 
L 154.927944 361.34956 
L 159.767503 359.59137 
L 164.0919 357.789607 
L 167.030042 356.350947 
L 167.152984 356.252907 
L 166.80415 356.360669 
L 164.675375 357.322749 
L 164.56978 357.385814 
L 165.093746 357.161684 
L 165.088174 357.162833 
" clip-path="url(#p098438dc73)" style="fill: none; stroke: #1f77b4; stroke-width: 1.5; stroke-linecap: square"/>
   </g>
   <g id="patch_3">
    <path d="M 90 384.48 
L 90 51.84 
" style="fill: none; stroke: #000000; stroke-width: 0.8; stroke-linejoin: miter; stroke-linecap: square"/>
   </g>
   <g id="patch_4">
    <path d="M 648 384.48 
L 648 51.84 
" style="fill: none; stroke: #000000; stroke-width: 0.8; stroke-linejoin: miter; stroke-linecap: square"/>
   </g>
   <g id="patch_5">
    <path d="M 90 384.48 
L 648 384.48 
" style="fill: none; stroke: #000000; stroke-width: 0.8; stroke-linejoin: miter; stroke-linecap: square"/>
   </g>
   <g id="patch_6">
    <path d="M 90 51.84 
L 648 51.84 
" style="fill: none; stroke: #000000; stroke-width: 0.8; stroke-linejoin: miter; stroke-linecap: square"/>
   </g>
   <g id="text_15">
    <!-- Phase Plot (6.3°C) -->
    <g transform="translate(276.435 45.84) scale(0.204 -0.204)">
     <defs>
      <path id="DejaVuSans-68" d="M 3513 2113 
L 3513 0 
L 2938 0 
L 2938 2094 
Q 2938 2591 2744 2837 
Q 2550 3084 2163 3084 
Q 1697 3084 1428 2787 
Q 1159 2491 1159 1978 
L 1159 0 
L 581 0 
L 581 4863 
L 1159 4863 
L 1159 2956 
Q 1366 3272 1645 3428 
Q 1925 3584 2291 3584 
Q 2894 3584 3203 3211 
Q 3513 2838 3513 2113 
z
" transform="scale(0.015625)"/>
      <path id="DejaVuSans-73" d="M 2834 3397 
L 2834 2853 
Q 2591 2978 2328 3040 
Q 2066 3103 1784 3103 
Q 1356 3103 1142 2972 
Q 928 2841 928 2578 
Q 928 2378 1081 2264 
Q 1234 2150 1697 2047 
L 1894 2003 
Q 2506 1872 2764 1633 
Q 3022 1394 3022 966 
Q 3022 478 2636 193 
Q 2250 -91 1575 -91 
Q 1294 -91 989 -36 
Q 684 19 347 128 
L 347 722 
Q 666 556 975 473 
Q 1284 391 1588 391 
Q 1994 391 2212 530 
Q 2431 669 2431 922 
Q 2431 1156 2273 1281 
Q 2116 1406 1581 1522 
L 1381 1569 
Q 847 1681 609 1914 
Q 372 2147 372 2553 
Q 372 3047 722 3315 
Q 1072 3584 1716 3584 
Q 2034 3584 2315 3537 
Q 2597 3491 2834 3397 
z
" transform="scale(0.015625)"/>
      <path id="DejaVuSans-33" d="M 2597 2516 
Q 3050 2419 3304 2112 
Q 3559 1806 3559 1356 
Q 3559 666 3084 287 
Q 2609 -91 1734 -91 
Q 1441 -91 1130 -33 
Q 819 25 488 141 
L 488 750 
Q 750 597 1062 519 
Q 1375 441 1716 441 
Q 2309 441 2620 675 
Q 2931 909 2931 1356 
Q 2931 1769 2642 2001 
Q 2353 2234 1838 2234 
L 1294 2234 
L 1294 2753 
L 1863 2753 
Q 2328 2753 2575 2939 
Q 2822 3125 2822 3475 
Q 2822 3834 2567 4026 
Q 2313 4219 1838 4219 
Q 1578 4219 1281 4162 
Q 984 4106 628 3988 
L 628 4550 
Q 988 4650 1302 4700 
Q 1616 4750 1894 4750 
Q 2613 4750 3031 4423 
Q 3450 4097 3450 3541 
Q 3450 3153 3228 2886 
Q 3006 2619 2597 2516 
z
" transform="scale(0.015625)"/>
      <path id="DejaVuSans-b0" d="M 1600 4347 
Q 1350 4347 1178 4173 
Q 1006 4000 1006 3750 
Q 1006 3503 1178 3333 
Q 1350 3163 1600 3163 
Q 1850 3163 2022 3333 
Q 2194 3503 2194 3750 
Q 2194 3997 2020 4172 
Q 1847 4347 1600 4347 
z
M 1600 4750 
Q 1800 4750 1984 4673 
Q 2169 4597 2303 4453 
Q 2447 4313 2519 4134 
Q 2591 3956 2591 3750 
Q 2591 3338 2302 3052 
Q 2013 2766 1594 2766 
Q 1172 2766 890 3047 
Q 609 3328 609 3750 
Q 609 4169 896 4459 
Q 1184 4750 1600 4750 
z
" transform="scale(0.015625)"/>
      <path id="DejaVuSans-43" d="M 4122 4306 
L 4122 3641 
Q 3803 3938 3442 4084 
Q 3081 4231 2675 4231 
Q 1875 4231 1450 3742 
Q 1025 3253 1025 2328 
Q 1025 1406 1450 917 
Q 1875 428 2675 428 
Q 3081 428 3442 575 
Q 3803 722 4122 1019 
L 4122 359 
Q 3791 134 3420 21 
Q 3050 -91 2638 -91 
Q 1578 -91 968 557 
Q 359 1206 359 2328 
Q 359 3453 968 4101 
Q 1578 4750 2638 4750 
Q 3056 4750 3426 4639 
Q 3797 4528 4122 4306 
z
" transform="scale(0.015625)"/>
     </defs>
     <use xlink:href="#DejaVuSans-50"/>
     <use xlink:href="#DejaVuSans-68" x="60.302734"/>
     <use xlink:href="#DejaVuSans-61" x="123.681641"/>
     <use xlink:href="#DejaVuSans-73" x="184.960938"/>
     <use xlink:href="#DejaVuSans-65" x="237.060547"/>
     <use xlink:href="#DejaVuSans-20" x="298.583984"/>
     <use xlink:href="#DejaVuSans-50" x="330.371094"/>
     <use xlink:href="#DejaVuSans-6c" x="390.673828"/>
     <use xlink:href="#DejaVuSans-6f" x="418.457031"/>
     <use xlink:href="#DejaVuSans-74" x="479.638672"/>
     <use xlink:href="#DejaVuSans-20" x="518.847656"/>
     <use xlink:href="#DejaVuSans-28" x="550.634766"/>
     <use xlink:href="#DejaVuSans-36" x="589.648438"/>
     <use xlink:href="#DejaVuSans-2e" x="653.271484"/>
     <use xlink:href="#DejaVuSans-33" x="685.058594"/>
     <use xlink:href="#DejaVuSans-b0" x="748.681641"/>
     <use xlink:href="#DejaVuSans-43" x="798.681641"/>
     <use xlink:href="#DejaVuSans-29" x="868.505859"/>
    </g>
   </g>
  </g>
 </g>
 <defs>
  <clipPath id="p098438dc73">
   <rect x="90" y="51.84" width="558" height="332.64"/>
  </clipPath>
 </defs>
</svg>
