<?xml version="1.0" encoding="utf-8" standalone="no"?>
<!DOCTYPE svg PUBLIC "-//W3C//DTD SVG 1.1//EN"
  "http://www.w3.org/Graphics/SVG/1.1/DTD/svg11.dtd">
<svg xmlns:xlink="http://www.w3.org/1999/xlink" width="720pt" height="432pt" viewBox="0 0 720 432" xmlns="http://www.w3.org/2000/svg" version="1.1">
 <metadata>
  <rdf:RDF xmlns:dc="http://purl.org/dc/elements/1.1/" xmlns:cc="http://creativecommons.org/ns#" xmlns:rdf="http://www.w3.org/1999/02/22-rdf-syntax-ns#">
   <cc:Work>
    <dc:type rdf:resource="http://purl.org/dc/dcmitype/StillImage"/>
    <dc:date>2024-11-24T22:24:48.055831</dc:date>
    <dc:format>image/svg+xml</dc:format>
    <dc:creator>
     <cc:Agent>
      <dc:title>Matplotlib v3.9.2, https://matplotlib.org/</dc:title>
     </cc:Agent>
    </dc:creator>
   </cc:Work>
  </rdf:RDF>
 </metadata>
 <defs>
  <style type="text/css">*{stroke-linejoin: round; stroke-linecap: butt}</style>
 </defs>
 <g id="figure_1">
  <g id="patch_1">
   <path d="M 0 432 
L 720 432 
L 720 0 
L 0 0 
z
" style="fill: #ffffff"/>
  </g>
  <g id="axes_1">
   <g id="patch_2">
    <path d="M 90 203.04 
L 648 203.04 
L 648 51.84 
L 90 51.84 
z
" style="fill: #ffffff"/>
   </g>
   <g id="matplotlib.axis_1">
    <g id="xtick_1">
     <g id="line2d_1">
      <path d="M 115.363636 203.04 
L 115.363636 51.84 
" clip-path="url(#pc4f923bd92)" style="fill: none; stroke: #b0b0b0; stroke-width: 0.8; stroke-linecap: square"/>
     </g>
     <g id="line2d_2">
      <defs>
       <path id="m62b9c5e072" d="M 0 0 
L 0 3.5 
" style="stroke: #000000; stroke-width: 0.8"/>
      </defs>
      <g>
       <use xlink:href="#m62b9c5e072" x="115.363636" y="203.04" style="stroke: #000000; stroke-width: 0.8"/>
      </g>
     </g>
     <g id="text_1">
      <!-- 0 -->
      <g transform="translate(112.182386 217.638437) scale(0.1 -0.1)">
       <defs>
        <path id="DejaVuSans-30" d="M 2034 4250 
Q 1547 4250 1301 3770 
Q 1056 3291 1056 2328 
Q 1056 1369 1301 889 
Q 1547 409 2034 409 
Q 2525 409 2770 889 
Q 3016 1369 3016 2328 
Q 3016 3291 2770 3770 
Q 2525 4250 2034 4250 
z
M 2034 4750 
Q 2819 4750 3233 4129 
Q 3647 3509 3647 2328 
Q 3647 1150 3233 529 
Q 2819 -91 2034 -91 
Q 1250 -91 836 529 
Q 422 1150 422 2328 
Q 422 3509 836 4129 
Q 1250 4750 2034 4750 
z
" transform="scale(0.015625)"/>
       </defs>
       <use xlink:href="#DejaVuSans-30"/>
      </g>
     </g>
    </g>
    <g id="xtick_2">
     <g id="line2d_3">
      <path d="M 216.868934 203.04 
L 216.868934 51.84 
" clip-path="url(#pc4f923bd92)" style="fill: none; stroke: #b0b0b0; stroke-width: 0.8; stroke-linecap: square"/>
     </g>
     <g id="line2d_4">
      <g>
       <use xlink:href="#m62b9c5e072" x="216.868934" y="203.04" style="stroke: #000000; stroke-width: 0.8"/>
      </g>
     </g>
     <g id="text_2">
      <!-- 10 -->
      <g transform="translate(210.506434 217.638437) scale(0.1 -0.1)">
       <defs>
        <path id="DejaVuSans-31" d="M 794 531 
L 1825 531 
L 1825 4091 
L 703 3866 
L 703 4441 
L 1819 4666 
L 2450 4666 
L 2450 531 
L 3481 531 
L 3481 0 
L 794 0 
L 794 531 
z
" transform="scale(0.015625)"/>
       </defs>
       <use xlink:href="#DejaVuSans-31"/>
       <use xlink:href="#DejaVuSans-30" x="63.623047"/>
      </g>
     </g>
    </g>
    <g id="xtick_3">
     <g id="line2d_5">
      <path d="M 318.374233 203.04 
L 318.374233 51.84 
" clip-path="url(#pc4f923bd92)" style="fill: none; stroke: #b0b0b0; stroke-width: 0.8; stroke-linecap: square"/>
     </g>
     <g id="line2d_6">
      <g>
       <use xlink:href="#m62b9c5e072" x="318.374233" y="203.04" style="stroke: #000000; stroke-width: 0.8"/>
      </g>
     </g>
     <g id="text_3">
      <!-- 20 -->
      <g transform="translate(312.011733 217.638437) scale(0.1 -0.1)">
       <defs>
        <path id="DejaVuSans-32" d="M 1228 531 
L 3431 531 
L 3431 0 
L 469 0 
L 469 531 
Q 828 903 1448 1529 
Q 2069 2156 2228 2338 
Q 2531 2678 2651 2914 
Q 2772 3150 2772 3378 
Q 2772 3750 2511 3984 
Q 2250 4219 1831 4219 
Q 1534 4219 1204 4116 
Q 875 4013 500 3803 
L 500 4441 
Q 881 4594 1212 4672 
Q 1544 4750 1819 4750 
Q 2544 4750 2975 4387 
Q 3406 4025 3406 3419 
Q 3406 3131 3298 2873 
Q 3191 2616 2906 2266 
Q 2828 2175 2409 1742 
Q 1991 1309 1228 531 
z
" transform="scale(0.015625)"/>
       </defs>
       <use xlink:href="#DejaVuSans-32"/>
       <use xlink:href="#DejaVuSans-30" x="63.623047"/>
      </g>
     </g>
    </g>
    <g id="xtick_4">
     <g id="line2d_7">
      <path d="M 419.879531 203.04 
L 419.879531 51.84 
" clip-path="url(#pc4f923bd92)" style="fill: none; stroke: #b0b0b0; stroke-width: 0.8; stroke-linecap: square"/>
     </g>
     <g id="line2d_8">
      <g>
       <use xlink:href="#m62b9c5e072" x="419.879531" y="203.04" style="stroke: #000000; stroke-width: 0.8"/>
      </g>
     </g>
     <g id="text_4">
      <!-- 30 -->
      <g transform="translate(413.517031 217.638437) scale(0.1 -0.1)">
       <defs>
        <path id="DejaVuSans-33" d="M 2597 2516 
Q 3050 2419 3304 2112 
Q 3559 1806 3559 1356 
Q 3559 666 3084 287 
Q 2609 -91 1734 -91 
Q 1441 -91 1130 -33 
Q 819 25 488 141 
L 488 750 
Q 750 597 1062 519 
Q 1375 441 1716 441 
Q 2309 441 2620 675 
Q 2931 909 2931 1356 
Q 2931 1769 2642 2001 
Q 2353 2234 1838 2234 
L 1294 2234 
L 1294 2753 
L 1863 2753 
Q 2328 2753 2575 2939 
Q 2822 3125 2822 3475 
Q 2822 3834 2567 4026 
Q 2313 4219 1838 4219 
Q 1578 4219 1281 4162 
Q 984 4106 628 3988 
L 628 4550 
Q 988 4650 1302 4700 
Q 1616 4750 1894 4750 
Q 2613 4750 3031 4423 
Q 3450 4097 3450 3541 
Q 3450 3153 3228 2886 
Q 3006 2619 2597 2516 
z
" transform="scale(0.015625)"/>
       </defs>
       <use xlink:href="#DejaVuSans-33"/>
       <use xlink:href="#DejaVuSans-30" x="63.623047"/>
      </g>
     </g>
    </g>
    <g id="xtick_5">
     <g id="line2d_9">
      <path d="M 521.384829 203.04 
L 521.384829 51.84 
" clip-path="url(#pc4f923bd92)" style="fill: none; stroke: #b0b0b0; stroke-width: 0.8; stroke-linecap: square"/>
     </g>
     <g id="line2d_10">
      <g>
       <use xlink:href="#m62b9c5e072" x="521.384829" y="203.04" style="stroke: #000000; stroke-width: 0.8"/>
      </g>
     </g>
     <g id="text_5">
      <!-- 40 -->
      <g transform="translate(515.022329 217.638437) scale(0.1 -0.1)">
       <defs>
        <path id="DejaVuSans-34" d="M 2419 4116 
L 825 1625 
L 2419 1625 
L 2419 4116 
z
M 2253 4666 
L 3047 4666 
L 3047 1625 
L 3713 1625 
L 3713 1100 
L 3047 1100 
L 3047 0 
L 2419 0 
L 2419 1100 
L 313 1100 
L 313 1709 
L 2253 4666 
z
" transform="scale(0.015625)"/>
       </defs>
       <use xlink:href="#DejaVuSans-34"/>
       <use xlink:href="#DejaVuSans-30" x="63.623047"/>
      </g>
     </g>
    </g>
    <g id="xtick_6">
     <g id="line2d_11">
      <path d="M 622.890127 203.04 
L 622.890127 51.84 
" clip-path="url(#pc4f923bd92)" style="fill: none; stroke: #b0b0b0; stroke-width: 0.8; stroke-linecap: square"/>
     </g>
     <g id="line2d_12">
      <g>
       <use xlink:href="#m62b9c5e072" x="622.890127" y="203.04" style="stroke: #000000; stroke-width: 0.8"/>
      </g>
     </g>
     <g id="text_6">
      <!-- 50 -->
      <g transform="translate(616.527627 217.638437) scale(0.1 -0.1)">
       <defs>
        <path id="DejaVuSans-35" d="M 691 4666 
L 3169 4666 
L 3169 4134 
L 1269 4134 
L 1269 2991 
Q 1406 3038 1543 3061 
Q 1681 3084 1819 3084 
Q 2600 3084 3056 2656 
Q 3513 2228 3513 1497 
Q 3513 744 3044 326 
Q 2575 -91 1722 -91 
Q 1428 -91 1123 -41 
Q 819 9 494 109 
L 494 744 
Q 775 591 1075 516 
Q 1375 441 1709 441 
Q 2250 441 2565 725 
Q 2881 1009 2881 1497 
Q 2881 1984 2565 2268 
Q 2250 2553 1709 2553 
Q 1456 2553 1204 2497 
Q 953 2441 691 2322 
L 691 4666 
z
" transform="scale(0.015625)"/>
       </defs>
       <use xlink:href="#DejaVuSans-35"/>
       <use xlink:href="#DejaVuSans-30" x="63.623047"/>
      </g>
     </g>
    </g>
    <g id="text_7">
     <!-- Time (ms) -->
     <g transform="translate(343.800781 231.316562) scale(0.1 -0.1)">
      <defs>
       <path id="DejaVuSans-54" d="M -19 4666 
L 3928 4666 
L 3928 4134 
L 2272 4134 
L 2272 0 
L 1638 0 
L 1638 4134 
L -19 4134 
L -19 4666 
z
" transform="scale(0.015625)"/>
       <path id="DejaVuSans-69" d="M 603 3500 
L 1178 3500 
L 1178 0 
L 603 0 
L 603 3500 
z
M 603 4863 
L 1178 4863 
L 1178 4134 
L 603 4134 
L 603 4863 
z
" transform="scale(0.015625)"/>
       <path id="DejaVuSans-6d" d="M 3328 2828 
Q 3544 3216 3844 3400 
Q 4144 3584 4550 3584 
Q 5097 3584 5394 3201 
Q 5691 2819 5691 2113 
L 5691 0 
L 5113 0 
L 5113 2094 
Q 5113 2597 4934 2840 
Q 4756 3084 4391 3084 
Q 3944 3084 3684 2787 
Q 3425 2491 3425 1978 
L 3425 0 
L 2847 0 
L 2847 2094 
Q 2847 2600 2669 2842 
Q 2491 3084 2119 3084 
Q 1678 3084 1418 2786 
Q 1159 2488 1159 1978 
L 1159 0 
L 581 0 
L 581 3500 
L 1159 3500 
L 1159 2956 
Q 1356 3278 1631 3431 
Q 1906 3584 2284 3584 
Q 2666 3584 2933 3390 
Q 3200 3197 3328 2828 
z
" transform="scale(0.015625)"/>
       <path id="DejaVuSans-65" d="M 3597 1894 
L 3597 1613 
L 953 1613 
Q 991 1019 1311 708 
Q 1631 397 2203 397 
Q 2534 397 2845 478 
Q 3156 559 3463 722 
L 3463 178 
Q 3153 47 2828 -22 
Q 2503 -91 2169 -91 
Q 1331 -91 842 396 
Q 353 884 353 1716 
Q 353 2575 817 3079 
Q 1281 3584 2069 3584 
Q 2775 3584 3186 3129 
Q 3597 2675 3597 1894 
z
M 3022 2063 
Q 3016 2534 2758 2815 
Q 2500 3097 2075 3097 
Q 1594 3097 1305 2825 
Q 1016 2553 972 2059 
L 3022 2063 
z
" transform="scale(0.015625)"/>
       <path id="DejaVuSans-20" transform="scale(0.015625)"/>
       <path id="DejaVuSans-28" d="M 1984 4856 
Q 1566 4138 1362 3434 
Q 1159 2731 1159 2009 
Q 1159 1288 1364 580 
Q 1569 -128 1984 -844 
L 1484 -844 
Q 1016 -109 783 600 
Q 550 1309 550 2009 
Q 550 2706 781 3412 
Q 1013 4119 1484 4856 
L 1984 4856 
z
" transform="scale(0.015625)"/>
       <path id="DejaVuSans-73" d="M 2834 3397 
L 2834 2853 
Q 2591 2978 2328 3040 
Q 2066 3103 1784 3103 
Q 1356 3103 1142 2972 
Q 928 2841 928 2578 
Q 928 2378 1081 2264 
Q 1234 2150 1697 2047 
L 1894 2003 
Q 2506 1872 2764 1633 
Q 3022 1394 3022 966 
Q 3022 478 2636 193 
Q 2250 -91 1575 -91 
Q 1294 -91 989 -36 
Q 684 19 347 128 
L 347 722 
Q 666 556 975 473 
Q 1284 391 1588 391 
Q 1994 391 2212 530 
Q 2431 669 2431 922 
Q 2431 1156 2273 1281 
Q 2116 1406 1581 1522 
L 1381 1569 
Q 847 1681 609 1914 
Q 372 2147 372 2553 
Q 372 3047 722 3315 
Q 1072 3584 1716 3584 
Q 2034 3584 2315 3537 
Q 2597 3491 2834 3397 
z
" transform="scale(0.015625)"/>
       <path id="DejaVuSans-29" d="M 513 4856 
L 1013 4856 
Q 1481 4119 1714 3412 
Q 1947 2706 1947 2009 
Q 1947 1309 1714 600 
Q 1481 -109 1013 -844 
L 513 -844 
Q 928 -128 1133 580 
Q 1338 1288 1338 2009 
Q 1338 2731 1133 3434 
Q 928 4138 513 4856 
z
" transform="scale(0.015625)"/>
      </defs>
      <use xlink:href="#DejaVuSans-54"/>
      <use xlink:href="#DejaVuSans-69" x="57.958984"/>
      <use xlink:href="#DejaVuSans-6d" x="85.742188"/>
      <use xlink:href="#DejaVuSans-65" x="183.154297"/>
      <use xlink:href="#DejaVuSans-20" x="244.677734"/>
      <use xlink:href="#DejaVuSans-28" x="276.464844"/>
      <use xlink:href="#DejaVuSans-6d" x="315.478516"/>
      <use xlink:href="#DejaVuSans-73" x="412.890625"/>
      <use xlink:href="#DejaVuSans-29" x="464.990234"/>
     </g>
    </g>
   </g>
   <g id="matplotlib.axis_2">
    <g id="ytick_1">
     <g id="line2d_13">
      <path d="M 90 196.167273 
L 648 196.167273 
" clip-path="url(#pc4f923bd92)" style="fill: none; stroke: #b0b0b0; stroke-width: 0.8; stroke-linecap: square"/>
     </g>
     <g id="line2d_14">
      <defs>
       <path id="m9e41c73aae" d="M 0 0 
L -3.5 0 
" style="stroke: #000000; stroke-width: 0.8"/>
      </defs>
      <g>
       <use xlink:href="#m9e41c73aae" x="90" y="196.167273" style="stroke: #000000; stroke-width: 0.8"/>
      </g>
     </g>
     <g id="text_8">
      <!-- −60 -->
      <g transform="translate(61.895313 199.966491) scale(0.1 -0.1)">
       <defs>
        <path id="DejaVuSans-2212" d="M 678 2272 
L 4684 2272 
L 4684 1741 
L 678 1741 
L 678 2272 
z
" transform="scale(0.015625)"/>
        <path id="DejaVuSans-36" d="M 2113 2584 
Q 1688 2584 1439 2293 
Q 1191 2003 1191 1497 
Q 1191 994 1439 701 
Q 1688 409 2113 409 
Q 2538 409 2786 701 
Q 3034 994 3034 1497 
Q 3034 2003 2786 2293 
Q 2538 2584 2113 2584 
z
M 3366 4563 
L 3366 3988 
Q 3128 4100 2886 4159 
Q 2644 4219 2406 4219 
Q 1781 4219 1451 3797 
Q 1122 3375 1075 2522 
Q 1259 2794 1537 2939 
Q 1816 3084 2150 3084 
Q 2853 3084 3261 2657 
Q 3669 2231 3669 1497 
Q 3669 778 3244 343 
Q 2819 -91 2113 -91 
Q 1303 -91 875 529 
Q 447 1150 447 2328 
Q 447 3434 972 4092 
Q 1497 4750 2381 4750 
Q 2619 4750 2861 4703 
Q 3103 4656 3366 4563 
z
" transform="scale(0.015625)"/>
       </defs>
       <use xlink:href="#DejaVuSans-2212"/>
       <use xlink:href="#DejaVuSans-36" x="83.789062"/>
       <use xlink:href="#DejaVuSans-30" x="147.412109"/>
      </g>
     </g>
    </g>
    <g id="ytick_2">
     <g id="line2d_15">
      <path d="M 90 161.803636 
L 648 161.803636 
" clip-path="url(#pc4f923bd92)" style="fill: none; stroke: #b0b0b0; stroke-width: 0.8; stroke-linecap: square"/>
     </g>
     <g id="line2d_16">
      <g>
       <use xlink:href="#m9e41c73aae" x="90" y="161.803636" style="stroke: #000000; stroke-width: 0.8"/>
      </g>
     </g>
     <g id="text_9">
      <!-- −40 -->
      <g transform="translate(61.895313 165.602855) scale(0.1 -0.1)">
       <use xlink:href="#DejaVuSans-2212"/>
       <use xlink:href="#DejaVuSans-34" x="83.789062"/>
       <use xlink:href="#DejaVuSans-30" x="147.412109"/>
      </g>
     </g>
    </g>
    <g id="ytick_3">
     <g id="line2d_17">
      <path d="M 90 127.44 
L 648 127.44 
" clip-path="url(#pc4f923bd92)" style="fill: none; stroke: #b0b0b0; stroke-width: 0.8; stroke-linecap: square"/>
     </g>
     <g id="line2d_18">
      <g>
       <use xlink:href="#m9e41c73aae" x="90" y="127.44" style="stroke: #000000; stroke-width: 0.8"/>
      </g>
     </g>
     <g id="text_10">
      <!-- −20 -->
      <g transform="translate(61.895313 131.239219) scale(0.1 -0.1)">
       <use xlink:href="#DejaVuSans-2212"/>
       <use xlink:href="#DejaVuSans-32" x="83.789062"/>
       <use xlink:href="#DejaVuSans-30" x="147.412109"/>
      </g>
     </g>
    </g>
    <g id="ytick_4">
     <g id="line2d_19">
      <path d="M 90 93.076364 
L 648 93.076364 
" clip-path="url(#pc4f923bd92)" style="fill: none; stroke: #b0b0b0; stroke-width: 0.8; stroke-linecap: square"/>
     </g>
     <g id="line2d_20">
      <g>
       <use xlink:href="#m9e41c73aae" x="90" y="93.076364" style="stroke: #000000; stroke-width: 0.8"/>
      </g>
     </g>
     <g id="text_11">
      <!-- 0 -->
      <g transform="translate(76.6375 96.875582) scale(0.1 -0.1)">
       <use xlink:href="#DejaVuSans-30"/>
      </g>
     </g>
    </g>
    <g id="ytick_5">
     <g id="line2d_21">
      <path d="M 90 58.712727 
L 648 58.712727 
" clip-path="url(#pc4f923bd92)" style="fill: none; stroke: #b0b0b0; stroke-width: 0.8; stroke-linecap: square"/>
     </g>
     <g id="line2d_22">
      <g>
       <use xlink:href="#m9e41c73aae" x="90" y="58.712727" style="stroke: #000000; stroke-width: 0.8"/>
      </g>
     </g>
     <g id="text_12">
      <!-- 20 -->
      <g transform="translate(70.275 62.511946) scale(0.1 -0.1)">
       <use xlink:href="#DejaVuSans-32"/>
       <use xlink:href="#DejaVuSans-30" x="63.623047"/>
      </g>
     </g>
    </g>
    <g id="text_13">
     <!-- V (mV) -->
     <g transform="translate(55.815625 144.641563) rotate(-90) scale(0.1 -0.1)">
      <defs>
       <path id="DejaVuSans-56" d="M 1831 0 
L 50 4666 
L 709 4666 
L 2188 738 
L 3669 4666 
L 4325 4666 
L 2547 0 
L 1831 0 
z
" transform="scale(0.015625)"/>
      </defs>
      <use xlink:href="#DejaVuSans-56"/>
      <use xlink:href="#DejaVuSans-20" x="68.408203"/>
      <use xlink:href="#DejaVuSans-28" x="100.195312"/>
      <use xlink:href="#DejaVuSans-6d" x="139.208984"/>
      <use xlink:href="#DejaVuSans-56" x="236.621094"/>
      <use xlink:href="#DejaVuSans-29" x="305.029297"/>
     </g>
    </g>
   </g>
   <g id="line2d_23">
    <path d="M 115.363636 196.167273 
L 116.632453 196.066327 
L 117.901269 195.715064 
L 119.170085 195.117142 
L 120.438901 194.276559 
L 121.707717 193.197649 
L 123.230297 191.594956 
L 124.752876 189.664478 
L 126.529219 187.010444 
L 128.305562 183.938865 
L 130.335668 179.939085 
L 132.365774 175.443311 
L 134.649643 169.828679 
L 137.187275 162.949842 
L 139.978671 154.677704 
L 143.02383 144.911966 
L 146.576516 132.697618 
L 148.099095 127.238625 
L 148.352858 58.712727 
L 148.606621 196.167273 
L 154.443176 170.294427 
L 164.086179 127.104431 
L 164.339943 58.712727 
L 164.593706 196.167273 
L 169.415208 172.255466 
L 173.47542 153.234316 
L 177.028105 137.657748 
L 179.565737 127.242041 
L 179.819501 58.712727 
L 180.073264 196.167273 
L 183.118423 182.610869 
L 185.909819 171.164304 
L 188.447451 161.626483 
L 190.985083 152.959132 
L 193.268953 145.933608 
L 195.299059 140.325048 
L 197.329165 135.330246 
L 199.359271 130.961117 
L 201.135613 127.658978 
L 201.389377 127.227258 
L 201.64314 58.712727 
L 201.896903 196.167273 
L 203.673246 192.356343 
L 205.449588 189.062477 
L 206.972168 186.65163 
L 208.494747 184.621463 
L 210.017327 182.971124 
L 211.286143 181.884844 
L 212.554959 181.059887 
L 213.823776 180.494546 
L 215.092592 180.186756 
L 216.361408 180.134087 
L 218.645277 180.249852 
L 219.914093 179.994811 
L 221.18291 179.492239 
L 222.451726 178.746301 
L 223.720542 177.761494 
L 225.243122 176.27123 
L 226.765701 174.452899 
L 228.542044 171.929695 
L 230.318386 168.98932 
L 232.348492 165.140445 
L 234.378598 160.797128 
L 236.662468 155.356517 
L 239.2001 148.674969 
L 241.991496 140.625653 
L 245.036655 131.111137 
L 246.305471 126.948691 
L 246.559234 58.712727 
L 246.812997 196.167273 
L 251.126973 178.226776 
L 257.21729 151.861964 
L 262.800082 127.434505 
L 263.053845 58.712727 
L 263.307608 196.167273 
L 268.8904 168.618301 
L 273.204375 148.420572 
L 276.75706 132.766929 
L 278.025877 127.428299 
L 278.27964 58.712727 
L 278.533403 196.167273 
L 281.832325 180.87941 
L 284.877484 167.830615 
L 287.66888 156.844741 
L 290.206512 147.721622 
L 292.490382 140.250385 
L 294.774251 133.507964 
L 296.804357 128.145754 
L 297.311883 126.899829 
L 297.565646 58.712727 
L 297.81941 196.167273 
L 299.849516 190.325791 
L 301.879622 185.138034 
L 303.655964 181.141329 
L 305.432307 177.655126 
L 307.20865 174.68188 
L 308.731229 172.542489 
L 310.253809 170.780587 
L 311.776388 169.395243 
L 313.045204 168.527236 
L 314.314021 167.918175 
L 315.582837 167.56631 
L 316.851653 167.469525 
L 318.120469 167.625347 
L 319.896812 167.959844 
L 321.165628 167.907899 
L 322.434444 167.605726 
L 323.703261 167.057447 
L 324.972077 166.267515 
L 326.240893 165.240711 
L 327.763473 163.703085 
L 329.286052 161.841141 
L 331.062395 159.272404 
L 332.838738 156.292923 
L 334.868844 152.408083 
L 336.898949 148.039022 
L 339.182819 142.582778 
L 341.720451 135.901795 
L 344.511847 127.876603 
L 344.76561 127.114911 
L 345.019373 58.712727 
L 345.273137 196.167273 
L 349.079585 181.440877 
L 353.647324 162.783472 
L 360.498931 133.688863 
L 362.021511 127.171058 
L 362.275274 58.712727 
L 362.529037 196.167273 
L 368.873118 165.134719 
L 373.440857 143.851749 
L 377.247305 127.133201 
L 377.501069 58.712727 
L 377.754832 196.167273 
L 381.307517 179.317289 
L 384.352676 165.896501 
L 387.144072 154.509542 
L 389.935468 144.067622 
L 392.4731 135.44622 
L 394.756969 128.431285 
L 395.264496 126.971004 
L 395.518259 58.712727 
L 395.772022 196.167273 
L 398.055892 188.644374 
L 400.339761 181.920298 
L 402.369867 176.62748 
L 404.399973 171.988245 
L 406.176315 168.470524 
L 407.952658 165.461621 
L 409.475238 163.288873 
L 410.997817 161.491476 
L 412.520397 160.068916 
L 413.789213 159.16888 
L 415.058029 158.527124 
L 416.326845 158.142135 
L 417.595661 158.012034 
L 418.864478 158.134581 
L 420.133294 158.507176 
L 421.40211 158.824294 
L 422.670926 158.885974 
L 423.939743 158.696013 
L 425.208559 158.258549 
L 426.477375 157.578055 
L 427.746191 156.659328 
L 429.268771 155.24962 
L 430.79135 153.513688 
L 432.31393 151.461604 
L 434.090272 148.682204 
L 435.866615 145.505014 
L 437.896721 141.41127 
L 440.18059 136.251799 
L 442.46446 130.549094 
L 443.733276 127.163498 
L 443.987039 58.712727 
L 444.240802 196.167273 
L 447.539724 184.317792 
L 451.346173 169.749896 
L 455.913912 151.33205 
L 461.750466 126.972772 
L 462.004229 58.712727 
L 462.257993 196.167273 
L 469.87089 159.347625 
L 474.438628 138.301238 
L 476.976261 127.142035 
L 477.230024 58.712727 
L 477.483787 196.167273 
L 481.036473 179.037548 
L 484.335395 164.202672 
L 487.380554 151.53774 
L 490.17195 140.876535 
L 492.709582 132.02736 
L 494.232162 127.122029 
L 494.485925 58.712727 
L 494.739688 196.167273 
L 497.27732 187.125511 
L 499.56119 179.804029 
L 501.591296 173.962344 
L 503.621402 168.760221 
L 505.651508 164.207251 
L 507.42785 160.761661 
L 509.204193 157.822019 
L 510.726772 155.706537 
L 512.249352 153.964633 
L 513.771931 152.595945 
L 515.040748 151.739676 
L 516.309564 151.140756 
L 517.57838 150.797762 
L 518.847196 150.708901 
L 520.116013 150.87202 
L 521.384829 151.284605 
L 522.653645 151.741894 
L 523.922461 151.941924 
L 525.191277 151.888437 
L 526.460094 151.585517 
L 527.72891 151.037584 
L 528.997726 150.249384 
L 530.266542 149.225987 
L 531.789122 147.695052 
L 533.311701 145.843087 
L 535.088044 143.290759 
L 536.864387 140.333486 
L 538.894493 136.481988 
L 540.924599 132.155669 
L 542.954705 127.385687 
L 543.208468 58.712727 
L 543.462231 196.167273 
L 546.50739 186.036634 
L 549.806312 174.244407 
L 553.612761 159.777891 
L 558.434263 140.501057 
L 561.733185 126.943913 
L 561.986948 58.712727 
L 562.240711 196.167273 
L 571.122425 153.693028 
L 575.943927 131.766013 
L 576.958979 127.315639 
L 577.212743 58.712727 
L 577.466506 196.167273 
L 581.272955 177.642007 
L 584.571877 162.629832 
L 587.617036 149.752147 
L 590.408431 138.857751 
L 592.946064 129.767574 
L 593.707354 127.198915 
L 593.961117 58.712727 
L 594.21488 196.167273 
L 596.752513 186.579875 
L 599.036382 178.740894 
L 601.320251 171.674529 
L 603.350357 166.058197 
L 605.380463 161.079859 
L 607.156806 157.254579 
L 608.933148 153.929752 
L 610.709491 151.108775 
L 612.232071 149.093365 
L 613.75465 147.45004 
L 615.023466 146.364614 
L 616.292283 145.536754 
L 617.561099 144.965491 
L 618.829915 144.649483 
L 620.098731 144.587026 
L 621.367547 144.77605 
L 622.636364 145.214125 
L 622.636364 145.214125 
" clip-path="url(#pc4f923bd92)" style="fill: none; stroke: #1f77b4; stroke-width: 1.5; stroke-linecap: square"/>
   </g>
   <g id="patch_3">
    <path d="M 90 203.04 
L 90 51.84 
" style="fill: none; stroke: #000000; stroke-width: 0.8; stroke-linejoin: miter; stroke-linecap: square"/>
   </g>
   <g id="patch_4">
    <path d="M 648 203.04 
L 648 51.84 
" style="fill: none; stroke: #000000; stroke-width: 0.8; stroke-linejoin: miter; stroke-linecap: square"/>
   </g>
   <g id="patch_5">
    <path d="M 90 203.04 
L 648 203.04 
" style="fill: none; stroke: #000000; stroke-width: 0.8; stroke-linejoin: miter; stroke-linecap: square"/>
   </g>
   <g id="patch_6">
    <path d="M 90 51.84 
L 648 51.84 
" style="fill: none; stroke: #000000; stroke-width: 0.8; stroke-linejoin: miter; stroke-linecap: square"/>
   </g>
   <g id="text_14">
    <!-- Membrane Voltage and Input Current (30 µA) -->
    <g transform="translate(233.295938 45.84) scale(0.12 -0.12)">
     <defs>
      <path id="DejaVuSans-4d" d="M 628 4666 
L 1569 4666 
L 2759 1491 
L 3956 4666 
L 4897 4666 
L 4897 0 
L 4281 0 
L 4281 4097 
L 3078 897 
L 2444 897 
L 1241 4097 
L 1241 0 
L 628 0 
L 628 4666 
z
" transform="scale(0.015625)"/>
      <path id="DejaVuSans-62" d="M 3116 1747 
Q 3116 2381 2855 2742 
Q 2594 3103 2138 3103 
Q 1681 3103 1420 2742 
Q 1159 2381 1159 1747 
Q 1159 1113 1420 752 
Q 1681 391 2138 391 
Q 2594 391 2855 752 
Q 3116 1113 3116 1747 
z
M 1159 2969 
Q 1341 3281 1617 3432 
Q 1894 3584 2278 3584 
Q 2916 3584 3314 3078 
Q 3713 2572 3713 1747 
Q 3713 922 3314 415 
Q 2916 -91 2278 -91 
Q 1894 -91 1617 61 
Q 1341 213 1159 525 
L 1159 0 
L 581 0 
L 581 4863 
L 1159 4863 
L 1159 2969 
z
" transform="scale(0.015625)"/>
      <path id="DejaVuSans-72" d="M 2631 2963 
Q 2534 3019 2420 3045 
Q 2306 3072 2169 3072 
Q 1681 3072 1420 2755 
Q 1159 2438 1159 1844 
L 1159 0 
L 581 0 
L 581 3500 
L 1159 3500 
L 1159 2956 
Q 1341 3275 1631 3429 
Q 1922 3584 2338 3584 
Q 2397 3584 2469 3576 
Q 2541 3569 2628 3553 
L 2631 2963 
z
" transform="scale(0.015625)"/>
      <path id="DejaVuSans-61" d="M 2194 1759 
Q 1497 1759 1228 1600 
Q 959 1441 959 1056 
Q 959 750 1161 570 
Q 1363 391 1709 391 
Q 2188 391 2477 730 
Q 2766 1069 2766 1631 
L 2766 1759 
L 2194 1759 
z
M 3341 1997 
L 3341 0 
L 2766 0 
L 2766 531 
Q 2569 213 2275 61 
Q 1981 -91 1556 -91 
Q 1019 -91 701 211 
Q 384 513 384 1019 
Q 384 1609 779 1909 
Q 1175 2209 1959 2209 
L 2766 2209 
L 2766 2266 
Q 2766 2663 2505 2880 
Q 2244 3097 1772 3097 
Q 1472 3097 1187 3025 
Q 903 2953 641 2809 
L 641 3341 
Q 956 3463 1253 3523 
Q 1550 3584 1831 3584 
Q 2591 3584 2966 3190 
Q 3341 2797 3341 1997 
z
" transform="scale(0.015625)"/>
      <path id="DejaVuSans-6e" d="M 3513 2113 
L 3513 0 
L 2938 0 
L 2938 2094 
Q 2938 2591 2744 2837 
Q 2550 3084 2163 3084 
Q 1697 3084 1428 2787 
Q 1159 2491 1159 1978 
L 1159 0 
L 581 0 
L 581 3500 
L 1159 3500 
L 1159 2956 
Q 1366 3272 1645 3428 
Q 1925 3584 2291 3584 
Q 2894 3584 3203 3211 
Q 3513 2838 3513 2113 
z
" transform="scale(0.015625)"/>
      <path id="DejaVuSans-6f" d="M 1959 3097 
Q 1497 3097 1228 2736 
Q 959 2375 959 1747 
Q 959 1119 1226 758 
Q 1494 397 1959 397 
Q 2419 397 2687 759 
Q 2956 1122 2956 1747 
Q 2956 2369 2687 2733 
Q 2419 3097 1959 3097 
z
M 1959 3584 
Q 2709 3584 3137 3096 
Q 3566 2609 3566 1747 
Q 3566 888 3137 398 
Q 2709 -91 1959 -91 
Q 1206 -91 779 398 
Q 353 888 353 1747 
Q 353 2609 779 3096 
Q 1206 3584 1959 3584 
z
" transform="scale(0.015625)"/>
      <path id="DejaVuSans-6c" d="M 603 4863 
L 1178 4863 
L 1178 0 
L 603 0 
L 603 4863 
z
" transform="scale(0.015625)"/>
      <path id="DejaVuSans-74" d="M 1172 4494 
L 1172 3500 
L 2356 3500 
L 2356 3053 
L 1172 3053 
L 1172 1153 
Q 1172 725 1289 603 
Q 1406 481 1766 481 
L 2356 481 
L 2356 0 
L 1766 0 
Q 1100 0 847 248 
Q 594 497 594 1153 
L 594 3053 
L 172 3053 
L 172 3500 
L 594 3500 
L 594 4494 
L 1172 4494 
z
" transform="scale(0.015625)"/>
      <path id="DejaVuSans-67" d="M 2906 1791 
Q 2906 2416 2648 2759 
Q 2391 3103 1925 3103 
Q 1463 3103 1205 2759 
Q 947 2416 947 1791 
Q 947 1169 1205 825 
Q 1463 481 1925 481 
Q 2391 481 2648 825 
Q 2906 1169 2906 1791 
z
M 3481 434 
Q 3481 -459 3084 -895 
Q 2688 -1331 1869 -1331 
Q 1566 -1331 1297 -1286 
Q 1028 -1241 775 -1147 
L 775 -588 
Q 1028 -725 1275 -790 
Q 1522 -856 1778 -856 
Q 2344 -856 2625 -561 
Q 2906 -266 2906 331 
L 2906 616 
Q 2728 306 2450 153 
Q 2172 0 1784 0 
Q 1141 0 747 490 
Q 353 981 353 1791 
Q 353 2603 747 3093 
Q 1141 3584 1784 3584 
Q 2172 3584 2450 3431 
Q 2728 3278 2906 2969 
L 2906 3500 
L 3481 3500 
L 3481 434 
z
" transform="scale(0.015625)"/>
      <path id="DejaVuSans-64" d="M 2906 2969 
L 2906 4863 
L 3481 4863 
L 3481 0 
L 2906 0 
L 2906 525 
Q 2725 213 2448 61 
Q 2172 -91 1784 -91 
Q 1150 -91 751 415 
Q 353 922 353 1747 
Q 353 2572 751 3078 
Q 1150 3584 1784 3584 
Q 2172 3584 2448 3432 
Q 2725 3281 2906 2969 
z
M 947 1747 
Q 947 1113 1208 752 
Q 1469 391 1925 391 
Q 2381 391 2643 752 
Q 2906 1113 2906 1747 
Q 2906 2381 2643 2742 
Q 2381 3103 1925 3103 
Q 1469 3103 1208 2742 
Q 947 2381 947 1747 
z
" transform="scale(0.015625)"/>
      <path id="DejaVuSans-49" d="M 628 4666 
L 1259 4666 
L 1259 0 
L 628 0 
L 628 4666 
z
" transform="scale(0.015625)"/>
      <path id="DejaVuSans-70" d="M 1159 525 
L 1159 -1331 
L 581 -1331 
L 581 3500 
L 1159 3500 
L 1159 2969 
Q 1341 3281 1617 3432 
Q 1894 3584 2278 3584 
Q 2916 3584 3314 3078 
Q 3713 2572 3713 1747 
Q 3713 922 3314 415 
Q 2916 -91 2278 -91 
Q 1894 -91 1617 61 
Q 1341 213 1159 525 
z
M 3116 1747 
Q 3116 2381 2855 2742 
Q 2594 3103 2138 3103 
Q 1681 3103 1420 2742 
Q 1159 2381 1159 1747 
Q 1159 1113 1420 752 
Q 1681 391 2138 391 
Q 2594 391 2855 752 
Q 3116 1113 3116 1747 
z
" transform="scale(0.015625)"/>
      <path id="DejaVuSans-75" d="M 544 1381 
L 544 3500 
L 1119 3500 
L 1119 1403 
Q 1119 906 1312 657 
Q 1506 409 1894 409 
Q 2359 409 2629 706 
Q 2900 1003 2900 1516 
L 2900 3500 
L 3475 3500 
L 3475 0 
L 2900 0 
L 2900 538 
Q 2691 219 2414 64 
Q 2138 -91 1772 -91 
Q 1169 -91 856 284 
Q 544 659 544 1381 
z
M 1991 3584 
L 1991 3584 
z
" transform="scale(0.015625)"/>
      <path id="DejaVuSans-43" d="M 4122 4306 
L 4122 3641 
Q 3803 3938 3442 4084 
Q 3081 4231 2675 4231 
Q 1875 4231 1450 3742 
Q 1025 3253 1025 2328 
Q 1025 1406 1450 917 
Q 1875 428 2675 428 
Q 3081 428 3442 575 
Q 3803 722 4122 1019 
L 4122 359 
Q 3791 134 3420 21 
Q 3050 -91 2638 -91 
Q 1578 -91 968 557 
Q 359 1206 359 2328 
Q 359 3453 968 4101 
Q 1578 4750 2638 4750 
Q 3056 4750 3426 4639 
Q 3797 4528 4122 4306 
z
" transform="scale(0.015625)"/>
      <path id="DejaVuSans-b5" d="M 544 -1331 
L 544 3500 
L 1119 3500 
L 1119 1325 
Q 1119 872 1334 640 
Q 1550 409 1972 409 
Q 2434 409 2667 671 
Q 2900 934 2900 1459 
L 2900 3500 
L 3475 3500 
L 3475 806 
Q 3475 619 3529 530 
Q 3584 441 3700 441 
Q 3728 441 3778 458 
Q 3828 475 3916 513 
L 3916 50 
Q 3788 -22 3673 -56 
Q 3559 -91 3450 -91 
Q 3234 -91 3106 31 
Q 2978 153 2931 403 
Q 2775 156 2548 32 
Q 2322 -91 2016 -91 
Q 1697 -91 1473 31 
Q 1250 153 1119 397 
L 1119 -1331 
L 544 -1331 
z
" transform="scale(0.015625)"/>
      <path id="DejaVuSans-41" d="M 2188 4044 
L 1331 1722 
L 3047 1722 
L 2188 4044 
z
M 1831 4666 
L 2547 4666 
L 4325 0 
L 3669 0 
L 3244 1197 
L 1141 1197 
L 716 0 
L 50 0 
L 1831 4666 
z
" transform="scale(0.015625)"/>
     </defs>
     <use xlink:href="#DejaVuSans-4d"/>
     <use xlink:href="#DejaVuSans-65" x="86.279297"/>
     <use xlink:href="#DejaVuSans-6d" x="147.802734"/>
     <use xlink:href="#DejaVuSans-62" x="245.214844"/>
     <use xlink:href="#DejaVuSans-72" x="308.691406"/>
     <use xlink:href="#DejaVuSans-61" x="349.804688"/>
     <use xlink:href="#DejaVuSans-6e" x="411.083984"/>
     <use xlink:href="#DejaVuSans-65" x="474.462891"/>
     <use xlink:href="#DejaVuSans-20" x="535.986328"/>
     <use xlink:href="#DejaVuSans-56" x="567.773438"/>
     <use xlink:href="#DejaVuSans-6f" x="628.431641"/>
     <use xlink:href="#DejaVuSans-6c" x="689.613281"/>
     <use xlink:href="#DejaVuSans-74" x="717.396484"/>
     <use xlink:href="#DejaVuSans-61" x="756.605469"/>
     <use xlink:href="#DejaVuSans-67" x="817.884766"/>
     <use xlink:href="#DejaVuSans-65" x="881.361328"/>
     <use xlink:href="#DejaVuSans-20" x="942.884766"/>
     <use xlink:href="#DejaVuSans-61" x="974.671875"/>
     <use xlink:href="#DejaVuSans-6e" x="1035.951172"/>
     <use xlink:href="#DejaVuSans-64" x="1099.330078"/>
     <use xlink:href="#DejaVuSans-20" x="1162.806641"/>
     <use xlink:href="#DejaVuSans-49" x="1194.59375"/>
     <use xlink:href="#DejaVuSans-6e" x="1224.085938"/>
     <use xlink:href="#DejaVuSans-70" x="1287.464844"/>
     <use xlink:href="#DejaVuSans-75" x="1350.941406"/>
     <use xlink:href="#DejaVuSans-74" x="1414.320312"/>
     <use xlink:href="#DejaVuSans-20" x="1453.529297"/>
     <use xlink:href="#DejaVuSans-43" x="1485.316406"/>
     <use xlink:href="#DejaVuSans-75" x="1555.140625"/>
     <use xlink:href="#DejaVuSans-72" x="1618.519531"/>
     <use xlink:href="#DejaVuSans-72" x="1657.882812"/>
     <use xlink:href="#DejaVuSans-65" x="1696.746094"/>
     <use xlink:href="#DejaVuSans-6e" x="1758.269531"/>
     <use xlink:href="#DejaVuSans-74" x="1821.648438"/>
     <use xlink:href="#DejaVuSans-20" x="1860.857422"/>
     <use xlink:href="#DejaVuSans-28" x="1892.644531"/>
     <use xlink:href="#DejaVuSans-33" x="1931.658203"/>
     <use xlink:href="#DejaVuSans-30" x="1995.28125"/>
     <use xlink:href="#DejaVuSans-20" x="2058.904297"/>
     <use xlink:href="#DejaVuSans-b5" x="2090.691406"/>
     <use xlink:href="#DejaVuSans-41" x="2154.314453"/>
     <use xlink:href="#DejaVuSans-29" x="2222.722656"/>
    </g>
   </g>
  </g>
  <g id="axes_2">
   <g id="patch_7">
    <path d="M 90 384.48 
L 648 384.48 
L 648 233.28 
L 90 233.28 
z
" style="fill: #ffffff"/>
   </g>
   <g id="matplotlib.axis_3">
    <g id="xtick_7">
     <g id="line2d_24">
      <path d="M 115.363636 384.48 
L 115.363636 233.28 
" clip-path="url(#p82079dd906)" style="fill: none; stroke: #b0b0b0; stroke-width: 0.8; stroke-linecap: square"/>
     </g>
     <g id="line2d_25">
      <g>
       <use xlink:href="#m62b9c5e072" x="115.363636" y="384.48" style="stroke: #000000; stroke-width: 0.8"/>
      </g>
     </g>
     <g id="text_15">
      <!-- 0 -->
      <g transform="translate(112.182386 399.078438) scale(0.1 -0.1)">
       <use xlink:href="#DejaVuSans-30"/>
      </g>
     </g>
    </g>
    <g id="xtick_8">
     <g id="line2d_26">
      <path d="M 216.868934 384.48 
L 216.868934 233.28 
" clip-path="url(#p82079dd906)" style="fill: none; stroke: #b0b0b0; stroke-width: 0.8; stroke-linecap: square"/>
     </g>
     <g id="line2d_27">
      <g>
       <use xlink:href="#m62b9c5e072" x="216.868934" y="384.48" style="stroke: #000000; stroke-width: 0.8"/>
      </g>
     </g>
     <g id="text_16">
      <!-- 10 -->
      <g transform="translate(210.506434 399.078438) scale(0.1 -0.1)">
       <use xlink:href="#DejaVuSans-31"/>
       <use xlink:href="#DejaVuSans-30" x="63.623047"/>
      </g>
     </g>
    </g>
    <g id="xtick_9">
     <g id="line2d_28">
      <path d="M 318.374233 384.48 
L 318.374233 233.28 
" clip-path="url(#p82079dd906)" style="fill: none; stroke: #b0b0b0; stroke-width: 0.8; stroke-linecap: square"/>
     </g>
     <g id="line2d_29">
      <g>
       <use xlink:href="#m62b9c5e072" x="318.374233" y="384.48" style="stroke: #000000; stroke-width: 0.8"/>
      </g>
     </g>
     <g id="text_17">
      <!-- 20 -->
      <g transform="translate(312.011733 399.078438) scale(0.1 -0.1)">
       <use xlink:href="#DejaVuSans-32"/>
       <use xlink:href="#DejaVuSans-30" x="63.623047"/>
      </g>
     </g>
    </g>
    <g id="xtick_10">
     <g id="line2d_30">
      <path d="M 419.879531 384.48 
L 419.879531 233.28 
" clip-path="url(#p82079dd906)" style="fill: none; stroke: #b0b0b0; stroke-width: 0.8; stroke-linecap: square"/>
     </g>
     <g id="line2d_31">
      <g>
       <use xlink:href="#m62b9c5e072" x="419.879531" y="384.48" style="stroke: #000000; stroke-width: 0.8"/>
      </g>
     </g>
     <g id="text_18">
      <!-- 30 -->
      <g transform="translate(413.517031 399.078438) scale(0.1 -0.1)">
       <use xlink:href="#DejaVuSans-33"/>
       <use xlink:href="#DejaVuSans-30" x="63.623047"/>
      </g>
     </g>
    </g>
    <g id="xtick_11">
     <g id="line2d_32">
      <path d="M 521.384829 384.48 
L 521.384829 233.28 
" clip-path="url(#p82079dd906)" style="fill: none; stroke: #b0b0b0; stroke-width: 0.8; stroke-linecap: square"/>
     </g>
     <g id="line2d_33">
      <g>
       <use xlink:href="#m62b9c5e072" x="521.384829" y="384.48" style="stroke: #000000; stroke-width: 0.8"/>
      </g>
     </g>
     <g id="text_19">
      <!-- 40 -->
      <g transform="translate(515.022329 399.078438) scale(0.1 -0.1)">
       <use xlink:href="#DejaVuSans-34"/>
       <use xlink:href="#DejaVuSans-30" x="63.623047"/>
      </g>
     </g>
    </g>
    <g id="xtick_12">
     <g id="line2d_34">
      <path d="M 622.890127 384.48 
L 622.890127 233.28 
" clip-path="url(#p82079dd906)" style="fill: none; stroke: #b0b0b0; stroke-width: 0.8; stroke-linecap: square"/>
     </g>
     <g id="line2d_35">
      <g>
       <use xlink:href="#m62b9c5e072" x="622.890127" y="384.48" style="stroke: #000000; stroke-width: 0.8"/>
      </g>
     </g>
     <g id="text_20">
      <!-- 50 -->
      <g transform="translate(616.527627 399.078438) scale(0.1 -0.1)">
       <use xlink:href="#DejaVuSans-35"/>
       <use xlink:href="#DejaVuSans-30" x="63.623047"/>
      </g>
     </g>
    </g>
    <g id="text_21">
     <!-- Time (ms) -->
     <g transform="translate(343.800781 412.756563) scale(0.1 -0.1)">
      <use xlink:href="#DejaVuSans-54"/>
      <use xlink:href="#DejaVuSans-69" x="57.958984"/>
      <use xlink:href="#DejaVuSans-6d" x="85.742188"/>
      <use xlink:href="#DejaVuSans-65" x="183.154297"/>
      <use xlink:href="#DejaVuSans-20" x="244.677734"/>
      <use xlink:href="#DejaVuSans-28" x="276.464844"/>
      <use xlink:href="#DejaVuSans-6d" x="315.478516"/>
      <use xlink:href="#DejaVuSans-73" x="412.890625"/>
      <use xlink:href="#DejaVuSans-29" x="464.990234"/>
     </g>
    </g>
   </g>
   <g id="matplotlib.axis_4">
    <g id="ytick_6">
     <g id="line2d_36">
      <path d="M 90 377.607273 
L 648 377.607273 
" clip-path="url(#p82079dd906)" style="fill: none; stroke: #b0b0b0; stroke-width: 0.8; stroke-linecap: square"/>
     </g>
     <g id="line2d_37">
      <g>
       <use xlink:href="#m9e41c73aae" x="90" y="377.607273" style="stroke: #000000; stroke-width: 0.8"/>
      </g>
     </g>
     <g id="text_22">
      <!-- 0 -->
      <g transform="translate(76.6375 381.406491) scale(0.1 -0.1)">
       <use xlink:href="#DejaVuSans-30"/>
      </g>
     </g>
    </g>
    <g id="ytick_7">
     <g id="line2d_38">
      <path d="M 90 354.698182 
L 648 354.698182 
" clip-path="url(#p82079dd906)" style="fill: none; stroke: #b0b0b0; stroke-width: 0.8; stroke-linecap: square"/>
     </g>
     <g id="line2d_39">
      <g>
       <use xlink:href="#m9e41c73aae" x="90" y="354.698182" style="stroke: #000000; stroke-width: 0.8"/>
      </g>
     </g>
     <g id="text_23">
      <!-- 5 -->
      <g transform="translate(76.6375 358.497401) scale(0.1 -0.1)">
       <use xlink:href="#DejaVuSans-35"/>
      </g>
     </g>
    </g>
    <g id="ytick_8">
     <g id="line2d_40">
      <path d="M 90 331.789091 
L 648 331.789091 
" clip-path="url(#p82079dd906)" style="fill: none; stroke: #b0b0b0; stroke-width: 0.8; stroke-linecap: square"/>
     </g>
     <g id="line2d_41">
      <g>
       <use xlink:href="#m9e41c73aae" x="90" y="331.789091" style="stroke: #000000; stroke-width: 0.8"/>
      </g>
     </g>
     <g id="text_24">
      <!-- 10 -->
      <g transform="translate(70.275 335.58831) scale(0.1 -0.1)">
       <use xlink:href="#DejaVuSans-31"/>
       <use xlink:href="#DejaVuSans-30" x="63.623047"/>
      </g>
     </g>
    </g>
    <g id="ytick_9">
     <g id="line2d_42">
      <path d="M 90 308.88 
L 648 308.88 
" clip-path="url(#p82079dd906)" style="fill: none; stroke: #b0b0b0; stroke-width: 0.8; stroke-linecap: square"/>
     </g>
     <g id="line2d_43">
      <g>
       <use xlink:href="#m9e41c73aae" x="90" y="308.88" style="stroke: #000000; stroke-width: 0.8"/>
      </g>
     </g>
     <g id="text_25">
      <!-- 15 -->
      <g transform="translate(70.275 312.679219) scale(0.1 -0.1)">
       <use xlink:href="#DejaVuSans-31"/>
       <use xlink:href="#DejaVuSans-35" x="63.623047"/>
      </g>
     </g>
    </g>
    <g id="ytick_10">
     <g id="line2d_44">
      <path d="M 90 285.970909 
L 648 285.970909 
" clip-path="url(#p82079dd906)" style="fill: none; stroke: #b0b0b0; stroke-width: 0.8; stroke-linecap: square"/>
     </g>
     <g id="line2d_45">
      <g>
       <use xlink:href="#m9e41c73aae" x="90" y="285.970909" style="stroke: #000000; stroke-width: 0.8"/>
      </g>
     </g>
     <g id="text_26">
      <!-- 20 -->
      <g transform="translate(70.275 289.770128) scale(0.1 -0.1)">
       <use xlink:href="#DejaVuSans-32"/>
       <use xlink:href="#DejaVuSans-30" x="63.623047"/>
      </g>
     </g>
    </g>
    <g id="ytick_11">
     <g id="line2d_46">
      <path d="M 90 263.061818 
L 648 263.061818 
" clip-path="url(#p82079dd906)" style="fill: none; stroke: #b0b0b0; stroke-width: 0.8; stroke-linecap: square"/>
     </g>
     <g id="line2d_47">
      <g>
       <use xlink:href="#m9e41c73aae" x="90" y="263.061818" style="stroke: #000000; stroke-width: 0.8"/>
      </g>
     </g>
     <g id="text_27">
      <!-- 25 -->
      <g transform="translate(70.275 266.861037) scale(0.1 -0.1)">
       <use xlink:href="#DejaVuSans-32"/>
       <use xlink:href="#DejaVuSans-35" x="63.623047"/>
      </g>
     </g>
    </g>
    <g id="ytick_12">
     <g id="line2d_48">
      <path d="M 90 240.152727 
L 648 240.152727 
" clip-path="url(#p82079dd906)" style="fill: none; stroke: #b0b0b0; stroke-width: 0.8; stroke-linecap: square"/>
     </g>
     <g id="line2d_49">
      <g>
       <use xlink:href="#m9e41c73aae" x="90" y="240.152727" style="stroke: #000000; stroke-width: 0.8"/>
      </g>
     </g>
     <g id="text_28">
      <!-- 30 -->
      <g transform="translate(70.275 243.951946) scale(0.1 -0.1)">
       <use xlink:href="#DejaVuSans-33"/>
       <use xlink:href="#DejaVuSans-30" x="63.623047"/>
      </g>
     </g>
    </g>
    <g id="text_29">
     <!-- I (µA) -->
     <g transform="translate(64.195312 322.447188) rotate(-90) scale(0.1 -0.1)">
      <use xlink:href="#DejaVuSans-49"/>
      <use xlink:href="#DejaVuSans-20" x="29.492188"/>
      <use xlink:href="#DejaVuSans-28" x="61.279297"/>
      <use xlink:href="#DejaVuSans-b5" x="100.292969"/>
      <use xlink:href="#DejaVuSans-41" x="163.916016"/>
      <use xlink:href="#DejaVuSans-29" x="232.324219"/>
     </g>
    </g>
   </g>
   <g id="line2d_50">
    <path d="M 115.363636 377.607273 
L 124.24535 340.296549 
L 129.066852 321.042754 
L 132.8733 306.710157 
L 136.172222 295.076784 
L 139.217381 285.098644 
L 142.008777 276.671306 
L 144.54641 269.661891 
L 147.084042 263.317995 
L 149.367911 258.209923 
L 151.398017 254.1693 
L 153.428123 250.615832 
L 155.204466 247.917237 
L 156.980809 245.610541 
L 158.503388 243.950607 
L 160.025968 242.587425 
L 161.548547 241.524021 
L 163.071126 240.762755 
L 164.339943 240.360408 
L 165.608759 240.169685 
L 166.877575 240.190881 
L 168.146391 240.423962 
L 169.415208 240.868571 
L 170.684024 241.524021 
L 172.206603 242.587425 
L 173.729183 243.950607 
L 175.251762 245.610541 
L 177.028105 247.917237 
L 178.804448 250.615832 
L 180.58079 253.698169 
L 182.610896 257.678731 
L 184.641002 262.132595 
L 186.924872 267.686981 
L 189.462504 274.501097 
L 192.000136 281.950896 
L 194.791532 290.824961 
L 197.836691 301.241619 
L 201.389377 314.24425 
L 205.449588 330.03191 
L 210.27109 349.733237 
L 216.868934 377.607273 
L 225.750648 340.296549 
L 230.57215 321.042754 
L 234.378598 306.710157 
L 237.677521 295.076784 
L 240.72268 285.098644 
L 243.514075 276.671306 
L 246.051708 269.661891 
L 248.58934 263.317995 
L 250.873209 258.209923 
L 252.903315 254.1693 
L 254.933421 250.615832 
L 256.709764 247.917237 
L 258.486107 245.610541 
L 260.008686 243.950607 
L 261.531266 242.587425 
L 263.053845 241.524021 
L 264.576425 240.762755 
L 265.845241 240.360408 
L 267.114057 240.169685 
L 268.382873 240.190881 
L 269.651689 240.423962 
L 270.920506 240.868571 
L 272.189322 241.524021 
L 273.711901 242.587425 
L 275.234481 243.950607 
L 276.75706 245.610541 
L 278.533403 247.917237 
L 280.309746 250.615832 
L 282.086088 253.698169 
L 284.116194 257.678731 
L 286.1463 262.132595 
L 288.43017 267.686981 
L 290.967802 274.501097 
L 293.505435 281.950896 
L 296.29683 290.824961 
L 299.341989 301.241619 
L 302.894675 314.24425 
L 306.954887 330.03191 
L 311.776388 349.733237 
L 318.374233 377.607273 
L 327.255946 340.296549 
L 332.077448 321.042754 
L 335.883896 306.710157 
L 339.182819 295.076784 
L 342.227978 285.098644 
L 345.019373 276.671306 
L 347.557006 269.661891 
L 350.094638 263.317995 
L 352.378507 258.209923 
L 354.408613 254.1693 
L 356.438719 250.615832 
L 358.215062 247.917237 
L 359.991405 245.610541 
L 361.513984 243.950607 
L 363.036564 242.587425 
L 364.559143 241.524021 
L 366.081723 240.762755 
L 367.350539 240.360408 
L 368.619355 240.169685 
L 369.888171 240.190881 
L 371.156988 240.423962 
L 372.425804 240.868571 
L 373.69462 241.524021 
L 375.2172 242.587425 
L 376.739779 243.950607 
L 378.262358 245.610541 
L 380.038701 247.917237 
L 381.815044 250.615832 
L 383.591387 253.698169 
L 385.621493 257.678731 
L 387.651599 262.132595 
L 389.935468 267.686981 
L 392.4731 274.501097 
L 395.010733 281.950896 
L 397.802128 290.824961 
L 400.847287 301.241619 
L 404.399973 314.24425 
L 408.460185 330.03191 
L 413.281686 349.733237 
L 419.879531 377.607273 
L 428.761244 340.296549 
L 433.582746 321.042754 
L 437.389195 306.710157 
L 440.688117 295.076784 
L 443.733276 285.098644 
L 446.524671 276.671306 
L 449.062304 269.661891 
L 451.599936 263.317995 
L 453.883806 258.209923 
L 455.913912 254.1693 
L 457.944017 250.615832 
L 459.72036 247.917237 
L 461.496703 245.610541 
L 463.019282 243.950607 
L 464.541862 242.587425 
L 466.064441 241.524021 
L 467.587021 240.762755 
L 468.855837 240.360408 
L 470.124653 240.169685 
L 471.393469 240.190881 
L 472.662286 240.423962 
L 473.931102 240.868571 
L 475.199918 241.524021 
L 476.722498 242.587425 
L 478.245077 243.950607 
L 479.767657 245.610541 
L 481.543999 247.917237 
L 483.320342 250.615832 
L 485.096685 253.698169 
L 487.126791 257.678731 
L 489.156897 262.132595 
L 491.440766 267.686981 
L 493.978398 274.501097 
L 496.516031 281.950896 
L 499.307426 290.824961 
L 502.352585 301.241619 
L 505.905271 314.24425 
L 509.965483 330.03191 
L 514.786984 349.733237 
L 521.384829 377.607273 
L 530.266542 340.296549 
L 535.088044 321.042754 
L 538.894493 306.710157 
L 542.193415 295.076784 
L 545.238574 285.098644 
L 548.02997 276.671306 
L 550.567602 269.661891 
L 553.105234 263.317995 
L 555.389104 258.209923 
L 557.41921 254.1693 
L 559.449316 250.615832 
L 561.225658 247.917237 
L 563.002001 245.610541 
L 564.52458 243.950607 
L 566.04716 242.587425 
L 567.569739 241.524021 
L 569.092319 240.762755 
L 570.361135 240.360408 
L 571.629951 240.169685 
L 572.898768 240.190881 
L 574.167584 240.423962 
L 575.4364 240.868571 
L 576.705216 241.524021 
L 578.227796 242.587425 
L 579.750375 243.950607 
L 581.272955 245.610541 
L 583.049297 247.917237 
L 584.82564 250.615832 
L 586.601983 253.698169 
L 588.632089 257.678731 
L 590.662195 262.132595 
L 592.946064 267.686981 
L 595.483696 274.501097 
L 598.021329 281.950896 
L 600.812725 290.824961 
L 603.857883 301.241619 
L 607.410569 314.24425 
L 611.470781 330.03191 
L 616.292283 349.733237 
L 622.636364 376.527718 
L 622.636364 376.527718 
" clip-path="url(#p82079dd906)" style="fill: none; stroke: #1f77b4; stroke-width: 1.5; stroke-linecap: square"/>
   </g>
   <g id="patch_8">
    <path d="M 90 384.48 
L 90 233.28 
" style="fill: none; stroke: #000000; stroke-width: 0.8; stroke-linejoin: miter; stroke-linecap: square"/>
   </g>
   <g id="patch_9">
    <path d="M 648 384.48 
L 648 233.28 
" style="fill: none; stroke: #000000; stroke-width: 0.8; stroke-linejoin: miter; stroke-linecap: square"/>
   </g>
   <g id="patch_10">
    <path d="M 90 384.48 
L 648 384.48 
" style="fill: none; stroke: #000000; stroke-width: 0.8; stroke-linejoin: miter; stroke-linecap: square"/>
   </g>
   <g id="patch_11">
    <path d="M 90 233.28 
L 648 233.28 
" style="fill: none; stroke: #000000; stroke-width: 0.8; stroke-linejoin: miter; stroke-linecap: square"/>
   </g>
  </g>
 </g>
 <defs>
  <clipPath id="pc4f923bd92">
   <rect x="90" y="51.84" width="558" height="151.2"/>
  </clipPath>
  <clipPath id="p82079dd906">
   <rect x="90" y="233.28" width="558" height="151.2"/>
  </clipPath>
 </defs>
</svg>
